<?xml version="1.0" encoding="utf-8"?>
<!-- Generator: Adobe Illustrator 19.0.0, SVG Export Plug-In . SVG Version: 6.00 Build 0)  -->
<svg version="1.1" id="Capa_1" xmlns="http://www.w3.org/2000/svg" xmlns:xlink="http://www.w3.org/1999/xlink" x="0px" y="0px"
	 viewBox="0 0 595.3 841.9" style="enable-background:new 0 0 595.3 841.9;" xml:space="preserve">
<style type="text/css">
	.st0{fill:none;stroke:#FFFFFF;stroke-width:10;stroke-miterlimit:10;}
</style>
<path id="XMLID_6_" class="st0" d="M181.9,271.6c-1.8-10.3-10.8-18.1-21.6-18.1h-22c-10.8,0-19.8,7.8-21.6,18.1H181.9z"/>
<path id="XMLID_11_" class="st0" d="M536.2,288.2H85.9c-12.1,0-21.9,9.8-21.9,21.9v297c0,12.1,9.8,21.9,21.9,21.9h450.3
	c12.1,0,21.9-9.8,21.9-21.9v-297C558.1,298,548.3,288.2,536.2,288.2z M310.7,583.2c-64.9,0-117.4-52.6-117.4-117.4
	c0-64.9,52.6-117.4,117.4-117.4s117.4,52.6,117.4,117.4C428.1,530.6,375.5,583.2,310.7,583.2z M524.1,356.5h-80.2v-43h80.2V356.5z"
	/>
<path id="XMLID_9_" class="st0" d="M310.7,368.4c-53.8,0-97.4,43.6-97.4,97.4s43.6,97.4,97.4,97.4s97.4-43.6,97.4-97.4
	S364.5,368.4,310.7,368.4z"/>
</svg>
