<?xml version="1.0" encoding="utf-8"?>
<!-- Generator: Adobe Illustrator 19.0.0, SVG Export Plug-In . SVG Version: 6.00 Build 0)  -->
<svg version="1.1" id="Capa_1" xmlns="http://www.w3.org/2000/svg" xmlns:xlink="http://www.w3.org/1999/xlink" x="0px" y="0px"
	 viewBox="0 0 255.1 93.5" style="enable-background:new 0 0 255.1 93.5;" xml:space="preserve">
<style type="text/css">
	.st0{fill:#5B5B5F;}
</style>
<path class="st0" d="M98.8,33h5.8l3.2,0.4l0.4,0.2l0.4,0.3l0.3,0.3l0.3,0.4l0.2,0.4l0.2,0.5l0.1,0.5l0,0.6l0,0.1v0.1v0.3l-0.1,0.5
	l-0.2,0.4l-0.2,0.5l-0.3,0.4l-0.3,0.4l-0.4,0.3h-0.1h0v0.1l-0.1,0.1l-0.2,0.2l-3.5,0.6h-5.5V33z M103.8,22l2.5,0.4l0.4,0.2l0.4,0.3
	l0.3,0.3l0.3,0.4l0.2,0.4l0.1,0.4l0.1,0.5l0,0.6l0,0.2v0.2l-0.1,0.4l-0.1,0.4l-0.1,0.2l0,0.1v0.1l-0.1,0l0,0.1l-0.1,0.2l-0.3,0.3
	l-0.3,0.3l-0.3,0.3l-3.1,0.7h-4.6v-7H103.8z M104.1,17.7h-10v27h9.3l5.2-0.6l0.7-0.3l0.7-0.3l0.6-0.3l0.6-0.3l0.5-0.4l0.5-0.4
	l0.2-0.2l0.2-0.2l0.2-0.2l0.2-0.2l0.3-0.5l0.1-0.3l0.2-0.2l0.2-0.6l0.1-0.3v-0.1l0,0l0.1-0.1v-0.2v-0.1l0.1,0l0.1-0.3v-0.2v-0.1l0,0
	l0.1-0.3l0.1-0.7l0.1-0.7l-0.2-1.2l-0.2-1.1l-0.2-0.5l-0.2-0.4l-0.5-0.8l-0.7-0.7l-0.4-0.3l-0.4-0.2l-0.5-0.3l-0.5-0.2l-1.1-0.3
	l0.7-0.6l0.7-0.6l0.1-0.2l0-0.1l0.1,0l0.3-0.3L112,28l0.3-0.8l0.1-0.4l0.1-0.4l0.1-0.9l0-0.5v-0.2l0.1-0.2l-0.1-0.9l-0.1-0.9
	l-0.3-0.9l-0.4-0.8l-0.6-0.9l-0.7-0.7l-0.9-0.6l-0.9-0.5L104.1,17.7z"/>
<rect id="XMLID_19_" x="141.7" y="17.7" class="st0" width="4.7" height="27"/>
<rect id="XMLID_18_" x="175.4" y="17.7" class="st0" width="4.7" height="27"/>
<polygon id="XMLID_17_" class="st0" points="202.7,19.1 199.3,18 195.1,17.5 194,17.5 193,17.6 192,17.8 191.1,18 190.3,18.2 
	189.5,18.6 188.7,19 188.1,19.5 187.5,20 187,20.5 186.5,21.1 186.1,21.8 185.8,22.5 185.6,23.3 185.5,24.1 185.4,25.1 185.4,25.9 
	185.6,26.6 185.7,27.3 186,28.1 186.2,28.6 186.6,29.2 187.1,29.7 187.6,30.1 188.6,30.9 189.8,31.6 191,32.1 192.4,32.6 
	197.2,34.5 197.6,34.7 198,35 198.7,35.8 198.9,36.1 199.1,36.6 199.3,37.6 199.2,37.9 199.1,38.4 199,38.5 199,38.7 198.8,39.1 
	198.6,39.4 198.3,39.7 198.1,39.8 198,39.8 197.9,39.9 197.6,40.2 193.9,41 189.6,40.4 188.6,40 187.8,39.7 187.1,39.3 186.5,38.9 
	184.6,42.7 185.3,43.1 186.2,43.6 187.2,43.9 188.3,44.4 193.7,45 194.8,45 195.9,44.9 196.9,44.7 197.4,44.6 197.9,44.5 
	198.4,44.3 198.8,44.1 199.7,43.8 200.1,43.6 200.5,43.4 201.3,42.9 201.6,42.6 201.9,42.3 202.5,41.7 203,41 203.2,40.6 
	203.3,40.4 203.3,40.3 203.4,40.3 203.4,40.1 203.4,40 203.5,39.9 203.7,39.5 203.8,39 204,38.7 204.1,37.8 204.2,36.9 204.1,36.1 
	204,35.3 203.8,34.6 203.6,34 203.3,33.3 202.9,32.8 202.5,32.3 202.1,31.9 201,31 199.8,30.4 198.6,29.8 197.3,29.3 192.5,27.4 
	192,27.1 191.5,26.9 191.1,26.5 190.9,26.2 190.6,25.8 190.5,25.3 190.3,24.9 190.3,24.4 190.4,23.7 190.7,23.1 191,22.6 
	191.7,22.1 195,21.5 195.9,21.5 196.9,21.7 197.9,21.8 198.9,22.1 199.8,22.3 200.8,22.6 202.6,23.4 "/>
<polygon id="XMLID_16_" class="st0" points="213.1,28.8 213.1,17.7 208.4,17.7 208.4,44.7 213.1,44.7 213.1,33 226.3,33 226.3,44.7 
	231,44.7 231,17.7 226.3,17.7 226.3,28.8 "/>
<polygon id="XMLID_15_" class="st0" points="110.5,71.6 108.2,72.4 104.9,72.9 103.9,72.8 103,72.6 102.1,72.4 101.3,72.1 
	100.6,71.7 99.9,71.2 99.2,70.7 98.7,70.1 98.1,69.3 97.7,68.6 97.3,67.8 97,67 96.8,66.1 96.6,65.2 96.5,64.2 96.5,63.3 96.5,62.2 
	96.7,61.3 97.1,59.5 97.4,58.6 97.8,57.9 98.2,57.1 98.8,56.5 99.4,55.8 100,55.3 100.6,54.7 101.4,54.4 102.2,54.1 103,53.8 
	103.9,53.7 104.9,53.6 108.2,54.1 110.5,55 111.9,51.1 111.1,50.7 110.2,50.3 109.3,50 108.4,49.8 107.4,49.7 106.4,49.6 
	105.3,49.5 104.3,49.5 102.8,49.5 101.4,49.7 100.1,50 98.9,50.5 97.8,51.1 96.8,51.8 95.8,52.6 95,53.6 94.2,54.5 93.5,55.6 
	92.9,56.7 92.5,57.9 92.1,59.1 91.8,60.5 91.7,61.8 91.6,63.3 91.7,64.7 91.8,66.2 92.1,67.6 92.2,68.2 92.5,68.9 92.9,70.1 
	93.5,71.2 94.2,72.2 95,73.2 95.8,74 96.8,74.8 97.8,75.4 98.9,76 100.1,76.4 101.4,76.7 102.8,76.9 104.3,77.1 111.9,75.4 "/>
<polygon id="XMLID_14_" class="st0" points="213.7,51.1 210.2,49.9 206.2,49.5 204.7,49.5 203.3,49.7 202,50 200.8,50.5 199.6,51.1 
	198.6,51.8 197.6,52.6 196.8,53.6 196,54.5 195.3,55.6 194.7,56.7 194.2,57.9 193.9,59.1 193.6,60.5 193.5,61.8 193.4,63.3 
	193.5,64.7 193.6,66.2 193.9,67.6 194,68.2 194.2,68.9 194.7,70.1 195.3,71.2 196,72.2 196.8,73.2 197.6,74 198.6,74.8 199.6,75.4 
	200.8,76 202,76.4 203.3,76.7 204.7,76.9 206.2,77 207.2,77 208.2,76.9 209.2,76.7 209.7,76.6 209.8,76.6 209.9,76.6 210.2,76.6 
	210.4,76.5 210.5,76.4 210.6,76.4 211.1,76.3 211.3,76.2 211.4,76.2 211.5,76.2 212,76.1 212.9,75.8 213.7,75.4 212.4,71.6 
	210,72.4 206.7,72.9 205.7,72.8 204.8,72.6 203.9,72.4 203.1,72.1 202.3,71.7 201.7,71.2 201,70.7 200.5,70.1 199.9,69.3 
	199.5,68.6 199.1,67.8 198.8,67 198.6,66.1 198.4,65.2 198.3,64.2 198.3,63.3 198.3,62.2 198.5,61.3 198.9,59.5 199.2,58.6 
	199.6,57.9 200,57.1 200.6,56.5 201.1,55.8 201.8,55.3 202.4,54.7 203.2,54.4 204,54.1 204.8,53.8 205.7,53.7 206.7,53.6 210,54.1 
	212.4,55 "/>
<path class="st0" d="M131.3,56.1l0.5,0.6l0.4,0.8l0.4,0.8l0.3,0.9l0.2,0.9l0.2,1l0.1,1l0.1,1.1l-0.1,1.1l-0.1,1l-0.2,1l-0.2,1
	l-0.3,0.9l-0.4,0.8l-0.5,0.7l-0.5,0.7l-0.6,0.6l-0.6,0.5l-0.7,0.4l-0.7,0.4l-0.8,0.2l-0.4,0.1l-0.2,0l-0.1,0.1h-0.2l-0.2,0l-0.4,0.1
	H126l-0.4,0.1l-0.9-0.1l-0.8-0.1l-0.8-0.2l-0.7-0.2l-0.7-0.4l-0.6-0.4l-0.6-0.5l-0.5-0.6l-0.6-0.7l-0.4-0.7l-0.4-0.8l-0.3-0.8
	l-0.3-0.9l-0.2-1l-0.1-1v-1.1v-1.1l0.1-1l0.2-1l0.3-0.9l0.3-0.9l0.4-0.8l0.4-0.8l0.6-0.6l0.5-0.6l0.6-0.5l0.6-0.5l0.7-0.3l0.7-0.3
	l0.8-0.1l0.8-0.1h0.9h0.8l0.8,0.1l0.7,0.1l0.8,0.3l0.7,0.3l0.7,0.5l0.6,0.5L131.3,56.1z M135,73.1l0.1-0.3l0.2-0.2l0.4-0.5l0.7-1
	l0.6-1.1l0.1-0.3l0.1-0.3l0.3-0.6l0.1-0.7l0.2-0.6l0.3-1.3l0.1-1.4l0.1-0.8l0.1-0.7l-0.1-1.6l-0.1-1.4l-0.3-1.4l-0.3-1.3l-0.5-1.2
	l-0.6-1.1l-0.7-1l-0.8-0.9l-1-0.9l-0.5-0.4l-0.5-0.3l-1.1-0.6l-1.1-0.5l-1.2-0.4l-0.7-0.2l-0.6-0.1l-1.3-0.2l-1.4-0.1l-1.5,0.1
	l-1.3,0.2l-1.3,0.3l-1.1,0.4l-1.2,0.5l-1,0.7l-1,0.8l-0.8,0.9l-0.9,0.9l-0.7,1.1l-0.6,1.1l-0.5,1.2l-0.4,1.2l-0.2,1.4l-0.2,1.4
	l0,1.6l0,1.5l0.1,0.7l0.1,0.8l0.2,1.4l0.4,1.3l0.4,1.2l0.6,1.1l0.7,1l0.8,1l0.9,0.8l1,0.8l1,0.6l1.1,0.6l1.2,0.4l1.3,0.3l1.3,0.1
	l1.5,0.1l0.7-0.1l0.1,0h0.1h0.2h0.4l1.3-0.2l0.6-0.2l0.7-0.1l0.6-0.2l0.6-0.2l0.5-0.3l0.6-0.3l1.1-0.6l0.5-0.4l0.5-0.4L135,73.1z"/>
<polygon id="XMLID_11_" class="st0" points="163.7,49.7 159,49.7 159,66.6 158.9,67.3 158.8,68.1 158.6,68.8 158.5,69.4 158.2,70 
	157.9,70.5 157.7,70.7 157.6,70.8 157.6,70.8 157.6,70.8 157.6,70.9 157.4,71.1 157.3,71.2 157.2,71.2 157.2,71.2 157.2,71.3 
	156.8,71.7 156.3,72 156,72.1 155.9,72.1 155.9,72.1 155.9,72.1 155.8,72.2 155.5,72.3 155.4,72.3 155.4,72.3 155.4,72.3 
	155.3,72.4 155.1,72.4 155,72.4 154.9,72.4 154.9,72.5 154.7,72.6 154,72.7 153.4,72.7 152.7,72.8 151.9,72.7 151.3,72.7 
	150.6,72.6 150.1,72.4 149,72 148.5,71.7 148,71.3 147.6,70.9 147.3,70.5 147,70 146.8,69.4 146.6,68.8 146.5,68.1 146.4,67.3 
	146.4,66.6 146.4,49.7 141.7,49.7 141.7,66.5 141.7,67.8 141.9,69 142.1,70.1 142.4,71.2 142.8,72.1 143.3,73 143.9,73.8 
	144.6,74.5 145.3,75 146.1,75.5 147,76 148,76.3 149,76.6 150.1,76.8 151.3,76.9 152.6,77 153.8,76.9 155,76.8 156.1,76.6 
	157.2,76.4 158.2,76 158.3,75.9 158.6,75.8 159.1,75.6 159.4,75.3 159.6,75.2 159.9,75.1 160.6,74.5 160.9,74.1 161.1,73.9 
	161.3,73.8 161.6,73.3 161.9,73 162.1,72.5 162.4,72.1 162.6,71.6 162.7,71.3 162.9,71.2 163,70.6 163.2,70.1 163.3,69.5 
	163.3,69.2 163.4,69 163.4,68.6 163.5,68.4 163.6,67.8 163.7,66.5 "/>
<polygon id="XMLID_10_" class="st0" points="185.3,49.7 185.3,64.4 185.4,68 185.3,68 172.7,49.7 167.7,49.7 167.7,76.6 172.4,76.6 
	172.4,60.5 172.3,57 185.9,76.6 189.9,76.6 189.9,49.7 "/>
<rect id="XMLID_9_" x="217.3" y="49.7" class="st0" width="4.7" height="27"/>
<polygon id="XMLID_8_" class="st0" points="226.3,76.6 241.5,76.6 241.5,72.4 231,72.4 231,49.7 226.3,49.7 "/>
<polygon id="XMLID_7_" class="st0" points="172,22 172,17.7 149.9,17.7 149.9,22 158.6,22 158.6,44.6 163.2,44.6 163.2,22 "/>
<path class="st0" d="M130.7,23.1l0.4,0.5l0.4,0.7l0.2,0.7l0.1,0.9l-0.1,0.4l0,0.2v0.2l-0.1,0.4l-0.1,0.4l-0.4,0.7l-0.2,0.3l-0.1,0
	l-0.1,0.1l-0.1,0.2l-0.4,0.2l-0.2,0.1l-0.1,0.1l0,0.1l-0.4,0.2l-0.4,0.2l-0.5,0.1l-0.5,0.1l-0.6,0.1l-0.6,0h-4.6V22h4.7l1.1,0l1,0.2
	l0.8,0.3l0.3,0.2L130.7,23.1z M135.1,30l0.3-0.5l0.3-0.5l0.2-0.5l0.2-0.5v-0.2v-0.1v0h0l0.1-0.3l0.1-0.6v-0.3l0-0.3v-0.3l0-0.3
	l0-0.8l-0.1-0.8l-0.1-0.7l-0.2-0.7l-0.3-0.7l-0.4-0.6l-0.4-0.6l-0.5-0.6l-0.6-0.6l-0.7-0.5l-0.8-0.4l-0.9-0.3l-1-0.3l-1.1-0.2
	l-1.2-0.1h-1.2h-9.2v26.9h4.7V34.2h4.2l0.6,0.1l0.6,0.4l0.6,0.7l0.7,1l4.1,8.2h5.3l-4.7-9.2l-0.7-1.2l-0.6-0.9l-0.6-0.6l-0.4-0.3
	l0.1-0.1v0h0h0.1l0.3-0.1l0.5-0.2l0.5-0.3l0.5-0.2l0.4-0.4l0.2-0.2l0.1-0.1v0h0h0.1l0.4-0.4L135.1,30z"/>
<polygon id="XMLID_4_" class="st0" points="33.1,15.3 31.4,15.3 29.9,15.6 28.4,16 27,16.5 25.6,17.1 24.3,17.9 23.1,18.7 
	22.1,19.8 21,20.8 20.1,22 19.4,23.2 18.7,24.6 18.2,26 17.9,27.5 17.6,29 17.5,30.7 17.5,31.4 17.6,32.2 17.9,33.8 18.2,35.2 
	18.7,36.6 19.4,37.9 19.7,38.5 20.1,39.2 21,40.4 21.5,40.9 22.1,41.6 23.1,42.5 24.3,43.4 25.6,44.2 27,44.8 28.4,45.3 29.9,45.7 
	31.4,45.9 33.1,46.1 33.8,46 34.6,45.9 36.2,45.7 37.6,45.3 39.1,44.8 39.3,44.7 39.5,44.6 39.7,44.5 40.4,44.2 41,43.8 41.7,43.4 
	42.2,42.9 42.5,42.7 42.8,42.5 43.4,42 44,41.6 44.5,40.9 45,40.4 45.2,40 45.4,39.8 45.9,39.2 46.3,38.5 46.6,37.9 47,37.2 47,37 
	47.1,36.9 47.3,36.6 47.8,35.2 48.2,33.8 48.4,32.2 48.4,31.8 48.4,31.4 48.5,30.7 48.4,29 48.2,27.5 47.8,26 47.3,24.6 46.6,23.2 
	45.9,22 45,20.8 44,19.8 43.4,19.2 42.8,18.7 42.2,18.2 41.7,17.9 41,17.4 40.4,17.1 39.1,16.5 37.6,16 36.2,15.6 34.6,15.3 
	33.8,15.3 "/>
<polygon id="XMLID_3_" class="st0" points="81.8,30.7 81.6,29 81.4,27.5 81,26 80.6,24.6 79.9,23.2 79.2,22 78.3,20.8 77.3,19.8 
	76.7,19.2 76.1,18.7 75.5,18.2 74.9,17.9 74.2,17.4 73.6,17.1 72.3,16.5 70.9,16 69.4,15.6 67.9,15.3 67.1,15.2 66.3,15.2 
	64.6,15.3 63.1,15.6 61.6,16 60.2,16.5 58.9,17.1 57.6,17.9 56.4,18.7 55.4,19.8 54.3,20.8 53.4,22 52.6,23.2 52,24.6 51.5,26 
	51.1,27.5 50.8,29 50.8,30.7 50.8,31.4 50.8,32.2 51.1,33.8 51.5,35.2 52,36.6 52.6,37.9 53,38.5 53.4,39.2 54.3,40.4 54.8,40.9 
	55.4,41.6 56.4,42.5 57.6,43.4 58.9,44.2 60.2,44.8 61.6,45.3 63.1,45.7 64.6,45.9 66.3,46.1 67.1,46 67.9,45.9 69.4,45.7 
	70.9,45.3 72.3,44.8 72.6,44.7 72.7,44.6 72.9,44.5 73.6,44.2 74.2,43.8 74.9,43.4 75.5,42.9 75.8,42.7 76.1,42.5 76.7,42 
	77.3,41.6 77.8,40.9 78.3,40.4 78.5,40 78.7,39.8 79.2,39.2 79.5,38.5 79.9,37.9 80.2,37.2 80.3,37 80.4,36.9 80.6,36.6 81,35.2 
	81.4,33.8 81.6,32.2 81.6,31.8 81.7,31.4 "/>
<polygon id="XMLID_2_" class="st0" points="48.5,63.7 48.4,62 48.2,60.5 47.8,59 47.3,57.6 46.6,56.3 45.9,55 45,53.8 44,52.8 
	43.4,52.2 42.8,51.7 41.7,50.8 41,50.4 40.4,50.1 39.1,49.5 37.6,48.9 36.2,48.6 34.6,48.4 33.8,48.3 33.1,48.3 31.4,48.4 
	29.9,48.6 28.4,48.9 27,49.5 25.6,50.1 24.3,50.8 23.1,51.7 22.1,52.8 21,53.8 20.1,55 19.4,56.3 18.7,57.6 18.2,59 17.9,60.5 
	17.6,62 17.5,63.7 17.5,64.4 17.6,65.2 17.9,66.8 18.2,68.2 18.7,69.6 19.4,70.9 19.7,71.5 20.1,72.2 21,73.4 21.5,74 22.1,74.6 
	23.1,75.5 24.3,76.4 25.6,77.2 27,77.8 28.4,78.3 29.9,78.7 31.4,78.9 33.1,79 33.8,78.9 34.2,78.9 34.6,78.9 36.2,78.7 37.6,78.3 
	39.1,77.8 39.3,77.6 39.5,77.5 39.7,77.5 40.4,77.2 41,76.8 41.7,76.4 42.2,76 42.5,75.7 42.8,75.5 43.4,75.1 44,74.6 44.5,74 
	45,73.4 45.2,73.1 45.4,72.8 45.9,72.2 46.3,71.5 46.6,70.9 47,70.3 47,70.1 47.1,69.9 47.3,69.6 47.8,68.2 48.2,66.8 48.4,65.2 
	48.4,64.8 48.4,64.4 "/>
<polygon id="XMLID_1_" class="st0" points="81.8,63.7 81.6,62 81.4,60.5 81,59 80.6,57.6 79.9,56.3 79.2,55 78.3,53.8 77.3,52.8 
	76.7,52.2 76.1,51.7 74.9,50.8 74.2,50.4 73.6,50.1 72.3,49.5 70.9,48.9 69.4,48.6 67.9,48.4 67.1,48.3 66.3,48.3 64.6,48.4 
	63.1,48.6 61.6,48.9 60.2,49.5 58.9,50.1 57.6,50.8 56.4,51.7 55.4,52.8 54.3,53.8 53.4,55 52.6,56.3 52,57.6 51.5,59 51.1,60.5 
	50.8,62 50.8,63.7 50.8,64.4 50.8,65.2 51.1,66.8 51.5,68.2 52,69.6 52.6,70.9 53,71.5 53.4,72.2 54.3,73.4 54.8,74 55.4,74.6 
	56.4,75.5 57.6,76.4 58.9,77.2 60.2,77.8 61.6,78.3 63.1,78.7 64.6,78.9 66.3,79 67.1,78.9 67.5,78.9 67.9,78.9 69.4,78.7 
	70.9,78.3 72.3,77.8 72.6,77.6 72.7,77.5 72.9,77.5 73.6,77.2 74.2,76.8 74.9,76.4 75.5,76 75.8,75.7 76.1,75.5 76.7,75.1 
	77.3,74.6 77.8,74 78.3,73.4 78.5,73.1 78.7,72.8 79.2,72.2 79.5,71.5 79.9,70.9 80.2,70.3 80.3,70.1 80.4,69.9 80.6,69.6 81,68.2 
	81.4,66.8 81.6,65.2 81.6,64.8 81.7,64.4 "/>
</svg>
