<?xml version="1.0" encoding="utf-8"?>
<!-- Generator: Adobe Illustrator 19.0.0, SVG Export Plug-In . SVG Version: 6.00 Build 0)  -->
<svg version="1.1" id="Capa_1" xmlns="http://www.w3.org/2000/svg" xmlns:xlink="http://www.w3.org/1999/xlink" x="0px" y="0px"
	 viewBox="0 0 255.1 93.5" style="enable-background:new 0 0 255.1 93.5;" xml:space="preserve">
<style type="text/css">
	.st0{fill:#5B5B5F;}
</style>
<g id="XMLID_133_">
	<path id="XMLID_65_" class="st0" d="M164.3,39.9c1.5-1.2,3.4-2.5,5.4-2.5c2,0,2.8,1.3,2.8,4.3v11.4h3.7V40.7c0-5-3.1-6.7-5.8-6.7
		c-2.6,0-4.6,1.1-6.4,2.3c-0.1-0.6-0.3-1.8-0.3-1.8h-3.1v18.7h3.7V39.9z"/>
	<path id="XMLID_135_" class="st0" d="M52.9,25.5v8.7c-0.7-0.1-1.6-0.2-2.6-0.2c-5.7,0-10.1,4.3-10.1,10.1c0,5.8,3.9,9.5,10,9.5
		c2.8,0,5-0.7,6.2-1.3l0.2-0.1V25.5h-0.4H52.9z M52.9,50c-0.6,0.2-1.4,0.3-2.1,0.3c-4.3,0-6.8-2.4-6.8-6.5c0-3.8,2.8-6.6,6.4-6.6
		c1.2,0,1.8,0.1,2.5,0.3V50z"/>
	<path id="XMLID_62_" class="st0" d="M76.4,45.2V34.4H76h-3.3v13.8c-0.9,1-2.5,2.1-4.5,2.1c-2.2,0-3.2-1.2-3.2-3.8V34.4h-3.7v12.4
		c0,6.2,4.7,6.7,6.1,6.7c2.7,0,4.8-1.2,5.8-2c0.2,0.5,0.6,1.6,0.6,1.6H77l-0.2-0.5C76.5,51.9,76.4,50.7,76.4,45.2"/>
</g>
<polygon id="XMLID_61_" class="st0" points="37.4,49.8 27.4,49.8 27.4,41.6 36.1,41.6 36.1,38.3 27.4,38.3 27.4,30.8 36,30.8 
	37.4,27.4 36.8,27.4 23.6,27.4 23.6,53.2 37.4,53.2 "/>
<g id="XMLID_130_">
	<path id="XMLID_60_" class="st0" d="M133.9,31.5c1.3,0,2.4-1,2.4-2.3c0-1.3-1.1-2.3-2.4-2.3c-1.3,0-2.4,1.1-2.4,2.3
		C131.4,30.4,132.5,31.5,133.9,31.5"/>
</g>
<polygon id="XMLID_59_" class="st0" points="132,34.4 132,53.2 135.8,53.2 135.8,34.4 135.3,34.4 "/>
<g id="XMLID_67_">
	<path id="XMLID_58_" class="st0" d="M223.7,31.8L223.7,31.8c-3.7-5.7-10.2-9.6-17.6-9.6c-11.6,0-21,9.3-21,20.9
		c0,11.5,9.4,20.8,21,20.8c3.2,0,6.4-0.7,9.2-2.1l-2-3.1c-2.3,1-4.7,1.6-7.2,1.6c-9.6,0-17.3-7.7-17.3-17.2
		c0-9.5,7.8-17.2,17.3-17.2c6.2,0,11.6,3.2,14.7,8.1l0,0c2.4,3.3,4.4,10.8,0.6,14.5c-0.8,0.8-1.9,1.7-3.3,1.7c-1,0-1.8-1-2.2-1.5
		l-3.7-5.4c0.3-0.4,6.3-8.8,6.3-8.8h-4.8l-5.8,8.4v-8.4h-4.1l0,13.9c-0.1,0.7-0.7,2.2-3,2.2c-2.3,0-2.9-1.4-3-2.3l0-13.8h-4v13.9
		c0,0.5,0.1,2.1,1.4,3.4c1.2,1.3,3,2,5.7,2c2.6,0,4.4-0.7,5.7-2c1.4-1.4,1.4-3.1,1.4-3.4v-0.1v-4.5c0.8,1.2,4.4,6.8,4.4,6.9
		c2.2,3.3,5.1,3.2,5.5,3.2c3.3,0,5.2-1.7,6.3-2.9C229,45.9,226.9,36.3,223.7,31.8"/>
	<path id="XMLID_57_" class="st0" d="M128.2,52.1l0.3-0.2l-1.2-2.7l-0.4,0.2c-0.6,0.3-1.7,0.9-3,0.9c-0.9,0-1.5-0.3-1.5-1.7V37.5
		h4.5l1.4-3.1h-5.9v-5.1l-0.6,0.2l-3.2,1v3.8h-3v3.1h3v11.8c0,2.7,1.6,4.2,4.5,4.2C124.9,53.5,126.6,53.1,128.2,52.1"/>
	<path id="XMLID_124_" class="st0" d="M148.2,34c-2.4,0-4.5,0.8-6.1,2.4l0,0c-1.8,1.8-2.7,4.4-2.7,7.4c0,3.1,1,5.7,2.7,7.4
		c1.5,1.5,3.7,2.3,6.1,2.3c2.5,0,4.7-0.8,6.2-2.4c1.8-1.7,2.8-4.4,2.8-7.4c0-3-1-5.6-2.7-7.4C152.8,34.8,150.6,34,148.2,34
		 M148.2,50.3c-3.2,0-5.1-2.5-5.1-6.6c0-4.1,1.9-6.6,5.1-6.6c3.2,0,5.2,2.5,5.2,6.6C153.4,47.8,151.4,50.3,148.2,50.3"/>
	<path id="XMLID_121_" class="st0" d="M113.6,53.2l-0.2-0.6c-0.2-0.5-0.4-1.9-0.4-6.7v-5.5c0-4.2-2.4-6.5-6.9-6.5
		c-2.4,0-4.6,0.7-6.7,2.1l-0.3,0.2l1.6,2.7l0.4-0.3c1.1-0.7,2.6-1.6,4.7-1.6c2.4,0,3.5,1.1,3.5,3.4v0.7c-0.7,0-3.4,0.1-3.4,0.1
		c-5,0.2-7.9,2.4-7.9,6.2c0,3.9,3.1,5.9,6.2,5.9c2.2,0,4-0.6,5.5-1.9c0.2,0.5,0.7,1.5,0.7,1.5H113.6z M109.3,48.5
		c-0.8,0.8-2.2,1.8-4.4,1.8c-2.4,0-3.2-1.4-3.2-2.8c0-1.4,0.5-2.8,4.5-2.9c0,0,2.1-0.1,3.1-0.1V48.5z"/>
	<path id="XMLID_52_" class="st0" d="M94.1,49.1c-1,0.6-2.4,1.3-4.4,1.3c-3.5,0-5.7-2.6-5.7-6.5c0-4,2.3-6.6,5.8-6.6
		c1.7,0,3.3,0.4,4.6,1.3l0.7,0.4v-3.6l-0.2-0.1c-1.4-0.7-3.2-1.2-5-1.2c-6.7,0-9.7,5-9.7,10c0,4.8,2.8,9.5,9.1,9.5
		c3,0,5.3-1.3,6.2-1.8l0.3-0.2l-1.2-2.7L94.1,49.1z"/>
	<path id="XMLID_68_" class="st0" d="M89.1,59.3l-0.6,0.7l0.6,0.7l0.6-0.7L89.1,59.3z M118.4,66.3l-0.7,0.8l0.7,0.8l0.7-0.8
		L118.4,66.3z M112.7,65.8c0,0.8-0.6,1.3-1.1,1.3c-0.5,0-0.8-0.4-0.8-0.9c0-0.6,0.4-1.1,1-1.1l1-0.1V65.8z M113.7,66.3v-2.7
		c0-1.3-0.8-2-2-2c-0.6,0-1.1,0.2-1.5,0.4l0.1,0.9l0.1-0.1c0.3-0.2,0.8-0.4,1.2-0.4c0.7,0,1.1,0.4,1.1,1.1V64l-1.1,0.1
		c-0.8,0.1-1.8,0.6-1.8,2c0,1.1,0.7,1.8,1.7,1.8c0.6,0,1.1-0.3,1.4-0.7c0.1,0.4,0.5,0.6,0.8,0.7l0.7-0.7l-0.2,0
		C114.1,67.1,113.7,67,113.7,66.3 M166.7,61.6c-0.8,0-1.2,0.3-1.5,0.5l0-0.4h-0.9v6.1h1v-4.2c0-0.7,0.5-1.2,1.2-1.2
		c0.8,0,1.2,0.4,1.2,1.2v4.2h1v-4.3C168.7,62.4,167.9,61.6,166.7,61.6 M116.3,66.3v-7.7h-1v7.8c0,1.1,0.7,1.4,1,1.6l0.7-0.7
		l-0.2-0.1C116.5,67.1,116.3,66.8,116.3,66.3 M160.7,67c-1,0-1.7-1-1.7-2.3c0-1.3,0.7-2.3,1.7-2.3c0.9,0,1.7,1,1.7,2.3
		C162.4,66.1,161.6,67,160.7,67 M160.7,61.6c-1.6,0-2.7,1.3-2.7,3.2c0,1.9,1.1,3.2,2.7,3.2c1.6,0,2.7-1.3,2.7-3.2
		C163.4,62.9,162.3,61.6,160.7,61.6 M94.4,61.7l-1,3.1c-0.1,0.4-0.3,0.8-0.4,1.2l-0.4-1.2l-1-3.1h-1l2.1,6.2h0.5l2.1-6.2h-0.1H94.4z
		 M102.3,66.5c-0.3,0.3-0.7,0.5-1.2,0.5c-1,0-1.7-1-1.7-2.3c0-1.3,0.7-2.3,1.7-2.3c0.4,0,0.9,0.2,1.2,0.5V66.5z M102.3,58.6v3.3
		c-0.3-0.2-0.8-0.3-1.2-0.3c-1.6,0-2.7,1.3-2.7,3.2c0,2.1,1.3,3.2,2.6,3.2c0.6,0,1.1-0.2,1.4-0.4l0,0.3h0.9v-9.2H102.3z M96.3,67.8
		h1v-6.1h-1V67.8z M107.9,61.7v4.2c0,0.7-0.5,1.2-1.2,1.2c-0.8,0-1.2-0.4-1.2-1.2v-4.2h-1V66c0,1.2,0.8,2,2,2c0.8,0,1.2-0.3,1.5-0.5
		l0,0.4h0.9v-6.1H107.9z M96.8,59.3l-0.6,0.7l0.6,0.7l0.6-0.7L96.8,59.3z M146.3,61.6c-0.8,0-1.3,0.3-1.7,0.8l0-0.7h-0.9v6.1h1v-3.3
		c0-1.2,0.7-2,1.6-2h0.2L146.3,61.6L146.3,61.6z M149.6,65.8c0,0.8-0.6,1.3-1.1,1.3c-0.5,0-0.8-0.4-0.8-0.9c0-0.6,0.4-1.1,1-1.1
		l1-0.1V65.8z M150.6,66.3v-2.7c0-1.3-0.8-2-2-2c-0.6,0-1.1,0.2-1.5,0.4l0.1,0.9l0.1-0.1c0.3-0.2,0.8-0.4,1.2-0.4
		c0.7,0,1.1,0.4,1.1,1.1V64l-1.1,0.1c-0.8,0.1-1.8,0.6-1.8,2c0,1.1,0.7,1.8,1.7,1.8c0.6,0,1.1-0.3,1.4-0.7c0.1,0.4,0.5,0.6,0.8,0.7
		l0.7-0.7l-0.2,0C150.9,67.1,150.6,67,150.6,66.3 M156.4,59.3l-0.6,0.7l0.6,0.7l0.6-0.7L156.4,59.3z M155.9,67.8h1v-6.1h-1V67.8z
		 M132.7,64.2c-0.5-0.4-0.8-0.6-0.8-1.1c0-0.4,0.3-0.7,0.8-0.7c0.4,0,0.8,0.2,1,0.3l0.1,0.1l0.2-0.9c-0.2-0.2-0.7-0.4-1.3-0.4
		c-1,0-1.7,0.6-1.7,1.6c0,0.9,0.6,1.4,1.5,2c0.6,0.4,0.9,0.7,0.9,1.2c0,0.5-0.4,0.8-0.9,0.8c-0.5,0-1-0.2-1.5-0.6l-0.2-0.2l0.3,1.3
		c0.4,0.3,0.9,0.5,1.5,0.5c1.1,0,1.9-0.7,1.9-1.7C134.2,65.3,133.6,64.8,132.7,64.2 M123,67.8h1.1v-8.6H123V67.8z M127.9,61.6
		c-0.8,0-1.2,0.3-1.5,0.5l0-0.4h-0.9v6.1h1v-4.2c0-0.7,0.5-1.2,1.2-1.2c0.8,0,1.2,0.4,1.2,1.2v4.2h1v-4.3
		C129.9,62.4,129.1,61.6,127.9,61.6 M141.2,67.8h1v-6.1h-1V67.8z M141.7,59.3l-0.6,0.7l0.6,0.7l0.6-0.7L141.7,59.3z M137.4,67
		c-0.4,0-0.9-0.2-1.2-0.5V63c0.3-0.3,0.7-0.5,1.2-0.5c1,0,1.7,1,1.7,2.3C139.1,66.1,138.4,67,137.4,67 M137.5,61.6
		c-0.6,0-1.1,0.2-1.4,0.4l0-0.3h-0.9v8.9h1v-3c0.3,0.2,0.8,0.3,1.2,0.3c1.6,0,2.7-1.3,2.7-3.2C140.1,62.7,138.8,61.6,137.5,61.6
		 M153.2,60l-0.1,0.1l-0.8,0.4v1.2h-1v0.9h1v3.8c0,1,0.6,1.6,1.5,1.6l0.6-0.1l0.3-1.1l-0.2,0.2l-0.5,0.1c-0.4,0-0.6-0.3-0.6-0.7
		v-3.7h1.6l0.2-0.9h-1.8V60z M46.4,61.7l-1,3.1c-0.2,0.4-0.3,0.8-0.4,1.2c-0.1-0.4-0.2-0.8-0.4-1.2l-1-3.1h-1l2.1,6.2h0.5l2.1-6.2
		h-0.1H46.4z M178.2,66.3l-0.7,0.8l0.7,0.8l0.7-0.8L178.2,66.3z M54.2,60L54,60l-0.8,0.4v1.2h-1v0.9h1v3.8c0,1,0.6,1.6,1.5,1.6
		l0.6-0.1l0.3-1.1l-0.2,0.2L54.8,67c-0.4,0-0.6-0.3-0.6-0.7v-3.7h1.6l0.2-0.9h-1.8V60z M50.5,65.8c0,0.8-0.6,1.3-1.1,1.3
		c-0.5,0-0.8-0.4-0.8-0.9c0-0.6,0.4-1.1,1-1.1l1-0.1V65.8z M51.5,66.3v-2.7c0-1.3-0.8-2-2-2c-0.6,0-1.1,0.2-1.5,0.4l0.1,0.9l0.1-0.1
		c0.3-0.2,0.8-0.4,1.2-0.4c0.7,0,1.1,0.4,1.1,1.1V64l-1.1,0.1c-0.8,0.1-1.8,0.6-1.8,2c0,1.1,0.7,1.8,1.7,1.8c0.6,0,1.1-0.3,1.4-0.7
		c0.2,0.4,0.5,0.6,0.8,0.7l0.7-0.7l-0.2,0C51.9,67.1,51.5,67,51.5,66.3 M39.6,67c-1,0-1.7-1-1.7-2.3c0-1.3,0.7-2.3,1.7-2.3
		c1,0,1.7,1,1.7,2.3C41.3,66.1,40.6,67,39.6,67 M39.6,61.6c-1.6,0-2.7,1.3-2.7,3.2c0,1.9,1.1,3.2,2.7,3.2c1.6,0,2.7-1.3,2.7-3.2
		C42.3,62.9,41.2,61.6,39.6,61.6 M23.7,67.8h1v-8.6h-1V67.8z M28.5,61.6c-0.8,0-1.2,0.3-1.5,0.5l0-0.4h-0.9v6.1h1v-4.2
		c0-0.7,0.5-1.2,1.3-1.2c0.7,0,1.2,0.4,1.2,1.2v4.2h1v-4.3C30.5,62.4,29.7,61.6,28.5,61.6 M88.6,67.8h1v-6.1h-1V67.8z M34.1,61.6
		c-0.8,0-1.2,0.3-1.5,0.5l0-0.4h-0.9v6.1h1v-4.2c0-0.7,0.5-1.2,1.3-1.2c0.7,0,1.2,0.4,1.2,1.2v4.2h1v-4.3
		C36.1,62.4,35.3,61.6,34.1,61.6 M69.9,66.3l-0.7,0.8l0.7,0.8l0.7-0.8L69.9,66.3z M74.5,67.8h1v-8.6h-1V67.8z M86.1,66.5
		C85.8,66.9,85.4,67,85,67c-1,0-1.7-1-1.7-2.3c0-1.3,0.7-2.3,1.7-2.3c0.4,0,0.9,0.2,1.2,0.5V66.5z M86.1,58.6v3.3
		c-0.3-0.2-0.8-0.3-1.2-0.3c-1.6,0-2.7,1.3-2.7,3.2c0,2.1,1.3,3.2,2.6,3.2c0.6,0,1.1-0.2,1.4-0.4l0,0.3h0.9v-9.2H86.1z M172.4,65.8
		c0,0.8-0.6,1.3-1.1,1.3c-0.5,0-0.8-0.4-0.8-0.9c0-0.6,0.4-1.1,1-1.1l1-0.1V65.8z M173.4,66.3v-2.7c0-1.3-0.8-2-2-2
		c-0.6,0-1.1,0.2-1.5,0.4L170,63l0.1-0.1c0.3-0.2,0.8-0.4,1.2-0.4c0.7,0,1.1,0.4,1.1,1.1V64l-1.1,0.1c-0.8,0.1-1.8,0.6-1.8,2
		c0,1.1,0.7,1.8,1.7,1.8c0.6,0,1.1-0.3,1.4-0.7c0.2,0.4,0.5,0.6,0.8,0.7l0.7-0.7l-0.2,0C173.8,67.1,173.4,67,173.4,66.3 M79.4,61.6
		c-0.8,0-1.2,0.3-1.5,0.5l0-0.4H77v6.1h1v-4.2c0-0.7,0.5-1.2,1.3-1.2c0.7,0,1.2,0.4,1.2,1.2v4.2h1v-4.3
		C81.4,62.4,80.6,61.6,79.4,61.6 M176,66.3v-7.7h-1v7.8c0,1.1,0.6,1.4,1,1.6l0.7-0.7l-0.2-0.1C176.2,67.1,176,66.8,176,66.3
		 M57.3,59.3l-0.6,0.7l0.6,0.7l0.6-0.7L57.3,59.3z M62.6,61.7l-1,3.1c-0.2,0.4-0.3,0.8-0.4,1.2c-0.1-0.4-0.2-0.8-0.4-1.2l-1-3.1h-1
		l2.1,6.2h0.5l2.1-6.2h-0.1H62.6z M56.8,67.8h1v-6.1h-1V67.8z M67.5,64h-2.6c0.2-0.9,0.8-1.6,1.4-1.6c0.8,0,1.2,0.8,1.2,1.5L67.5,64
		z M66.3,61.6c-1.2,0-2.5,1.1-2.5,3.2c0,1.8,1.2,3.2,2.7,3.2c0.6,0,1.1-0.1,1.5-0.4l0.3-1.2l-0.2,0.2c-0.4,0.3-0.9,0.5-1.4,0.5
		c-0.5,0-0.9-0.2-1.2-0.5c-0.4-0.4-0.6-1-0.6-1.6l3.1,0l0.5-0.5l0-0.5C68.5,62.8,67.8,61.6,66.3,61.6"/>
</g>
</svg>
