<?xml version="1.0" encoding="utf-8"?>
<!-- Generator: Adobe Illustrator 19.0.0, SVG Export Plug-In . SVG Version: 6.00 Build 0)  -->
<svg version="1.1" id="Capa_1" xmlns="http://www.w3.org/2000/svg" xmlns:xlink="http://www.w3.org/1999/xlink" x="0px" y="0px"
	 viewBox="0 0 255.1 93.5" style="enable-background:new 0 0 255.1 93.5;" xml:space="preserve">
<style type="text/css">
	.st0{fill:#5B5B5F;}
</style>
<path id="XMLID_26_" class="st0" d="M93.2,78.3v-2.2c2,0,4,0,5.9,0v7.4c-6.3,3.1-13.2,1.4-15.4-4.3c-0.3-0.9-0.8-2.3-0.6-3.7
	c1.4-8.3,9-9.9,15.6-7c0,0.8-0.1,1.7-0.1,2.5c-6.2-3.4-12.3-1.3-12.8,3.9c-0.7,6.8,5.4,8.8,10.8,7.1c0-1.2,0-2.4-0.1-3.6H93.2z"/>
<path id="XMLID_25_" class="st0" d="M133.2,67.1c2.5-0.1,2.9,0.6,4.5,1.1v2.9c-2.2-1.9-4.7-2.6-6.5-0.9c-0.5,0.5-0.3,1.1-0.3,1.9
	c1,3,9.7,3.2,6.8,10.5c-0.4,1.1-2.5,2.3-4.5,2.3c-2.4-0.1-4.6-1.5-4.6-1.5s0.1-1.8,0.1-3.1c0.7,0.8,1.6,1.7,2.6,2.1
	c2,0.8,5.4,0.2,4.7-2.5c-0.8-3.1-10.7-4.7-6.5-11.2C130.1,67.7,132,67.1,133.2,67.1"/>
<polygon id="XMLID_24_" class="st0" points="45.8,67.3 55.7,67.3 55.7,69.5 48.3,69.5 48.3,74.8 55.5,74.8 55.5,77 48.3,77 
	48.3,82.5 56,82.5 56,84.7 45.8,84.7 "/>
<g>
	<path id="XMLID_23_" class="st0" d="M61.1,67.3h2.1c3.9,4.5,7.8,8.9,11.7,13.4H75V67.3h2.3v17.4h-2.2c-3.9-4.4-7.7-8.9-11.6-13.3
		v13.3h-2.4V67.3z"/>
</g>
<polygon id="XMLID_22_" class="st0" points="105.3,67.3 107.8,67.3 107.8,82.5 115.6,82.5 115.6,84.7 105.3,84.7 "/>
<rect id="XMLID_21_" x="120.5" y="67.3" class="st0" width="2.4" height="17.4"/>
<polygon id="XMLID_20_" class="st0" points="143.7,67.3 146.2,67.3 146.2,74.8 155.9,74.8 155.9,67.3 158.5,67.3 158.5,84.7 
	155.9,84.7 155.9,77.1 146.2,77.1 146.2,84.7 143.7,84.7 "/>
<g>
	<path id="XMLID_19_" class="st0" d="M164.3,67.3c2,0,4,0,6,0c-0.1,2.8-0.2,7.1,0,9.9c0.1,1.9,1.3,2.9,3,3.1
		c2.2,0.3,3.6-1.7,3.5-3.7c-0.1-2.9,0-6.9,0-9.3h6.1c-0.1,3.9,0,7-0.1,9.8c-0.1,3.3-1.6,6-5,7.2c-1.8,0.7-4.6,0.9-6.8,0.4
		c-1.7-0.4-2.8-0.7-4-1.6c-1.1-0.8-2.2-2.1-2.6-3.7c-0.4-1.7-0.2-3.6-0.2-5.7C164.3,71.6,164.3,69.3,164.3,67.3"/>
	<path id="XMLID_18_" class="st0" d="M188.8,67.3h6.1c0,2.6-0.1,5.3-0.1,7.9c2.3-2.6,4.8-5.3,7.1-7.9h6.3c-2.4,2.7-4.7,5.4-7.1,8.1
		v0.2c2.4,3.1,4.8,6.1,7.3,9.2c-1.3,0-6.3,0-7.2,0.1c-2.1-2.6-4.3-5.5-6.4-8.2v8.1h-6.1V67.3z"/>
</g>
<polygon id="XMLID_17_" class="st0" points="45.7,41.5 50.6,41.5 50.6,59 60.1,59 60.1,62.3 45.7,62.3 "/>
<polygon id="XMLID_16_" class="st0" points="63.2,41.5 77.6,41.5 77.6,44.8 68.1,44.8 68.1,49.9 76.8,49.9 76.8,53.2 68.1,53.2 
	68.1,59 77.7,59 77.7,62.3 63.2,62.3 "/>
<path class="st0" d="M89.6,41.5h5.5l9.6,20.8h-5.4l-2.1-4.8h-9.9l-2.1,4.8h-5.1L89.6,41.5z M92.3,45.7L92.3,45.7l-3.6,8.6h7.1
	L92.3,45.7z"/>
<g>
	<path class="st0" d="M107.5,41.5h5.3c5.2,0,11.5-0.1,11.5,5.6c0,2.4-1.9,4.5-5,4.8V52c1.3,0.1,2.1,1.2,2.6,2.1l3.9,8.1h-5.5
		l-2.9-6.5c-0.7-1.6-1.3-2.1-3.4-2.1h-1.6v8.6h-4.9V41.5z M112.3,50.4h1.6c2.4,0,5.2-0.3,5.2-2.9c0-2.5-2.7-2.7-5.2-2.7h-1.6V50.4z"
		/>
</g>
<polygon id="XMLID_11_" class="st0" points="129,41.5 135,41.5 144.3,57 144.4,57 144.4,41.5 149,41.5 149,62.3 143.1,62.3 
	133.7,46.7 133.7,46.7 133.7,62.3 129,62.3 "/>
<polygon id="XMLID_10_" class="st0" points="154.5,41.5 168.9,41.5 168.9,44.8 159.4,44.8 159.4,49.9 168.1,49.9 168.1,53.2 
	159.4,53.2 159.4,59 168.9,59 168.9,62.3 154.5,62.3 "/>
<g>
	<path class="st0" d="M173.5,41.5h5.3c5.2,0,11.5-0.1,11.5,5.6c0,2.4-1.9,4.5-5,4.8V52c1.3,0.1,2.1,1.2,2.6,2.1l3.9,8.1h-5.5
		l-2.9-6.5c-0.7-1.6-1.3-2.1-3.4-2.1h-1.6v8.6h-4.9V41.5z M178.4,50.4h1.6c2.4,0,5.2-0.3,5.2-2.9c0-2.5-2.7-2.7-5.2-2.7h-1.6V50.4z"
		/>
	<path id="XMLID_7_" class="st0" d="M208.4,45.3c-1.5-0.6-3.3-0.9-5-0.9c-1.7,0-3.8,0.6-3.8,2.9c0,3.6,10.7,2.1,10.7,9.1
		c0,4.6-4.2,6.3-9.2,6.3c-2.7,0-3.8-0.3-6.3-0.8l0.5-3.8c1.7,0.8,3.6,1.3,5.5,1.3c1.9,0,4.3-0.8,4.3-2.7c0-4-10.7-2.3-10.7-9.2
		c0-4.6,4.2-6.3,8.5-6.3c2.1,0,4.1,0.2,5.8,0.7L208.4,45.3z"/>
</g>
<polygon id="XMLID_6_" class="st0" points="55.4,25.4 43.4,8.2 51.1,8.2 58.9,20.2 66.7,8.2 73.7,8.2 62,25.4 62,36.7 55.4,36.7 "/>
<g>
	<path class="st0" d="M92.5,7.7c10.3,0,16.1,6,16.1,14.7c0,8.6-5.7,14.8-16.1,14.8c-10.5,0-16.1-6.1-16.1-14.8
		C76.4,13.6,82.1,7.7,92.5,7.7 M92.5,32.7c6.7,0,9.2-5.2,9.2-10.3c0-5-2.7-10.2-9.2-10.2c-6.5,0-9.2,5.1-9.2,10.2
		C83.3,27.5,85.8,32.7,92.5,32.7"/>
	<path id="XMLID_3_" class="st0" d="M114.3,8.2h6.6v16.5c0,4.9,1.8,8,6.8,8c5,0,6.8-3.2,6.8-8V8.2h6.6v18.2c0,7.6-5,10.8-13.4,10.8
		c-8.4,0-13.4-3.1-13.4-10.8V8.2z"/>
</g>
<polygon id="XMLID_2_" class="st0" points="148.1,8.2 156.2,8.2 168.7,29.5 168.8,29.5 168.8,8.2 175.1,8.2 175.1,36.7 167.1,36.7 
	154.5,15.4 154.4,15.4 154.4,36.7 148.1,36.7 "/>
<g>
	<path id="XMLID_1_" class="st0" d="M208,13.7c-2.5-1-5.8-1.5-8.5-1.5c-7.7,0-11.9,4.5-11.9,10.3c0,5.8,4.1,10.2,11.1,10.2
		c1.8,0,3.2-0.2,4.3-0.4v-7.4h-7v-4.5h13.2v15.4c-3.5,0.8-7.1,1.5-10.6,1.5c-10.6,0-18-4.6-18-14.3c0-9.8,6.9-15.2,18-15.2
		c3.8,0,6.8,0.4,9.6,1.2L208,13.7z"/>
</g>
</svg>
