<?xml version="1.0" encoding="utf-8"?>
<!-- Generator: Adobe Illustrator 19.0.0, SVG Export Plug-In . SVG Version: 6.00 Build 0)  -->
<svg version="1.1" id="Capa_1" xmlns="http://www.w3.org/2000/svg" xmlns:xlink="http://www.w3.org/1999/xlink" x="0px" y="0px"
	 viewBox="0 0 255.1 93.5" style="enable-background:new 0 0 255.1 93.5;" xml:space="preserve">
<style type="text/css">
	.st0{fill:#5B5B5F;}
</style>
<g>
	<path class="st0" d="M100.6,25.2c0-3.8,1.5-7,4.5-9.6c2.9-2.6,6.2-3.9,10.1-3.9c4,0,7.4,1.2,10.2,3.7c2.9,2.6,4.3,5.8,4.3,9.8
		c0,4-1.4,7.3-4.3,9.9c-2.8,2.5-6.2,3.7-10.2,3.7c-3.8,0-7.2-1.3-10-3.9C102.1,32.2,100.6,29,100.6,25.2 M125.8,25.2
		c0-3.5-0.9-6.4-2.8-8.6c-2.1-2.5-4.7-3.8-7.9-3.8c-3.4,0-6.1,1.3-8.2,3.9c-1.8,2.2-2.6,5-2.6,8.5c0,3.5,0.9,6.4,2.7,8.7
		c2,2.5,4.7,3.7,8.1,3.7c3.2,0,5.9-1.3,8-4C125,31.5,125.8,28.7,125.8,25.2"/>
	<path id="XMLID_22_" class="st0" d="M147.6,23.3V34c0,1,0,1.6,0.1,1.8c0.1,0.5,0.6,0.7,1.4,0.6l0.5,0c0.3,0,0.5,0.1,0.5,0.3
		c0,0.2-0.2,0.3-0.7,0.5c-1.7,0.5-2.9,1-3.6,1.6l-0.4,0.2l-0.2-0.3v-0.9c0-1-0.1-1.5-0.3-1.5c-0.1,0-0.4,0.2-0.9,0.7
		c-1.5,1.3-3.1,1.9-4.6,1.9c-1.8,0-3.2-0.7-4.3-2.1c-0.5-0.6-0.8-1.5-1-2.5c-0.1-0.5-0.1-1.4-0.1-2.6V26c0-1.2,0-1.9-0.1-2
		c-0.2-0.6-0.7-0.9-1.6-0.9c-0.6,0-1-0.2-1-0.5c0-0.1,0.2-0.2,0.5-0.2h4c0.3,0,0.5,0.1,0.6,0.4v8.7c0,2,0.2,3.3,0.7,4.1
		c0.7,1.1,1.9,1.6,3.6,1.6c1.6,0,2.9-0.5,3.8-1.6c0.4-0.4,0.6-0.8,0.6-1.3c0-0.1,0-0.6,0-1.4V26c0-1.2,0-1.9-0.1-2
		c-0.2-0.6-0.7-0.9-1.5-0.9c-0.7,0-1-0.2-1-0.5c0-0.2,0.2-0.2,0.5-0.2h4.2l0.4,0.3C147.7,22.6,147.6,22.9,147.6,23.3"/>
	<path class="st0" d="M157.5,30.8l2.8-1.3c0.6-0.3,1-0.5,1.1-0.7c0.1-0.2,0.2-0.6,0.2-1.3v-1.6c0-1.1-0.1-1.8-0.3-2.3
		c-0.3-0.6-1-1-2-1c-1.9,0-3.3,1-4.2,3c-0.2,0.4-0.3,0.7-0.4,0.8l-0.6,0.5c-0.7,0.3-1.2,0.5-1.6,0.5c-0.3,0-0.5-0.1-0.5-0.4
		c0-0.8,0.5-1.7,1.5-2.6c1.9-1.7,4-2.5,6.5-2.5c2.4,0,3.7,0.7,4,2.2c0,0.1,0.1,0.6,0.1,1.4v8.5c0,1.9,0.4,2.9,1.2,2.9
		c0.3,0,0.7-0.1,1.1-0.4c0.4-0.3,0.6-0.5,0.6-0.5l0.2,0.3c0,0.2-0.3,0.6-0.9,1.1c-1,0.7-1.9,1.1-2.6,1.1c-0.6,0-1.2-0.4-1.7-1.3
		c-0.5-0.9-0.7-1.3-0.7-1.3c0,0-0.3,0.2-0.9,0.7c-1.7,1.3-3.3,2-4.9,2c-0.9,0-1.7-0.2-2.3-0.7c-0.7-0.5-1.1-1.2-1.1-2.1
		c0-1.1,0.6-2.2,1.9-3.1C154.8,32.2,155.9,31.6,157.5,30.8 M161,29.9l-3.3,1.6c-1.9,1-2.8,2.1-2.8,3.4c0,0.7,0.3,1.2,0.8,1.6
		c0.5,0.4,1,0.5,1.7,0.5c1.3,0,2.4-0.5,3.4-1.4c0.6-0.6,0.9-1.5,0.9-2.7v-2.1c0-0.7-0.1-1-0.2-1L161,29.9z"/>
	<path id="XMLID_19_" class="st0" d="M172.7,13.5v21.1c0,1.2,0,1.8,0.1,2c0.2,0.6,0.7,0.9,1.5,1c0.7,0.1,1,0.2,1,0.5
		c0,0.3-0.1,0.4-0.4,0.4c-0.4,0-0.9,0-1.7-0.1c-0.7,0-1.3-0.1-1.7-0.1c-0.4,0-1,0-1.7,0.1c-0.8,0.1-1.3,0.1-1.7,0.1
		c-0.3,0-0.5-0.1-0.5-0.4c0-0.3,0.3-0.4,1-0.5c0.8-0.1,1.4-0.4,1.6-1c0.1-0.1,0.1-0.8,0.1-2V18.2c0-1.2,0-1.8,0-2
		c-0.2-0.6-0.7-1-1.4-1c-0.6,0-0.9-0.1-0.9-0.4c0-0.2,0.2-0.3,0.5-0.4c1.5-0.2,2.5-0.6,3.3-1.1c0.4-0.3,0.7-0.4,0.8-0.4
		C172.6,12.9,172.7,13.1,172.7,13.5"/>
	<path class="st0" d="M182.1,22.5v12.1c0,1.2,0,1.8,0.1,2c0.2,0.6,0.7,0.9,1.6,1c0.7,0.1,1,0.2,1,0.5c0,0.3-0.1,0.4-0.4,0.4
		c-0.4,0-0.9,0-1.7-0.1c-0.7,0-1.3-0.1-1.7-0.1c-0.4,0-1,0-1.7,0.1c-0.7,0.1-1.3,0.1-1.7,0.1c-0.3,0-0.5-0.1-0.5-0.4
		c0-0.3,0.3-0.4,1-0.5c0.9-0.1,1.4-0.4,1.6-1c0-0.1,0.1-0.8,0.1-2v-6.8c0-1.3-0.1-2.1-0.4-2.3c-0.2-0.2-0.5-0.3-1-0.3h-0.5
		c-0.3,0-0.4-0.1-0.4-0.3c0-0.2,0.3-0.5,0.8-0.6c1.2-0.4,2.3-1,3-1.9c0.3-0.3,0.5-0.5,0.7-0.5C182,22,182.1,22.1,182.1,22.5
		 M180.8,18.8c-1,0-1.6-0.6-1.6-1.7c0-0.5,0.1-0.9,0.4-1.3c0.3-0.4,0.7-0.5,1.2-0.5c0.5,0,0.8,0.2,1.1,0.5c0.3,0.3,0.4,0.7,0.4,1.2
		C182.4,18.2,181.9,18.8,180.8,18.8"/>
	<path id="XMLID_16_" class="st0" d="M190,24v9.1c0,1.3,0.1,2.2,0.2,2.7c0.3,1,0.9,1.5,1.9,1.5c0.5,0,1.1-0.2,1.7-0.7l0.9-0.6
		l0.3,0.3c0,0.3-0.2,0.7-0.7,1c-1,0.9-2.1,1.4-3.4,1.4c-2,0-3.1-1.1-3.4-3.3c0-0.2-0.1-1-0.1-2.4v-9.3c0-0.3-0.1-0.5-0.2-0.6
		c-0.1-0.1-0.3-0.1-0.7-0.1c-0.7,0-1.1-0.1-1.1-0.3c0-0.1,0.1-0.3,0.4-0.6c1.7-1.1,2.8-2.3,3.4-3.6l0.3-0.3c0.2,0,0.3,0.1,0.3,0.4
		v2.6c0,0.5,0.2,0.7,0.6,0.7h3.6c0.2,0,0.3,0.2,0.3,0.5c0,0.3-0.1,0.5-0.2,0.6h-3.9C190.1,23.3,190,23.6,190,24"/>
	<path id="XMLID_15_" class="st0" d="M205.5,35.4l4.1-9.4c0.3-0.8,0.5-1.3,0.5-1.5c0-0.9-0.6-1.3-1.9-1.3c-0.5,0-0.8-0.1-0.8-0.2
		c0-0.3,0.2-0.5,0.5-0.5h5.7c0.4,0,0.6,0.2,0.6,0.5c0,0.1-0.3,0.2-0.8,0.2c-0.6,0.1-1.2,0.3-1.6,0.8c-0.5,0.6-1.2,1.9-2,3.8
		L202.5,45c-0.2,0.6-0.4,1-0.6,1.2c-0.2,0.2-0.6,0.2-1.2,0.2c-0.6,0-1.1,0-1.3-0.2c-0.5-0.2-0.7-0.5-0.7-1c0-0.8,0.3-1.3,0.9-1.4
		c0.6,0,1.2-0.1,1.8-0.1c0.3-0.1,0.6-0.5,1-1.3l1.2-2.9c0.2-0.5,0.3-0.9,0.3-1.1c0-0.2-0.2-0.7-0.5-1.6l-4.8-11.3
		c-0.4-0.9-0.6-1.5-0.8-1.7c-0.1-0.2-0.5-0.4-1.3-0.7c-0.7-0.3-1.1-0.4-1.1-0.5c0-0.3,0.2-0.5,0.7-0.5h7c0.3,0,0.5,0.2,0.5,0.5
		c0,0.2-0.3,0.2-0.9,0.2c-1.2,0-1.8,0.4-1.8,1.1c0,0.3,0.1,0.8,0.4,1.5L205.5,35.4z"/>
	<path id="XMLID_14_" class="st0" d="M107.7,50.4v6c0,0.9,0.1,1.5,0.3,1.7c0.2,0.2,0.8,0.3,1.8,0.3c2.5,0,4.2-0.1,5-0.2
		c0.7-0.1,1.2-1,1.5-2.9c0.1-0.5,0.3-0.7,0.5-0.7c0.3,0,0.5,0.1,0.5,0.4c0,0.5-0.1,1.7-0.2,3.6c0,0.7,0.1,2,0.2,3.9
		c0,0.5-0.1,0.8-0.5,0.8c-0.3,0-0.4-0.2-0.5-0.7c-0.3-1.6-0.8-2.5-1.5-2.7c-1.1-0.2-2.7-0.4-5-0.4c-0.9,0-1.4,0-1.5,0.1
		c-0.4,0.1-0.5,0.6-0.5,1.3v7.2c0,1.7,0.4,2.9,1.3,3.4c0.6,0.3,1.9,0.5,3.8,0.5c2.1,0,3.6-0.2,4.5-0.5c1.3-0.5,2.2-1.6,2.8-3.3
		c0.4-0.9,0.7-1.4,0.9-1.4c0.3,0,0.4,0.2,0.4,0.5c0,0.2-0.1,0.6-0.2,1l-0.6,4.4c0,0.2-0.1,0.3-0.4,0.3h-16.3c-0.3,0-0.7,0-1.3,0.1
		c-0.6,0.1-1,0.1-1.3,0.1c-0.5,0-0.7-0.2-0.7-0.6c0-0.3,0.4-0.5,1.1-0.5c1.3,0,2.1-0.2,2.4-0.7c0.2-0.3,0.3-1.3,0.3-2.7V51.7
		c0-1.4-0.1-2.3-0.3-2.6c-0.3-0.5-1.1-0.8-2.4-0.8c-0.7,0-1.1-0.2-1.1-0.5c0-0.4,0.2-0.6,0.7-0.6c0.9,0,2.2,0,3.9,0.1
		c1.7,0,3,0.1,3.9,0.1c1.2,0,2.9,0,5.3-0.1c2.4-0.1,4.2-0.1,5.3-0.1c0.3,0,0.5,0.2,0.6,0.6v4.5c0,0.6-0.1,0.9-0.4,0.9
		c-0.1,0-0.4-0.3-0.7-0.8l-0.6-1.2c-0.7-1.4-1.7-2.2-3-2.6c-0.7-0.2-2.1-0.3-4.1-0.3c-1.6,0-2.5,0-2.7,0.1
		C108.1,48.6,107.7,49.3,107.7,50.4"/>
	<path id="XMLID_13_" class="st0" d="M126.2,69.4v-6.8c0-1.3-0.1-2-0.3-2.3c-0.2-0.2-0.6-0.3-1.1-0.3h-0.5c-0.3,0-0.4-0.1-0.4-0.3
		c0-0.3,0.3-0.5,0.8-0.6c1.2-0.4,2.2-1,3-1.9c0.3-0.3,0.5-0.5,0.7-0.5c0.2,0,0.3,0.2,0.3,0.6v2.4c0.1,0,0.5-0.3,1.1-0.8
		c0.8-0.7,1.5-1.1,2-1.4c0.9-0.5,1.9-0.8,2.9-0.8c1.8,0,3.3,0.7,4.3,2c0.5,0.7,0.8,1.5,1,2.4c0.1,0.5,0.1,1.3,0.1,2.6v5.7
		c0,1.2,0,1.8,0.1,2c0.2,0.6,0.7,0.9,1.6,1c0.7,0.1,1,0.2,1,0.5c0,0.3-0.1,0.4-0.4,0.4c-0.4,0-1,0-1.7-0.1c-0.8,0-1.3-0.1-1.7-0.1
		c-0.4,0-0.9,0-1.7,0.1c-0.8,0.1-1.3,0.1-1.7,0.1c-0.3,0-0.5-0.1-0.5-0.4c0-0.3,0.3-0.4,1-0.5c0.8-0.1,1.4-0.4,1.6-1
		c0-0.1,0.1-0.8,0.1-2v-5.7c0-1.7-0.2-2.9-0.7-3.6c-0.7-1.1-1.9-1.7-3.4-1.7c-1.4,0-2.6,0.5-3.6,1.6c-0.8,0.8-1.1,1.9-1.1,3.3v6.1
		c0,1.2,0,1.8,0.1,2c0.2,0.6,0.7,0.9,1.5,1c0.7,0.1,1,0.2,1,0.5c0,0.3-0.1,0.4-0.4,0.4c-0.4,0-0.9,0-1.7-0.1c-0.7,0-1.3-0.1-1.7-0.1
		c-0.4,0-1,0-1.7,0.1c-0.8,0.1-1.3,0.1-1.7,0.1c-0.3,0-0.5-0.1-0.5-0.4c0-0.3,0.3-0.4,1-0.5c0.8-0.1,1.4-0.4,1.6-1
		C126.1,71.2,126.2,70.6,126.2,69.4"/>
	<path class="st0" d="M157.4,58.1h1.8c0.6,0,0.9,0,0.9,0c0.2,0.1,0.3,0.3,0.4,0.7c0,0.4-0.1,0.6-0.4,0.7c0.1,0-0.2,0-1,0
		c-1,0-1.5,0.1-1.5,0.3c0,0.1,0.1,0.3,0.2,0.6c0.3,0.7,0.5,1.4,0.5,2.3c0,1.8-0.7,3.2-2.2,4.2c-1.2,0.8-2.8,1.3-4.8,1.4
		c-0.7,0-1.2,0.1-1.4,0.1c-0.4,0.1-0.8,0.2-1.3,0.4c-0.7,0.3-1.1,0.6-1.1,1c0,0.4,0.3,0.7,0.8,0.9c0.4,0.2,0.9,0.2,1.3,0.2h3.9
		c2,0,3.4,0.2,4.3,0.7c1.6,0.8,2.4,1.9,2.4,3.2c0,2.1-1.2,3.8-3.5,5c-1.9,1-4,1.4-6.4,1.4c-1.8,0-3.4-0.3-4.8-0.9
		c-1.6-0.8-2.5-1.8-2.5-3c0-1,0.7-1.9,2-2.7l1-0.6c0.8-0.5,1.2-0.8,1.2-0.9c0-0.1-0.2-0.4-0.7-0.9c-1.4-1.1-2.1-1.8-2.1-2.1l0.4-0.4
		c2.5-0.8,3.7-1.4,3.7-1.6c0-0.1-0.3-0.4-1-0.8c-1.9-1.3-2.9-2.9-2.9-4.6c0-1.7,0.7-3.2,2.2-4.3c1.3-1.1,2.9-1.6,4.7-1.6
		c1.3,0,2.5,0.3,3.7,0.9C155.8,57.9,156.6,58.1,157.4,58.1 M153.2,73.3h-4.6c-2,1.2-2.9,2.4-2.9,3.5c0,1.2,0.6,2.2,1.8,2.9
		c1,0.6,2.2,0.8,3.5,0.8c1.6,0,3.1-0.3,4.3-0.9c1.6-0.8,2.5-1.9,2.5-3.3C157.8,74.3,156.3,73.3,153.2,73.3 M151.3,67.6
		c1.4,0,2.5-0.5,3.2-1.6c0.7-1,1-2.2,1-3.6c0-1.2-0.3-2.4-1-3.4c-0.8-1.1-1.7-1.7-2.9-1.7c-1.3,0-2.4,0.5-3.2,1.6
		c-0.7,1-1.1,2.1-1.1,3.4c0,1.3,0.3,2.5,1,3.5C149.1,67,150.1,67.6,151.3,67.6"/>
	<path id="XMLID_9_" class="st0" d="M166.9,48.3v21.1c0,1.2,0,1.8,0.1,2c0.2,0.6,0.7,0.9,1.5,1c0.7,0.1,1,0.2,1,0.5
		c0,0.3-0.1,0.4-0.4,0.4c-0.4,0-0.9,0-1.7-0.1c-0.7,0-1.3-0.1-1.7-0.1c-0.4,0-1,0-1.7,0.1c-0.8,0.1-1.3,0.1-1.7,0.1
		c-0.3,0-0.5-0.1-0.5-0.4c0-0.3,0.3-0.4,1-0.5c0.8-0.1,1.4-0.4,1.6-1c0.1-0.2,0.1-0.8,0.1-2V52.9c0-1.2,0-1.8,0-2
		c-0.2-0.6-0.7-1-1.4-1c-0.6,0-0.9-0.1-0.9-0.4c0-0.2,0.2-0.3,0.5-0.4c1.5-0.2,2.5-0.6,3.3-1.1c0.4-0.3,0.7-0.4,0.8-0.4
		C166.8,47.7,166.9,47.9,166.9,48.3"/>
	<path class="st0" d="M176.4,57.3v12.1c0,1.2,0,1.8,0.1,2c0.2,0.6,0.7,0.9,1.5,1c0.7,0.1,1,0.2,1,0.5c0,0.3-0.1,0.4-0.4,0.4
		c-0.4,0-0.9,0-1.7-0.1c-0.7,0-1.3-0.1-1.7-0.1c-0.4,0-1,0-1.7,0.1c-0.7,0.1-1.3,0.1-1.7,0.1c-0.3,0-0.5-0.1-0.5-0.4
		c0-0.3,0.3-0.4,1-0.5c0.8-0.1,1.4-0.4,1.6-1c0-0.1,0.1-0.8,0.1-2v-6.8c0-1.3-0.1-2.1-0.4-2.3c-0.2-0.2-0.5-0.3-1-0.3H172
		c-0.3,0-0.4-0.1-0.4-0.3c0-0.2,0.3-0.5,0.8-0.6c1.2-0.4,2.2-1,3-1.9c0.3-0.3,0.5-0.5,0.7-0.5C176.3,56.7,176.4,56.9,176.4,57.3
		 M175.2,53.6c-1,0-1.6-0.6-1.6-1.7c0-0.5,0.1-0.9,0.4-1.3c0.3-0.4,0.7-0.5,1.2-0.5c0.5,0,0.8,0.2,1.1,0.5c0.3,0.3,0.4,0.7,0.4,1.2
		C176.8,53,176.2,53.6,175.2,53.6"/>
	<path id="XMLID_6_" class="st0" d="M181.6,71.1l0.1-2.4c0-0.5,0.2-0.8,0.5-0.8c0.3,0,0.6,0.4,0.7,1.3c0.2,1.1,0.5,1.9,0.9,2.4
		c0.7,0.9,1.7,1.3,3.1,1.3c1.1,0,2.1-0.3,3-0.9c1-0.7,1.4-1.5,1.4-2.6c0-1.6-1.2-2.7-3.5-3.5c-1.8-0.6-3-1.1-3.6-1.5
		c-1.3-0.8-1.9-1.8-1.9-3.1c0-1.5,0.7-2.6,2.1-3.5c1.2-0.7,2.5-1.1,4.1-1.1c1.6,0,2.8,0.2,3.7,0.6c0.3,0.1,0.4,0.4,0.4,0.7
		c0-0.4,0-0.1,0,0.9c0,1.7,0,2,0,1c0,0.5-0.1,0.8-0.4,0.8c-0.2,0-0.4-0.3-0.7-0.9c-0.3-0.8-0.7-1.3-1.1-1.7
		c-0.6-0.6-1.5-0.9-2.7-0.9c-0.8,0-1.5,0.2-2.2,0.7c-0.7,0.5-1.1,1.2-1.1,2c0,1.2,0.8,2.1,2.4,2.7c0.9,0.4,2.4,0.9,4.3,1.7
		c1.6,0.9,2.3,2.1,2.3,3.8c0,1.6-0.8,2.9-2.3,3.9c-1.3,0.9-2.9,1.3-4.6,1.3c-1.6,0-3.1-0.4-4.6-1.1
		C181.7,72.2,181.5,71.8,181.6,71.1"/>
	<path id="XMLID_5_" class="st0" d="M200.6,48.3v10.6l0.3,0.4l0.4-0.2c1.5-1.5,3.3-2.3,5.3-2.3c2.1,0,3.5,0.7,4.3,2
		c0.6,1,0.9,2.6,0.9,4.9v5.7c0,1.2,0,1.8,0.1,2c0.2,0.6,0.7,0.9,1.5,1c0.7,0.1,1,0.2,1,0.5c0,0.3-0.1,0.4-0.4,0.4
		c-0.4,0-0.9,0-1.7-0.1c-0.7,0-1.3-0.1-1.7-0.1c-0.4,0-1,0-1.7,0.1c-0.7,0.1-1.3,0.1-1.7,0.1c-0.3,0-0.5-0.1-0.5-0.4
		c0-0.3,0.3-0.4,1-0.5c0.9-0.1,1.4-0.4,1.6-1c0.1-0.2,0.1-0.8,0.1-2v-6.2c0-1.8-0.2-3-0.6-3.6c-0.7-1.1-1.9-1.6-3.4-1.6
		c-1.4,0-2.6,0.5-3.6,1.6c-0.5,0.5-0.8,1-0.9,1.5c-0.1,0.4-0.2,1-0.2,1.8v6.6c0,1.2,0,1.8,0.1,2c0.2,0.6,0.7,0.9,1.5,1
		c0.7,0.1,1,0.2,1,0.5c0,0.3-0.1,0.4-0.4,0.4c-0.4,0-0.9,0-1.7-0.1c-0.7,0-1.3-0.1-1.7-0.1c-0.4,0-1,0-1.7,0.1
		c-0.8,0.1-1.3,0.1-1.7,0.1c-0.3,0-0.5-0.1-0.5-0.4c0-0.3,0.3-0.4,1-0.5c0.8-0.1,1.4-0.4,1.6-1c0.1-0.2,0.1-0.8,0.1-2V52.9
		c0-1.2,0-1.8,0-2c-0.2-0.6-0.7-1-1.4-1c-0.6,0-0.9-0.1-0.9-0.4c0-0.2,0.2-0.3,0.5-0.4c1.5-0.2,2.5-0.6,3.3-1.1
		c0.4-0.3,0.7-0.4,0.8-0.4C200.5,47.7,200.6,47.9,200.6,48.3"/>
	<path id="XMLID_4_" class="st0" d="M123.2,36.4c0,0,4.2,5.8,9.5,7.2c5.3,1.4,8.6,1.4,13.9-0.7c0,0-12.8,7.6-27.3-5.2L123.2,36.4z"
		/>
	<path class="st0" d="M39.3,38.3v-4.5c0.4-5.5,2-10.1,4.9-13.8c3.9-5,9.1-7.4,15.6-7.4c5.9,0,10.9,2.4,14.9,7.2
		c3.5,4.1,5.2,9.6,5.2,16.3c0,6.5-1.6,11.9-4.9,16c-4,5-9.1,7.5-15.2,7.5c-6.4,0-11.6-2.3-15.3-7C41.3,48.7,39.6,43.9,39.3,38.3
		 M90,72.4H39.3V53.1c0.4,0.4,0.9,0.9,1.4,1.3c5.5,4.9,11.8,7.4,19,7.4c3.1,0,6-0.4,8.7-1.2C76,67.1,83.4,70.6,90,72.4 M68.8,11.8
		h24.6v59.3L92.7,71c-9-2.4-16.3-11.4-17.7-13.4c1.3-0.8,2.6-1.8,3.8-2.9C84.3,49.8,87,43.6,87,36c0-7.5-2.7-13.7-8.1-18.6
		C75.9,14.8,72.5,12.9,68.8,11.8"/>
</g>
</svg>
