<?xml version="1.0" encoding="utf-8"?>
<!-- Generator: Adobe Illustrator 19.0.0, SVG Export Plug-In . SVG Version: 6.00 Build 0)  -->
<svg version="1.1" id="Capa_1" xmlns="http://www.w3.org/2000/svg" xmlns:xlink="http://www.w3.org/1999/xlink" x="0px" y="0px"
	 viewBox="0 0 595.3 85" style="enable-background:new 0 0 595.3 85;" xml:space="preserve">
<style type="text/css">
	.st0{fill:#FFFFFF;}
</style>
<g id="XMLID_53_">
	<g id="XMLID_116_">
		<path id="XMLID_145_" class="st0" d="M219,17.8c0.8,0.2,1.7,0.4,2.5,0.5c0.3,0,0.5,0.4,0.5,1c0,1,0.1,2.3,0.2,3.3
			c0,0.8-0.2,1.4-0.6,1.4c-0.2,0-0.5-0.4-0.7-1c-0.4-1.1-0.9-2.1-1.5-2.6c-1.5-1.3-3.3-2.1-5.2-2.1c-5.6,0-9.6,5.3-9.6,10.8
			c0,2.4,0.5,4.5,1.3,6.1c1.9,4,6.4,4.6,9.2,4.6c0.5,0,2.2-0.1,3.4-0.8c1.3-0.8,2.3-1.8,3.1-3.3c0.4-0.8,0.7-1.1,1-1.1
			c0.4,0,0.4,0.9,0.3,1.3c-0.2,0.9-0.7,2.5-1.1,3.1c-0.1,0.3-0.7,0.9-1.3,1.2c-0.5,0.2-2.9,1-6.2,1c-5.2,0-9-2.4-10.4-4.1
			c-1.3-1.6-3-4.1-3-8.1c0-4.4,2.4-7.4,3.9-8.7c3-2.5,6.7-3.2,9.6-3.2C216.1,17.2,217.8,17.5,219,17.8z"/>
		<path id="XMLID_143_" class="st0" d="M122.3,17.8c0.8,0.2,1.7,0.4,2.5,0.5c0.2,0,0.5,0.4,0.5,1c0,1,0.1,2.3,0.2,3.3
			c0,0.8-0.2,1.4-0.6,1.4c-0.2,0-0.5-0.4-0.7-1c-0.4-1.1-0.9-2.1-1.5-2.6c-1.5-1.3-3.3-2.1-5.2-2.1c-5.6,0-9.6,5.3-9.6,10.8
			c0,2.4,0.5,4.5,1.3,6.1c1.9,4,6.4,4.6,9.2,4.6c0.5,0,2.2-0.1,3.4-0.8c1.3-0.8,2.3-1.8,3.1-3.3c0.4-0.8,0.7-1.1,1-1.1
			c0.4,0,0.4,0.9,0.3,1.3c-0.2,0.9-0.7,2.5-1.1,3.1c-0.1,0.3-0.7,0.9-1.3,1.2c-0.5,0.2-2.9,1-6.2,1c-5.2,0-9-2.4-10.4-4.1
			c-1.3-1.6-3-4.1-3-8.1c0-4.4,2.4-7.4,3.9-8.7c3-2.5,6.7-3.2,9.6-3.2C119.3,17.2,121,17.5,122.3,17.8z"/>
		<path id="XMLID_141_" class="st0" d="M135,28.4c2.2,0,6.9,0,10.4,0c0.1,0,0.7-0.3,0.7-1.3c0-1.1,0-4.1,0-6.1
			c0-1.3-0.9-1.7-2.3-2.1c-0.5-0.1-1-0.4-1-0.7c0-0.3,0.3-0.5,1.1-0.5c0.4,0,6.8,0,7.2,0c0.6,0,1,0.2,1,0.5c0,0.4-0.3,0.6-1,0.8
			c-1.2,0.3-1.9,0.7-1.9,1.7c0,2.3,0,4.5,0,10.1c0,3.5,0,5.1,0,6.6c0,1.4,1.1,1.7,2.4,2.1c0.6,0.2,0.9,0.5,0.9,0.8
			c0,0.4-0.4,0.6-1,0.6c-0.6,0-6.6,0-7.3,0c-0.8,0-1.1-0.2-1.1-0.5c0-0.3,0.4-0.6,0.9-0.8c1.6-0.5,2.1-0.4,2.1-3.4
			c0-1.9,0-4.4,0-5.8c0-0.3-0.5-0.5-0.7-0.5c-2.6,0-9.7-0.1-10.4,0c-0.2,0-0.6,0.3-0.6,0.5c0,1.3-0.1,5.2,0,6.4
			c0.1,1.7,1.1,2.2,2.4,2.7c0.7,0.2,1.2,0.5,1.2,0.9c0,0.4-0.6,0.5-1,0.5c-0.2,0-6.5,0-7.6,0c-0.8,0-1.1-0.2-1.2-0.5
			c0-0.4,0.3-0.6,0.9-0.8c1.4-0.4,2.4-0.8,2.4-2.3c0-1.9,0-6.1,0-11.8c0-1.1,0-2.6,0-4.5c0-1.2-1-1.6-2.1-1.9
			c-0.8-0.3-1.1-0.5-1.1-0.8c0-0.4,0.4-0.5,1-0.5c0.9,0,6.4,0,7.2,0c0.7,0,1.1,0.1,1.1,0.5c0,0.4-0.4,0.6-1.1,0.8
			c-1.4,0.3-2,1-2,2.5c0,1.3-0.1,5.5,0,6.2C134.4,27.9,134.7,28.4,135,28.4z"/>
		<path id="XMLID_139_" class="st0" d="M155,17.7c1.4,0,7.1,0,7.8,0c0.6,0,1,0.3,1,0.5c0,0.3-0.4,0.6-1,0.7
			c-1.2,0.3-1.4,0.7-1.6,2.1c-0.2,1.2-0.1,4.7-0.1,9.7c0,4.2,0.2,6,1.7,7.3c1,0.9,3.1,1.3,4.1,1.3c3.8,0,6.6-2.1,6.6-6.1
			c0-2.7,0-4,0-8.9c0-2.3,0-3.1,0-3.5c0-1.3-0.9-1.7-2.5-2.1c-0.3-0.1-0.9-0.4-0.9-0.7c0-0.2,0.3-0.4,0.9-0.4c0.8,0,5.3,0,6.2,0
			c0.5,0,0.8,0.3,0.8,0.5c0,0.2-0.4,0.5-0.9,0.6c-1.6,0.4-2.1,1.1-2.2,3.4c0,1.7,0,6.6,0,8.5c0,6.2-1.1,8-3.5,9.5
			c-1.5,0.9-4.4,1.1-5.7,1.1c-3,0-5.2-1.1-6.3-2.2c-1.9-1.9-2.3-2.7-2.3-9.8c0-2.7,0-6,0-8.8c0-0.7-1-1.3-2.2-1.6
			c-0.4-0.1-0.9-0.4-0.9-0.7C154,17.9,154.5,17.7,155,17.7z"/>
		<path id="XMLID_137_" class="st0" d="M358.9,17.7c1.4,0,7.1,0,7.8,0c0.6,0,1,0.3,1,0.5c0,0.3-0.4,0.6-1,0.7
			c-1.2,0.3-1.4,0.7-1.6,2.1c-0.2,1.2-0.1,4.7-0.1,9.7c0,4.2,0.2,6,1.7,7.3c1,0.9,3.1,1.3,4.1,1.3c3.8,0,6.6-2.1,6.6-6.1
			c0-2.7,0-4,0-8.9c0-2.3,0-3.1,0-3.5c0-1.3-0.9-1.7-2.5-2.1c-0.3-0.1-0.9-0.4-0.9-0.7c0-0.2,0.3-0.4,0.9-0.4c0.8,0,5.3,0,6.2,0
			c0.5,0,0.8,0.3,0.8,0.5c0,0.2-0.4,0.5-0.9,0.6c-1.6,0.4-2.1,1.1-2.2,3.4c0,1.7,0,6.6,0,8.5c0,6.2-1.1,8-3.5,9.5
			c-1.5,0.9-4.4,1.1-5.7,1.1c-3,0-5.2-1.1-6.3-2.2c-1.9-1.9-2.3-2.7-2.3-9.8c0-2.7,0-6,0-8.8c0-0.7-1-1.3-2.2-1.6
			c-0.4-0.1-0.9-0.4-0.9-0.7C357.9,17.9,358.3,17.7,358.9,17.7z"/>
		<path id="XMLID_134_" class="st0" d="M196.4,28.6c-0.1,0.1-1.7,0.5-2.2,0.8c-0.2,0.1-1.4,0.6-1.2,0.6c2.1,1.4,5.4,5.8,7,7.9
			c0.9,1.2,1.8,1.6,2.8,1.8c0.3,0.1,0.6,0.4,0.6,0.5c0,0.2-0.3,0.5-0.5,0.5c-0.5,0.2-2.2,0.3-2.2,0.3s-2.5-0.1-4.5-2.6
			c-1-1.3-3.2-3.9-5.3-6.6c-0.4-0.5-0.8-1.3-1-1.5c-0.2-0.2-2.5-0.5-3.1-0.5c-0.1,0-0.3,0.2-0.3,0.4c0,1.5,0,4.9,0,7.2
			c0,1.6,0.3,1.9,1.8,2.3c0.6,0.2,0.8,0.4,0.8,0.7c0,0.4-1,0.5-1,0.5l-7.3-0.1c0,0-1-0.3-1-0.6c0-0.2,0.4-0.4,0.8-0.6
			c1.5-0.5,2.9-0.9,2.9-2.1c0-3.3,0-5.8,0-8.9c0-3.8,0-6.2,0-7.9c0-0.9-1.3-1.4-2.8-1.8c-0.5-0.1-0.8-0.4-0.8-0.7
			c0-0.3,0.4-0.5,0.9-0.5c1,0,1.7,0,2.4,0c1.2,0,6.3-0.2,8.1-0.2c1.5,0,4.1,0.1,5.7,1.6c1,0.9,1.8,2.6,1.8,4.3
			C198.7,25.8,197.9,27.3,196.4,28.6z M193.3,20.1c-0.8-0.9-1.8-1.3-2.6-1.3c-0.1,0-3.4,0.1-3.6,0.3c-0.2,0.1-0.4,0.6-0.4,0.8
			c0,2.1,0,6.3,0,8.5c0,0.2,0.2,0.4,0.4,0.4c1.7,0,5.6-0.5,5.9-0.8c0.9-0.7,1.8-2,1.8-4C194.7,23,194.4,21.4,193.3,20.1z"/>
		<path id="XMLID_132_" class="st0" d="M231.6,28.4c2.3,0,7,0,10.5,0c0.1,0,0.7-0.3,0.7-1.3c0-1.1,0-4.1,0-6.1c0-1.3-1-1.7-2.3-2.1
			c-0.5-0.1-1-0.4-1-0.7c0-0.3,0.3-0.5,1.1-0.5c0.4,0,6.9,0,7.3,0c0.6,0,1,0.2,1,0.5c0,0.4-0.3,0.6-1,0.8c-1.2,0.3-1.9,0.7-1.9,1.7
			c0,2.3,0,4.5,0,10.1c0,3.5,0,5.1,0,6.6c0,1.4,1.1,1.7,2.4,2.1c0.6,0.2,0.9,0.5,0.9,0.8c0,0.4-0.4,0.6-1,0.6c-0.6,0-6.7,0-7.4,0
			c-0.8,0-1.1-0.2-1.1-0.5c0-0.3,0.4-0.6,0.9-0.8c1.6-0.5,2.1-0.4,2.1-3.4c0-1.9,0-4.4,0-5.8c0-0.3-0.5-0.5-0.7-0.5
			c-2.7,0-9.9-0.1-10.5,0c-0.2,0-0.6,0.3-0.6,0.5c0,1.3-0.1,5.2,0,6.4c0.1,1.7,1.1,2.2,2.4,2.7c0.7,0.2,1.2,0.5,1.2,0.9
			c0,0.4-0.6,0.5-1.1,0.5c-0.2,0-6.6,0-7.7,0c-0.9,0-1.2-0.2-1.2-0.5c0-0.4,0.4-0.6,0.9-0.8c1.5-0.4,2.5-0.8,2.5-2.3
			c0-1.9,0-6.1,0-11.8c0-1.1,0-2.6,0-4.5c0-1.2-1-1.6-2.1-1.9c-0.8-0.3-1.1-0.5-1.1-0.8c0-0.4,0.4-0.5,1-0.5c0.9,0,6.5,0,7.3,0
			c0.7,0,1.1,0.1,1.1,0.5c0,0.4-0.4,0.6-1.1,0.8c-1.4,0.3-2,1-2,2.5c0,1.3-0.1,5.5,0,6.2C231,27.9,231.3,28.4,231.6,28.4z"/>
		<path id="XMLID_130_" class="st0" d="M319.2,28.4c2.3,0,7.1,0,10.5,0c0.1,0,0.7-0.3,0.7-1.3c0-1.1,0-4.1,0-6.1
			c0-1.3-1-1.7-2.3-2.1c-0.5-0.1-1-0.4-1-0.7c0-0.3,0.3-0.5,1.1-0.5c0.4,0,6.9,0,7.3,0c0.6,0,1,0.2,1,0.5c0,0.4-0.3,0.6-1,0.8
			c-1.2,0.3-1.9,0.7-1.9,1.7c0,2.3,0,4.5,0,10.1c0,3.5,0,5.1,0,6.6c0,1.4,1.1,1.7,2.5,2.1c0.6,0.2,0.9,0.5,0.9,0.8
			c0,0.4-0.4,0.6-1,0.6c-0.6,0-6.7,0-7.4,0c-0.8,0-1.1-0.2-1.1-0.5c0-0.3,0.4-0.6,0.9-0.8c1.6-0.5,2.1-0.4,2.1-3.4
			c0-1.9,0-4.4,0-5.8c0-0.3-0.5-0.5-0.7-0.5c-2.7,0-9.9-0.1-10.5,0c-0.2,0-0.6,0.3-0.6,0.5c0,1.3-0.1,5.2,0,6.4
			c0.1,1.7,1.1,2.2,2.4,2.7c0.7,0.2,1.2,0.5,1.2,0.9c0,0.4-0.6,0.5-1.1,0.5c-0.2,0-6.6,0-7.7,0c-0.9,0-1.2-0.2-1.2-0.5
			c0-0.4,0.4-0.6,0.9-0.8c1.5-0.4,2.5-0.8,2.5-2.3c0-1.9,0-6.1,0-11.8c0-1.1,0-2.6,0-4.5c0-1.2-1-1.6-2.1-1.9
			c-0.8-0.3-1.1-0.5-1.1-0.8c0-0.4,0.4-0.5,1-0.5c0.9,0,6.5,0,7.3,0c0.7,0,1.1,0.1,1.1,0.5c0,0.4-0.4,0.6-1.1,0.8
			c-1.4,0.3-2,1-2,2.5c0,1.3-0.1,5.5,0,6.2C318.6,27.9,318.9,28.4,319.2,28.4z"/>
		<path id="XMLID_128_" class="st0" d="M254.6,21.7c0-1.7-0.7-2.3-2.3-2.7c-0.8-0.2-1-0.5-1-0.7c0-0.3,0.5-0.5,1-0.5
			c0.9,0,6.5,0,7.6,0c0.6,0,1,0.1,1,0.5c0,0.3-0.5,0.6-1,0.7c-1.6,0.3-2.2,1.3-2.2,2.2c0,1.7,0,2.2,0,8.4c0,4.4,0,5.4,0,7
			c0,2.1,0.7,2.6,2.5,3.1c0.6,0.1,0.9,0.4,0.9,0.8c0,0.4-0.6,0.5-1,0.5c-1.3,0-6.8,0-8,0c-0.8,0-1-0.3-1-0.7c0-0.3,0.3-0.5,1-0.7
			c1.5-0.4,2.5-1.2,2.5-2.7c0-1.9,0-5.1,0-8.2C254.6,26.8,254.6,23.4,254.6,21.7z"/>
		<path id="XMLID_126_" class="st0" d="M265.1,17.8c1,0,2.6,0.1,3.7,0.1c1.5,0,2.6-0.1,3.5-0.1c0.9,0,1.2,0.2,1.2,0.4
			c0,0.3-0.4,0.6-0.8,0.7c-2,0.5-2.3,1-2.3,1.4c-0.3,1.8-0.3,5.5-0.3,10.8c0,2.5,0,5.5,0.2,6.7c0.1,0.9,2.4,1.8,2.5,1.8
			c0.7,0.1,2,0.2,3.1,0.2c0.8,0,2,0,2.7-0.2c0.3-0.1,0.9-0.6,1.4-0.9c0.5-0.5,1.4-1.3,2.3-2.8c0.3-0.5,0.7-0.7,1-0.7
			c0.3,0,0.3,0.4,0.1,1c-0.4,1.3-1,3.2-1.2,4.3c-0.1,0.2-0.7,0.6-0.9,0.6c-0.6,0-15.8,0-16.9,0c-0.7,0-1.1-0.1-1.1-0.5
			c0-0.3,0.3-0.6,0.9-0.7c2-0.4,2.4-1,2.6-2.6c0.1-0.9,0.2-4.7,0.2-9.9c0-3.5,0-4.9,0-6.1c0-1.2-0.2-1.8-1.9-2.2
			c-0.7-0.2-1-0.4-1-0.7C264,17.9,264.5,17.8,265.1,17.8z"/>
		<path id="XMLID_124_" class="st0" d="M285.7,17.8c1,0,2.6,0.1,3.7,0.1c1.5,0,2.6-0.1,3.5-0.1c0.9,0,1.2,0.2,1.2,0.4
			c0,0.3-0.4,0.6-0.8,0.7c-2,0.5-2.3,1-2.3,1.4c-0.3,1.8-0.3,5.5-0.3,10.8c0,2.5,0,5.5,0.2,6.7c0.1,0.9,2.4,1.8,2.5,1.8
			c0.7,0.1,2,0.2,3.1,0.2c0.8,0,2,0,2.7-0.2c0.3-0.1,0.9-0.6,1.4-0.9c0.5-0.5,1.4-1.3,2.3-2.8c0.3-0.5,0.7-0.7,1-0.7
			c0.3,0,0.3,0.4,0.1,1c-0.4,1.3-1,3.2-1.2,4.3c-0.1,0.2-0.7,0.6-0.9,0.6c-0.6,0-15.8,0-16.9,0c-0.7,0-1.1-0.1-1.1-0.5
			c0-0.3,0.3-0.6,0.9-0.7c2.1-0.4,2.4-1,2.6-2.6c0.1-0.9,0.2-4.7,0.2-9.9c0-3.5,0-4.9,0-6.1c0-1.2-0.2-1.8-1.9-2.2
			c-0.7-0.2-1-0.4-1-0.7C284.6,17.9,285.1,17.8,285.7,17.8z"/>
		<path id="XMLID_121_" class="st0" d="M358.7,28.9c0,4.7-1.8,7.8-4.1,9.8c-1.9,1.6-4.6,2.6-7.2,2.6c-3.4,0-6.4-1.4-8.5-3.9
			c-1.8-2.1-2.8-4.9-2.8-8.3c0-4.4,1.8-7.2,4.2-9.4c1.5-1.3,4.2-2.6,7-2.6C354.5,17.2,358.7,23.1,358.7,28.9z M342.8,20.3
			c-1.1,1.2-3.2,3.6-3.2,9c0,8,3.6,10.9,8.4,10.9c1.8,0,4.1-1.2,4.5-1.7c1.8-1.9,2.7-2.3,2.7-8.5c0-3.9-0.9-7.2-3.4-9.6
			c-2.1-2-4-1.9-5.4-1.9C345,18.5,343.6,19.5,342.8,20.3z"/>
		<path id="XMLID_119_" class="st0" d="M394,17.8c0.1,0,0.4,0.5,0.4,0.7c0,0.5,0.3,3.2,0.3,3.4c0,0.5-0.1,0.9-0.3,0.9
			c-0.3,0-0.8-0.3-0.9-0.9c-0.3-1.2-1-2.2-1.4-2.6c-0.8-0.7-1.6-1-2.6-1c-1.5,0-4.5,1.4-4.5,3.8c0,2.1,1.7,3.5,5.3,5.5
			c4.6,2.6,5.7,4.8,5.7,7c0,1.9-0.9,4-2.8,5.3c-1.1,0.8-3.8,1.3-5.4,1.3c-1.9,0-3.4-0.4-4.7-0.9c-0.3-0.1-0.8-0.9-0.8-1
			c-0.3-1.3-0.6-2.8-0.6-3.9c0-0.3,0.4-0.8,0.5-0.8c0.3,0,0.8,0.9,1.3,2c1,2.2,2.9,3.6,4.5,3.6c3.9,0,5.3-1.6,5.3-3.9
			c0-1.5-1.4-3.5-4.6-5.4c-3.8-2.3-6.5-4.1-6.5-7.3c0-2.1,0.9-3.8,1.9-4.7c1.1-1,3-1.7,5.6-1.7C391.4,17.2,393.2,17.7,394,17.8z"/>
		<path id="XMLID_117_" class="st0" d="M410.7,17.8c1.2,0,2.7-0.1,3.2-0.2c0.1,0,0.4,0.2,0.4,0.5c0,0.7,0,3.1,0,3.9
			c0,0.5-0.3,1-0.6,1c-0.3,0-0.6-0.5-0.7-0.9c-0.5-2-1.5-2.6-2.4-2.7c-0.7-0.1-2.3-0.3-5.1-0.2c-0.1,0-2.1,0.1-2.1,1
			c-0.1,0.9,0,5.9,0,7.9c0,0.1,0,0.4,0.2,0.4h4.6c2.6,0,2.5-0.1,3.2-1.7c0.2-0.5,0.5-0.9,0.8-0.9c0.3,0,0.4,0.6,0.4,1
			c-0.1,1-0.1,1.7-0.1,2.5c0,1,0.1,1.6,0.1,2.5c0,0.6-0.2,1.1-0.5,1.1c-0.3,0-0.6-0.4-0.7-0.8c-0.5-1.6-1-1.8-2.4-1.9
			c-1.2-0.1-4.2-0.1-5.3-0.1c-0.1,0-0.3,0.4-0.3,0.4c-0.1,1,0,3.8,0,5c0,0.9-0.1,2.2,0,3c0.1,0.3,2,0.8,2.4,0.9
			c0.6,0.1,1.7,0.2,3,0.2c1.1,0,2.5,0,3.4-0.3c1.1-0.4,2.1-1.3,2.9-2.7c0.5-0.9,0.8-1.3,1.1-1.3c0.4,0,0.3,0.8,0.3,1.1
			c0,0.3-1.1,3.6-1.4,4.2c-0.1,0.3-0.7,0.5-0.9,0.5c-0.4,0-9.5-0.2-12.3-0.2c-2.5,0-2.9,0.2-4.2,0.2c-0.7,0-1.3-0.1-1.3-0.5
			c0-0.3,0.5-0.6,1.1-0.7c1.9-0.4,2.2-0.8,2.3-2.7c0.1-1.5,0-4.3,0-8.7c0-4.3,0.1-5.9,0-7c-0.1-1.3,0.1-2-1.5-2.3
			c-0.8-0.1-1.2-0.3-1.2-0.6c0-0.3,0.6-0.5,1.1-0.5c1.7,0,4.7,0.1,6.7,0.1H410.7z"/>
	</g>
	<g id="XMLID_59_">
		<path id="XMLID_114_" class="st0" d="M118.6,53.2c-0.8-0.6-1.8-0.9-3-0.9c-0.5,0-1,0-1.5,0.2c-0.5,0.1-0.9,0.3-1.3,0.5
			c-0.4,0.2-0.7,0.5-0.9,0.9c-0.2,0.4-0.3,0.9-0.3,1.5c0,0.5,0.2,1,0.5,1.3c0.3,0.3,0.8,0.6,1.3,0.8c0.5,0.2,1.1,0.4,1.8,0.5
			c0.7,0.1,1.4,0.3,2.1,0.5c0.7,0.2,1.4,0.4,2.1,0.6c0.7,0.2,1.3,0.5,1.8,0.9c0.5,0.4,1,0.9,1.3,1.4c0.3,0.6,0.5,1.3,0.5,2.2
			c0,0.9-0.2,1.7-0.6,2.4c-0.4,0.7-1,1.2-1.6,1.6c-0.7,0.4-1.4,0.7-2.2,0.9c-0.8,0.2-1.6,0.3-2.4,0.3c-1,0-1.9-0.1-2.8-0.4
			c-0.9-0.2-1.7-0.6-2.3-1.1c-0.7-0.5-1.2-1.1-1.6-1.9c-0.4-0.8-0.6-1.7-0.6-2.8h2.2c0,0.7,0.1,1.4,0.4,1.9c0.3,0.5,0.7,1,1.1,1.3
			c0.5,0.3,1,0.6,1.6,0.8c0.6,0.2,1.3,0.2,1.9,0.2c0.5,0,1.1-0.1,1.6-0.2c0.5-0.1,1-0.3,1.4-0.5c0.4-0.2,0.8-0.6,1-1
			c0.3-0.4,0.4-0.9,0.4-1.6c0-0.6-0.2-1.1-0.5-1.5c-0.3-0.4-0.8-0.7-1.3-0.9c-0.5-0.2-1.1-0.4-1.8-0.6c-0.7-0.1-1.4-0.3-2.1-0.5
			c-0.7-0.2-1.4-0.3-2.1-0.5c-0.7-0.2-1.3-0.5-1.8-0.8c-0.5-0.3-1-0.8-1.3-1.3c-0.3-0.5-0.5-1.2-0.5-2c0-0.9,0.2-1.7,0.5-2.3
			c0.4-0.7,0.8-1.2,1.5-1.6c0.6-0.4,1.3-0.7,2.1-0.9c0.8-0.2,1.6-0.3,2.4-0.3c0.9,0,1.8,0.1,2.5,0.3c0.8,0.2,1.5,0.6,2,1
			c0.6,0.5,1,1,1.4,1.7c0.3,0.7,0.5,1.5,0.6,2.5H120C119.9,54.7,119.4,53.8,118.6,53.2z"/>
		<path id="XMLID_112_" class="st0" d="M133.1,57.9c-0.5-0.4-1.2-0.7-2.1-0.7c-0.8,0-1.4,0.1-1.9,0.4c-0.5,0.3-0.9,0.7-1.2,1.1
			c-0.3,0.5-0.5,1-0.7,1.6c-0.1,0.6-0.2,1.2-0.2,1.9c0,0.6,0.1,1.2,0.2,1.7c0.1,0.6,0.4,1.1,0.7,1.5c0.3,0.4,0.7,0.8,1.2,1.1
			c0.5,0.3,1,0.4,1.7,0.4c1,0,1.9-0.3,2.4-0.8c0.6-0.5,0.9-1.3,1.1-2.3h2.2c-0.2,1.6-0.8,2.8-1.8,3.7c-1,0.9-2.2,1.3-3.9,1.3
			c-1,0-1.8-0.2-2.6-0.5c-0.8-0.3-1.4-0.8-1.9-1.3c-0.5-0.6-0.9-1.3-1.1-2.1c-0.3-0.8-0.4-1.7-0.4-2.6c0-1,0.1-1.9,0.4-2.7
			c0.2-0.8,0.6-1.6,1.1-2.2c0.5-0.6,1.1-1.1,1.9-1.5c0.8-0.4,1.6-0.5,2.7-0.5c0.7,0,1.4,0.1,2,0.3c0.6,0.2,1.2,0.4,1.7,0.8
			c0.5,0.4,0.9,0.8,1.2,1.4c0.3,0.6,0.5,1.2,0.6,2h-2.2C134,59,133.7,58.4,133.1,57.9z"/>
		<path id="XMLID_110_" class="st0" d="M140.9,50.8v6.8h0.1c0.2-0.4,0.4-0.7,0.7-1c0.3-0.3,0.6-0.5,1-0.7c0.4-0.2,0.8-0.3,1.2-0.4
			c0.4-0.1,0.8-0.1,1.2-0.1c0.8,0,1.5,0.1,2.1,0.3c0.6,0.2,1,0.6,1.4,1c0.3,0.4,0.6,0.9,0.7,1.5c0.1,0.6,0.2,1.2,0.2,1.9v8.4h-2.1
			v-8.7c0-0.8-0.2-1.4-0.7-1.9c-0.5-0.5-1.1-0.7-1.9-0.7c-0.6,0-1.2,0.1-1.7,0.3c-0.5,0.2-0.9,0.5-1.2,0.8c-0.3,0.4-0.5,0.8-0.7,1.3
			c-0.2,0.5-0.2,1-0.2,1.6v7.2h-2.1V50.8H140.9z"/>
		<path id="XMLID_107_" class="st0" d="M152.3,59.5c0.3-0.8,0.7-1.5,1.2-2.1c0.5-0.6,1.2-1.1,2-1.4c0.8-0.3,1.7-0.5,2.7-0.5
			c1,0,1.9,0.2,2.7,0.5c0.8,0.3,1.4,0.8,1.9,1.4c0.5,0.6,0.9,1.3,1.2,2.1c0.3,0.8,0.4,1.7,0.4,2.6c0,0.9-0.1,1.8-0.4,2.6
			c-0.3,0.8-0.7,1.5-1.2,2.1c-0.5,0.6-1.2,1.1-1.9,1.4c-0.8,0.3-1.7,0.5-2.7,0.5c-1,0-1.9-0.2-2.7-0.5c-0.8-0.3-1.4-0.8-2-1.4
			c-0.5-0.6-0.9-1.3-1.2-2.1c-0.3-0.8-0.4-1.7-0.4-2.6C151.9,61.2,152,60.3,152.3,59.5z M154.4,64.2c0.2,0.6,0.5,1.1,0.9,1.5
			c0.4,0.4,0.8,0.7,1.3,0.9c0.5,0.2,1,0.3,1.6,0.3c0.5,0,1.1-0.1,1.5-0.3c0.5-0.2,0.9-0.5,1.3-0.9c0.4-0.4,0.6-0.9,0.9-1.5
			c0.2-0.6,0.3-1.3,0.3-2.1c0-0.8-0.1-1.5-0.3-2.1c-0.2-0.6-0.5-1.1-0.9-1.5c-0.4-0.4-0.8-0.7-1.3-0.9c-0.5-0.2-1-0.3-1.5-0.3
			c-0.5,0-1.1,0.1-1.6,0.3c-0.5,0.2-0.9,0.5-1.3,0.9c-0.4,0.4-0.6,0.9-0.9,1.5c-0.2,0.6-0.3,1.3-0.3,2.1
			C154.1,62.9,154.2,63.6,154.4,64.2z"/>
		<path id="XMLID_104_" class="st0" d="M166.5,59.5c0.3-0.8,0.7-1.5,1.2-2.1c0.5-0.6,1.2-1.1,2-1.4c0.8-0.3,1.7-0.5,2.7-0.5
			c1,0,1.9,0.2,2.7,0.5c0.8,0.3,1.4,0.8,1.9,1.4c0.5,0.6,0.9,1.3,1.2,2.1c0.3,0.8,0.4,1.7,0.4,2.6c0,0.9-0.1,1.8-0.4,2.6
			c-0.3,0.8-0.7,1.5-1.2,2.1c-0.5,0.6-1.2,1.1-1.9,1.4c-0.8,0.3-1.7,0.5-2.7,0.5c-1,0-1.9-0.2-2.7-0.5c-0.8-0.3-1.4-0.8-2-1.4
			c-0.5-0.6-0.9-1.3-1.2-2.1c-0.3-0.8-0.4-1.7-0.4-2.6C166.1,61.2,166.2,60.3,166.5,59.5z M168.7,64.2c0.2,0.6,0.5,1.1,0.9,1.5
			c0.4,0.4,0.8,0.7,1.3,0.9c0.5,0.2,1,0.3,1.6,0.3c0.5,0,1.1-0.1,1.5-0.3c0.5-0.2,0.9-0.5,1.3-0.9c0.4-0.4,0.6-0.9,0.9-1.5
			c0.2-0.6,0.3-1.3,0.3-2.1c0-0.8-0.1-1.5-0.3-2.1c-0.2-0.6-0.5-1.1-0.9-1.5c-0.4-0.4-0.8-0.7-1.3-0.9c-0.5-0.2-1-0.3-1.5-0.3
			c-0.5,0-1.1,0.1-1.6,0.3c-0.5,0.2-0.9,0.5-1.3,0.9c-0.4,0.4-0.6,0.9-0.9,1.5c-0.2,0.6-0.3,1.3-0.3,2.1
			C168.3,62.9,168.4,63.6,168.7,64.2z"/>
		<path id="XMLID_102_" class="st0" d="M183.3,50.8v17.7h-2.1V50.8H183.3z"/>
		<path id="XMLID_99_" class="st0" d="M193.1,59.5c0.3-0.8,0.7-1.5,1.2-2.1c0.5-0.6,1.2-1.1,2-1.4c0.8-0.3,1.7-0.5,2.7-0.5
			c1,0,1.9,0.2,2.7,0.5c0.8,0.3,1.4,0.8,1.9,1.4c0.5,0.6,0.9,1.3,1.2,2.1c0.3,0.8,0.4,1.7,0.4,2.6c0,0.9-0.1,1.8-0.4,2.6
			c-0.3,0.8-0.7,1.5-1.2,2.1c-0.5,0.6-1.2,1.1-1.9,1.4c-0.8,0.3-1.7,0.5-2.7,0.5c-1,0-1.9-0.2-2.7-0.5c-0.8-0.3-1.4-0.8-2-1.4
			c-0.5-0.6-0.9-1.3-1.2-2.1c-0.3-0.8-0.4-1.7-0.4-2.6C192.7,61.2,192.9,60.3,193.1,59.5z M195.3,64.2c0.2,0.6,0.5,1.1,0.9,1.5
			c0.4,0.4,0.8,0.7,1.3,0.9c0.5,0.2,1,0.3,1.6,0.3c0.5,0,1.1-0.1,1.6-0.3c0.5-0.2,0.9-0.5,1.3-0.9c0.4-0.4,0.6-0.9,0.9-1.5
			c0.2-0.6,0.3-1.3,0.3-2.1c0-0.8-0.1-1.5-0.3-2.1c-0.2-0.6-0.5-1.1-0.9-1.5c-0.4-0.4-0.8-0.7-1.3-0.9c-0.5-0.2-1-0.3-1.6-0.3
			c-0.5,0-1.1,0.1-1.6,0.3c-0.5,0.2-0.9,0.5-1.3,0.9c-0.4,0.4-0.6,0.9-0.9,1.5c-0.2,0.6-0.3,1.3-0.3,2.1
			C195,62.9,195.1,63.6,195.3,64.2z"/>
		<path id="XMLID_97_" class="st0" d="M206.4,57.5v-1.9h2.2v-1.9c0-1,0.3-1.8,0.9-2.4c0.6-0.5,1.5-0.8,2.6-0.8c0.2,0,0.4,0,0.7,0.1
			c0.3,0,0.5,0.1,0.7,0.1v1.8c-0.2-0.1-0.4-0.1-0.6-0.1c-0.2,0-0.4,0-0.6,0c-0.5,0-0.9,0.1-1.2,0.3c-0.3,0.2-0.4,0.6-0.4,1.1v1.8
			h2.5v1.9h-2.5v11h-2.1v-11H206.4z"/>
		<path id="XMLID_95_" class="st0" d="M234.5,50.8v2h-9.9v5.6h9.2v2h-9.2v6.1h9.9v2h-12.3V50.8H234.5z"/>
		<path id="XMLID_93_" class="st0" d="M239,55.7v2h0.1c0.9-1.6,2.3-2.3,4.2-2.3c0.8,0,1.5,0.1,2.1,0.3c0.6,0.2,1,0.6,1.4,1
			c0.3,0.4,0.6,0.9,0.7,1.5c0.1,0.6,0.2,1.2,0.2,1.9v8.4h-2.1v-8.7c0-0.8-0.2-1.4-0.7-1.9c-0.5-0.5-1.1-0.7-1.9-0.7
			c-0.6,0-1.2,0.1-1.7,0.3c-0.5,0.2-0.9,0.5-1.2,0.8c-0.3,0.4-0.5,0.8-0.7,1.3c-0.2,0.5-0.2,1-0.2,1.6v7.2H237V55.7H239z"/>
		<path id="XMLID_90_" class="st0" d="M260.4,72.1c-1,1-2.5,1.6-4.5,1.6c-0.6,0-1.2-0.1-1.8-0.2c-0.6-0.1-1.2-0.3-1.7-0.6
			c-0.5-0.3-0.9-0.7-1.3-1.2c-0.3-0.5-0.5-1.1-0.5-1.8h2.1c0,0.4,0.1,0.7,0.4,1c0.2,0.3,0.5,0.5,0.8,0.6c0.3,0.2,0.7,0.3,1.1,0.4
			c0.4,0.1,0.7,0.1,1.1,0.1c0.7,0,1.3-0.1,1.8-0.4c0.5-0.2,0.9-0.6,1.2-1c0.3-0.4,0.5-0.9,0.7-1.5c0.1-0.6,0.2-1.2,0.2-2v-0.8h0
			c-0.4,0.8-0.9,1.4-1.6,1.7c-0.7,0.4-1.5,0.6-2.3,0.6c-1,0-1.8-0.2-2.5-0.5c-0.7-0.3-1.3-0.8-1.8-1.4c-0.5-0.6-0.8-1.3-1.1-2.1
			c-0.2-0.8-0.4-1.6-0.4-2.5c0-0.8,0.1-1.5,0.3-2.3c0.2-0.8,0.5-1.5,1-2.2c0.5-0.7,1.1-1.2,1.8-1.6c0.8-0.4,1.7-0.6,2.8-0.6
			c0.8,0,1.6,0.2,2.2,0.5c0.7,0.4,1.2,0.9,1.6,1.6h0v-1.8h2v11.7C261.9,69.5,261.4,71.1,260.4,72.1z M257.8,66.4
			c0.5-0.3,0.9-0.7,1.2-1.1c0.3-0.5,0.5-1,0.7-1.6c0.1-0.6,0.2-1.2,0.2-1.8c0-0.6-0.1-1.1-0.2-1.7c-0.1-0.5-0.3-1-0.6-1.5
			c-0.3-0.4-0.7-0.8-1.1-1.1c-0.5-0.3-1-0.4-1.7-0.4c-0.7,0-1.3,0.1-1.7,0.4c-0.5,0.3-0.9,0.6-1.2,1c-0.3,0.4-0.5,0.9-0.7,1.5
			c-0.1,0.6-0.2,1.1-0.2,1.8c0,0.6,0.1,1.2,0.2,1.7c0.1,0.6,0.3,1.1,0.6,1.6c0.3,0.5,0.7,0.9,1.1,1.1c0.5,0.3,1,0.4,1.7,0.4
			C256.7,66.8,257.3,66.6,257.8,66.4z"/>
		<path id="XMLID_88_" class="st0" d="M267.3,50.8v17.7h-2.1V50.8H267.3z"/>
		<path id="XMLID_85_" class="st0" d="M270.7,53.4v-2.6h2.1v2.6H270.7z M272.8,55.7v12.8h-2.1V55.7H272.8z"/>
		<path id="XMLID_83_" class="st0" d="M277.7,65.6c0.2,0.3,0.5,0.6,0.8,0.8c0.3,0.2,0.7,0.3,1.1,0.4c0.4,0.1,0.8,0.1,1.3,0.1
			c0.3,0,0.7,0,1-0.1c0.4,0,0.7-0.1,1-0.3c0.3-0.1,0.6-0.3,0.8-0.6c0.2-0.3,0.3-0.6,0.3-1c0-0.5-0.2-1-0.6-1.2
			c-0.4-0.3-0.9-0.5-1.6-0.7c-0.6-0.2-1.3-0.3-2-0.5c-0.7-0.1-1.4-0.3-2-0.6c-0.6-0.3-1.1-0.6-1.5-1.1c-0.4-0.5-0.6-1.1-0.6-1.9
			c0-0.6,0.1-1.2,0.4-1.7c0.3-0.5,0.7-0.8,1.1-1.1c0.5-0.3,1-0.5,1.5-0.6c0.6-0.1,1.1-0.2,1.7-0.2c0.7,0,1.4,0.1,2,0.2
			c0.6,0.1,1.2,0.3,1.6,0.6c0.5,0.3,0.8,0.7,1.1,1.2c0.3,0.5,0.4,1.2,0.5,1.9h-2.1c0-0.4-0.1-0.8-0.3-1c-0.2-0.3-0.4-0.5-0.7-0.7
			c-0.3-0.2-0.6-0.3-0.9-0.4c-0.3-0.1-0.7-0.1-1-0.1c-0.3,0-0.6,0-1,0.1c-0.3,0.1-0.6,0.1-0.9,0.3c-0.3,0.1-0.5,0.3-0.6,0.5
			c-0.2,0.2-0.2,0.5-0.2,0.8c0,0.4,0.1,0.7,0.4,0.9c0.3,0.2,0.6,0.4,1,0.6c0.4,0.2,0.8,0.3,1.3,0.4c0.5,0.1,1,0.2,1.5,0.3
			c0.5,0.1,1,0.3,1.5,0.4c0.5,0.2,0.9,0.4,1.3,0.7c0.4,0.3,0.7,0.6,0.9,1c0.2,0.4,0.4,0.9,0.4,1.5c0,0.8-0.2,1.4-0.5,1.9
			c-0.3,0.5-0.7,0.9-1.3,1.2c-0.5,0.3-1.1,0.5-1.8,0.7c-0.7,0.1-1.3,0.2-1.9,0.2c-0.7,0-1.4-0.1-2-0.2c-0.6-0.1-1.2-0.4-1.7-0.7
			c-0.5-0.3-0.9-0.8-1.2-1.3c-0.3-0.6-0.5-1.2-0.5-2h2.1C277.4,64.9,277.5,65.3,277.7,65.6z"/>
		<path id="XMLID_81_" class="st0" d="M290.6,50.8v6.8h0.1c0.2-0.4,0.4-0.7,0.7-1c0.3-0.3,0.6-0.5,1-0.7c0.4-0.2,0.8-0.3,1.2-0.4
			c0.4-0.1,0.8-0.1,1.2-0.1c0.8,0,1.5,0.1,2.1,0.3c0.6,0.2,1,0.6,1.4,1c0.3,0.4,0.6,0.9,0.7,1.5c0.1,0.6,0.2,1.2,0.2,1.9v8.4H297
			v-8.7c0-0.8-0.2-1.4-0.7-1.9c-0.5-0.5-1.1-0.7-1.9-0.7c-0.6,0-1.2,0.1-1.7,0.3c-0.5,0.2-0.9,0.5-1.2,0.8c-0.3,0.4-0.5,0.8-0.7,1.3
			c-0.2,0.5-0.2,1-0.2,1.6v7.2h-2.1V50.8H290.6z"/>
		<path id="XMLID_79_" class="st0" d="M311.8,50.8v15.7h9.4v2h-11.7V50.8H311.8z"/>
		<path id="XMLID_76_" class="st0" d="M332.8,68.8c-0.5,0-1-0.2-1.3-0.5c-0.3-0.3-0.5-0.8-0.5-1.5c-0.6,0.7-1.3,1.2-2,1.5
			c-0.8,0.3-1.6,0.5-2.5,0.5c-0.6,0-1.1-0.1-1.6-0.2c-0.5-0.1-1-0.3-1.4-0.6c-0.4-0.3-0.7-0.7-0.9-1.1c-0.2-0.5-0.3-1-0.3-1.6
			c0-0.7,0.1-1.3,0.4-1.8c0.2-0.5,0.6-0.8,1-1.1c0.4-0.3,0.9-0.5,1.4-0.7c0.5-0.1,1.1-0.3,1.6-0.4c0.6-0.1,1.1-0.2,1.6-0.3
			c0.5-0.1,1-0.1,1.4-0.2c0.4-0.1,0.7-0.3,0.9-0.5c0.2-0.2,0.3-0.5,0.3-0.9c0-0.5-0.1-0.8-0.3-1.1c-0.2-0.3-0.4-0.5-0.7-0.6
			c-0.3-0.1-0.6-0.2-0.9-0.3c-0.3,0-0.7-0.1-1-0.1c-0.9,0-1.6,0.2-2.2,0.5c-0.6,0.3-0.9,1-1,1.9h-2.1c0-0.8,0.2-1.5,0.5-2
			c0.3-0.5,0.7-1,1.2-1.3c0.5-0.3,1.1-0.6,1.7-0.7c0.6-0.1,1.3-0.2,2-0.2c0.6,0,1.2,0,1.7,0.1c0.6,0.1,1.1,0.3,1.6,0.5
			c0.5,0.3,0.8,0.6,1.1,1.1c0.3,0.5,0.4,1.1,0.4,1.8v6.6c0,0.5,0,0.9,0.1,1.1c0.1,0.2,0.3,0.3,0.6,0.3c0.2,0,0.4,0,0.6-0.1v1.6
			C333.9,68.7,333.4,68.8,332.8,68.8z M329.8,62.3c-0.4,0.1-0.9,0.2-1.4,0.2c-0.5,0.1-0.9,0.1-1.4,0.2c-0.5,0.1-0.9,0.2-1.3,0.4
			c-0.4,0.2-0.7,0.4-0.9,0.7c-0.2,0.3-0.4,0.7-0.4,1.3c0,0.3,0.1,0.6,0.2,0.9c0.1,0.2,0.3,0.4,0.5,0.6c0.2,0.1,0.5,0.3,0.8,0.3
			c0.3,0.1,0.6,0.1,0.9,0.1c0.7,0,1.3-0.1,1.8-0.3c0.5-0.2,0.9-0.4,1.2-0.7c0.3-0.3,0.5-0.6,0.7-0.9c0.1-0.3,0.2-0.7,0.2-1v-2.2
			C330.6,62.1,330.2,62.2,329.8,62.3z"/>
		<path id="XMLID_74_" class="st0" d="M338.2,55.7v2h0c0.9-1.6,2.3-2.3,4.2-2.3c0.8,0,1.5,0.1,2.1,0.3c0.6,0.2,1,0.6,1.4,1
			c0.3,0.4,0.6,0.9,0.7,1.5c0.1,0.6,0.2,1.2,0.2,1.9v8.4h-2.1v-8.7c0-0.8-0.2-1.4-0.7-1.9c-0.5-0.5-1.1-0.7-1.9-0.7
			c-0.6,0-1.2,0.1-1.7,0.3c-0.5,0.2-0.9,0.5-1.2,0.8c-0.3,0.4-0.5,0.8-0.7,1.3c-0.2,0.5-0.2,1-0.2,1.6v7.2h-2.1V55.7H338.2z"/>
		<path id="XMLID_71_" class="st0" d="M359.6,72.1c-1,1-2.5,1.6-4.5,1.6c-0.6,0-1.2-0.1-1.8-0.2c-0.6-0.1-1.2-0.3-1.7-0.6
			c-0.5-0.3-0.9-0.7-1.3-1.2c-0.3-0.5-0.5-1.1-0.5-1.8h2.1c0,0.4,0.1,0.7,0.4,1c0.2,0.3,0.5,0.5,0.8,0.6c0.3,0.2,0.7,0.3,1.1,0.4
			c0.4,0.1,0.7,0.1,1.1,0.1c0.7,0,1.3-0.1,1.8-0.4c0.5-0.2,0.9-0.6,1.2-1c0.3-0.4,0.5-0.9,0.7-1.5c0.1-0.6,0.2-1.2,0.2-2v-0.8h0
			c-0.4,0.8-0.9,1.4-1.6,1.7c-0.7,0.4-1.5,0.6-2.3,0.6c-1,0-1.8-0.2-2.5-0.5c-0.7-0.3-1.3-0.8-1.8-1.4c-0.5-0.6-0.8-1.3-1.1-2.1
			c-0.2-0.8-0.4-1.6-0.4-2.5c0-0.8,0.1-1.5,0.3-2.3c0.2-0.8,0.5-1.5,1-2.2c0.5-0.7,1.1-1.2,1.8-1.6c0.8-0.4,1.7-0.6,2.8-0.6
			c0.8,0,1.6,0.2,2.2,0.5c0.7,0.4,1.2,0.9,1.6,1.6h0v-1.8h2v11.7C361.1,69.5,360.6,71.1,359.6,72.1z M356.9,66.4
			c0.5-0.3,0.9-0.7,1.2-1.1c0.3-0.5,0.5-1,0.7-1.6c0.1-0.6,0.2-1.2,0.2-1.8c0-0.6-0.1-1.1-0.2-1.7c-0.1-0.5-0.3-1-0.6-1.5
			c-0.3-0.4-0.7-0.8-1.1-1.1c-0.5-0.3-1-0.4-1.7-0.4c-0.7,0-1.3,0.1-1.7,0.4c-0.5,0.3-0.9,0.6-1.2,1c-0.3,0.4-0.5,0.9-0.7,1.5
			c-0.1,0.6-0.2,1.1-0.2,1.8c0,0.6,0.1,1.2,0.2,1.7c0.1,0.6,0.3,1.1,0.6,1.6c0.3,0.5,0.7,0.9,1.1,1.1c0.5,0.3,1,0.4,1.7,0.4
			C355.9,66.8,356.5,66.6,356.9,66.4z"/>
		<path id="XMLID_69_" class="st0" d="M372.9,68.5v-2h0c-0.4,0.8-1,1.4-1.7,1.8c-0.7,0.4-1.5,0.6-2.5,0.6c-0.8,0-1.5-0.1-2.1-0.3
			c-0.6-0.2-1-0.5-1.4-1c-0.3-0.4-0.6-0.9-0.7-1.5c-0.1-0.6-0.2-1.2-0.2-1.9v-8.4h2.1v8.7c0,0.8,0.2,1.4,0.7,1.9
			c0.5,0.5,1.1,0.7,1.9,0.7c0.6,0,1.2-0.1,1.7-0.3c0.5-0.2,0.9-0.5,1.2-0.8c0.3-0.4,0.5-0.8,0.7-1.3c0.2-0.5,0.2-1,0.2-1.6v-7.2h2.1
			v12.8H372.9z"/>
		<path id="XMLID_66_" class="st0" d="M387.9,68.8c-0.5,0-1-0.2-1.3-0.5c-0.3-0.3-0.5-0.8-0.5-1.5c-0.6,0.7-1.3,1.2-2,1.5
			c-0.8,0.3-1.6,0.5-2.5,0.5c-0.6,0-1.1-0.1-1.6-0.2c-0.5-0.1-1-0.3-1.4-0.6c-0.4-0.3-0.7-0.7-0.9-1.1c-0.2-0.5-0.3-1-0.3-1.6
			c0-0.7,0.1-1.3,0.4-1.8c0.2-0.5,0.6-0.8,1-1.1c0.4-0.3,0.9-0.5,1.4-0.7c0.5-0.1,1.1-0.3,1.6-0.4c0.6-0.1,1.1-0.2,1.6-0.3
			c0.5-0.1,1-0.1,1.4-0.2c0.4-0.1,0.7-0.3,0.9-0.5c0.2-0.2,0.3-0.5,0.3-0.9c0-0.5-0.1-0.8-0.3-1.1c-0.2-0.3-0.4-0.5-0.7-0.6
			c-0.3-0.1-0.6-0.2-0.9-0.3c-0.3,0-0.7-0.1-1-0.1c-0.9,0-1.6,0.2-2.2,0.5c-0.6,0.3-0.9,1-1,1.9h-2.1c0-0.8,0.2-1.5,0.5-2
			c0.3-0.5,0.7-1,1.2-1.3c0.5-0.3,1.1-0.6,1.7-0.7c0.6-0.1,1.3-0.2,2-0.2c0.6,0,1.2,0,1.7,0.1c0.6,0.1,1.1,0.3,1.6,0.5
			c0.5,0.3,0.8,0.6,1.1,1.1c0.3,0.5,0.4,1.1,0.4,1.8v6.6c0,0.5,0,0.9,0.1,1.1c0.1,0.2,0.3,0.3,0.6,0.3c0.2,0,0.4,0,0.6-0.1v1.6
			C389,68.7,388.5,68.8,387.9,68.8z M384.9,62.3c-0.4,0.1-0.9,0.2-1.4,0.2c-0.5,0.1-0.9,0.1-1.4,0.2c-0.5,0.1-0.9,0.2-1.3,0.4
			c-0.4,0.2-0.7,0.4-0.9,0.7c-0.2,0.3-0.4,0.7-0.4,1.3c0,0.3,0.1,0.6,0.2,0.9c0.1,0.2,0.3,0.4,0.5,0.6c0.2,0.1,0.5,0.3,0.8,0.3
			c0.3,0.1,0.6,0.1,0.9,0.1c0.7,0,1.3-0.1,1.8-0.3c0.5-0.2,0.9-0.4,1.2-0.7c0.3-0.3,0.5-0.6,0.7-0.9c0.1-0.3,0.2-0.7,0.2-1v-2.2
			C385.7,62.1,385.3,62.2,384.9,62.3z"/>
		<path id="XMLID_63_" class="st0" d="M401,72.1c-1,1-2.5,1.6-4.5,1.6c-0.6,0-1.2-0.1-1.8-0.2c-0.6-0.1-1.2-0.3-1.7-0.6
			c-0.5-0.3-0.9-0.7-1.3-1.2c-0.3-0.5-0.5-1.1-0.5-1.8h2.1c0,0.4,0.1,0.7,0.4,1c0.2,0.3,0.5,0.5,0.8,0.6c0.3,0.2,0.7,0.3,1.1,0.4
			c0.4,0.1,0.7,0.1,1.1,0.1c0.7,0,1.3-0.1,1.8-0.4c0.5-0.2,0.9-0.6,1.2-1c0.3-0.4,0.5-0.9,0.7-1.5c0.1-0.6,0.2-1.2,0.2-2v-0.8h0
			c-0.4,0.8-0.9,1.4-1.6,1.7c-0.7,0.4-1.5,0.6-2.3,0.6c-1,0-1.8-0.2-2.5-0.5c-0.7-0.3-1.3-0.8-1.8-1.4c-0.5-0.6-0.8-1.3-1.1-2.1
			c-0.2-0.8-0.4-1.6-0.4-2.5c0-0.8,0.1-1.5,0.3-2.3c0.2-0.8,0.5-1.5,1-2.2c0.5-0.7,1.1-1.2,1.8-1.6c0.8-0.4,1.7-0.6,2.8-0.6
			c0.8,0,1.6,0.2,2.2,0.5c0.7,0.4,1.2,0.9,1.6,1.6h0v-1.8h2v11.7C402.4,69.5,401.9,71.1,401,72.1z M398.3,66.4
			c0.5-0.3,0.9-0.7,1.2-1.1c0.3-0.5,0.5-1,0.7-1.6c0.1-0.6,0.2-1.2,0.2-1.8c0-0.6-0.1-1.1-0.2-1.7c-0.1-0.5-0.3-1-0.6-1.5
			c-0.3-0.4-0.7-0.8-1.1-1.1c-0.5-0.3-1-0.4-1.7-0.4c-0.7,0-1.3,0.1-1.7,0.4c-0.5,0.3-0.9,0.6-1.2,1c-0.3,0.4-0.5,0.9-0.7,1.5
			c-0.1,0.6-0.2,1.1-0.2,1.8c0,0.6,0.1,1.2,0.2,1.7c0.1,0.6,0.3,1.1,0.6,1.6c0.3,0.5,0.7,0.9,1.1,1.1c0.5,0.3,1,0.4,1.7,0.4
			C397.2,66.8,397.8,66.6,398.3,66.4z"/>
		<path id="XMLID_60_" class="st0" d="M414.6,67.7c-1,0.7-2.2,1.1-3.6,1.1c-1,0-1.9-0.2-2.7-0.5c-0.8-0.3-1.4-0.8-1.9-1.4
			c-0.5-0.6-0.9-1.3-1.2-2.1c-0.3-0.8-0.4-1.7-0.4-2.7c0-1,0.1-1.9,0.4-2.7c0.3-0.8,0.7-1.5,1.3-2.1c0.5-0.6,1.2-1.1,1.9-1.4
			c0.7-0.3,1.5-0.5,2.4-0.5c1.1,0,2.1,0.2,2.8,0.7c0.8,0.5,1.4,1.1,1.8,1.8c0.5,0.7,0.8,1.5,0.9,2.4c0.2,0.9,0.2,1.7,0.2,2.5h-9.6
			c0,0.6,0,1.1,0.2,1.6c0.1,0.5,0.4,1,0.7,1.3c0.3,0.4,0.8,0.7,1.3,0.9c0.5,0.2,1.1,0.3,1.8,0.3c0.9,0,1.6-0.2,2.2-0.6
			c0.6-0.4,0.9-1,1.1-1.9h2.1C416.2,65.9,415.6,67,414.6,67.7z M414.1,59.5c-0.2-0.4-0.4-0.8-0.8-1.2c-0.3-0.3-0.7-0.6-1.1-0.8
			c-0.4-0.2-0.9-0.3-1.4-0.3c-0.5,0-1,0.1-1.5,0.3c-0.4,0.2-0.8,0.4-1.1,0.8c-0.3,0.3-0.6,0.7-0.7,1.2c-0.2,0.4-0.3,0.9-0.3,1.4h7.4
			C414.4,60.4,414.3,59.9,414.1,59.5z"/>
	</g>
	<g id="XMLID_54_">
		<path id="XMLID_57_" class="st0" d="M456.1,69l-19.8-43.2v34.3c0,3.2,0.3,5.1,1,5.9c0.9,1.1,2.4,1.6,4.4,1.6h1.8V69h-17.9v-1.4
			h1.8c2.2,0,3.7-0.7,4.6-2c0.6-0.8,0.8-2.6,0.8-5.5V26.6c0-2.3-0.3-3.9-0.8-4.9c-0.4-0.7-1-1.3-1.9-1.8c-0.9-0.5-2.5-0.7-4.6-0.7
			v-1.4h14.5l18.6,40.2l18.3-40.2h14.5v1.4h-1.8c-2.2,0-3.7,0.7-4.7,2c-0.6,0.8-0.8,2.6-0.8,5.5v33.5c0,3.2,0.4,5.1,1.1,5.9
			c0.9,1.1,2.4,1.6,4.4,1.6h1.8V69h-21.8v-1.4h1.8c2.2,0,3.7-0.7,4.6-2c0.6-0.8,0.8-2.6,0.8-5.5V25.8L457.3,69H456.1z"/>
		<path id="XMLID_55_" class="st0" d="M527.8,40.6l11,16.4c3.1,4.5,5.3,7.4,6.8,8.6c1.5,1.2,3.3,1.9,5.6,2V69h-22v-1.4
			c1.5,0,2.5-0.2,3.3-0.5c0.5-0.2,1-0.6,1.3-1c0.3-0.5,0.5-0.9,0.5-1.4c0-0.6-0.1-1.2-0.3-1.7c-0.2-0.4-0.9-1.5-2.1-3.3l-8.7-13.2
			l-10.7,13.8c-1.1,1.5-1.8,2.4-2,2.9c-0.2,0.5-0.3,1-0.3,1.5c0,0.8,0.3,1.5,1,2c0.7,0.5,2,0.8,3.9,0.9V69h-18.2v-1.4
			c1.3-0.1,2.4-0.4,3.3-0.8c1.6-0.7,3.1-1.5,4.5-2.6c1.4-1.1,3-2.8,4.8-5.1l12.1-15.3L511.4,29c-2.8-4-5.1-6.6-7-7.9
			c-1.9-1.2-4.1-1.9-6.6-2v-1.4h23.7v1.4c-2,0.1-3.4,0.4-4.1,1c-0.7,0.6-1.1,1.2-1.1,1.9c0,0.9,0.6,2.3,1.8,4.1l7.9,11.8l9.1-11.5
			c1.1-1.4,1.7-2.3,1.9-2.8c0.2-0.5,0.4-1,0.4-1.6s-0.2-1-0.5-1.4c-0.4-0.5-0.9-0.9-1.4-1.1c-0.6-0.2-1.8-0.3-3.6-0.4v-1.4h18.2v1.4
			c-1.4,0.1-2.6,0.3-3.5,0.7c-1.4,0.6-2.6,1.4-3.7,2.3c-1.1,1-2.7,2.8-4.8,5.4L527.8,40.6z"/>
	</g>
</g>
<g id="XMLID_52_">
	<path id="XMLID_56_" class="st0" d="M34,64c7,5.7,13.9,9.3,13.9,9.3l0.2,0.1l0.2-0.1c0,0,7-3.5,13.9-9.3c6.9-5.7,14-13.7,14-22.6
		c0-6.5,0-38.4,0-38.4V2.2l-0.6,0.3c0,0-0.2,0.1-0.7,0.3c-1.4,0.5-5,1.6-10.8,1.6c-3.8,0-7.8-1.1-10.8-2.1c-3-1.1-5-2.1-5-2.1
		L48.1,0l-0.2,0.1c0,0-2,1.1-5,2.1c-3,1.1-7,2.1-10.8,2.1c-3.9,0-6.7-0.5-8.6-0.9c-1-0.2-1.7-0.5-2.1-0.6c-0.5-0.2-0.7-0.3-0.7-0.3
		l-0.6-0.3v39.1C20.1,50.3,27.1,58.3,34,64z M46.3,59.7L46.3,59.7c0.1,0,0.5-0.1,1-0.5c0.2-0.1,0.3-0.3,0.5-0.6
		c0.2,0.2,0.4,0.4,0.6,0.5c0.5,0.3,1,0.4,1.1,0.4l0,0h11.7v-16h1.4v17H48.4l-0.1,0.3c0,0,0,0-0.1,0.1c-0.1,0.3-0.5,0.7-0.8,0.6
		c-0.3,0-0.5-0.1-0.7-0.3c-0.1-0.1-0.1-0.2-0.2-0.2c0-0.1-0.1-0.1-0.1-0.1l-0.1-0.2H33.2v-17h1.2v16H46.3z M36.7,56.9
		c0,0,1.5,0.4,3.2,0.4c0.6,0,1.2-0.1,1.9-0.2c2.1-0.5,4.7-0.7,6-0.7c1.2,0,3.8,0.2,5.9,0.7c0.6,0.2,1.3,0.2,1.9,0.2
		c1.7,0,3.2-0.4,3.2-0.4l0.3-0.1V43.3h1.2v15.4H49.5c0,0-0.1,0-0.2,0c-0.4-0.1-1.1-0.4-1.1-1.5h-0.9c0,0.8-0.3,1.2-0.6,1.5
		c-0.1,0.1-0.3,0.2-0.4,0.2c0,0-0.1,0-0.1,0h-11V43.7h1.2v13.1L36.7,56.9z M37.2,56.1V42.7c0.6,0.1,1.8,0.2,2.9,0.2
		c0.9,0,1.8-0.1,2.6-0.3c1.8-0.5,3.6-0.6,4.5-0.6v13.5c-1.4,0-3.7,0.3-5.7,0.8c-0.5,0.1-1.1,0.2-1.7,0.2c-0.8,0-1.5-0.1-2.1-0.2
		C37.6,56.2,37.4,56.2,37.2,56.1z M48.1,55.5V42c1,0,2.7,0.2,4.5,0.6c0.8,0.2,1.7,0.3,2.6,0.3c1.2,0,2.3-0.1,2.9-0.2v13.4
		c-0.1,0-0.3,0.1-0.6,0.1c-0.6,0.1-1.3,0.2-2.1,0.2c-0.6,0-1.1,0-1.7-0.2C51.9,55.8,49.5,55.5,48.1,55.5z M50.9,70.9
		c-1.4,0.8-2.4,1.3-2.8,1.6c-0.4-0.2-1.4-0.7-2.7-1.5v-9.4h0.5c0.2,0.3,0.7,0.8,1.5,0.9c0.9,0,1.3-0.6,1.6-1h1.9V70.9z M75.4,41.4
		c0,8.5-6.8,16.3-13.7,22c-3.4,2.8-6.9,5.1-9.5,6.7c-0.1,0.1-0.2,0.1-0.3,0.2v-8.9h11.5V42.7h-2.3v-0.3h-2.1v-0.7l-0.5,0.1
		c0,0-1.6,0.2-3.3,0.2c-0.8,0-1.7-0.1-2.4-0.2c-0.3-0.1-0.7-0.2-1-0.2v-1.7h23.5V41.4z M30.9,19.3L30.9,19.3L30.9,19.3L30.9,19.3
		c0.1-1.5,0.8-1.9,1.5-1.9c0.3,0,0.6,0.1,0.8,0.3c0.2,0.2,0.2,0.2,0.2,0.4c0,0.1-0.1,0.4-0.3,0.7c-0.2,0.3-0.4,0.7-0.4,1.2
		c0,0.1,0,0.1,0,0.2c0.1,0.6,0.5,1.1,0.9,1.6c0.4,0.5,0.8,1.1,1.2,2c0.7,1.8,0.3,3,1.1,4c0.5,0.5,1.1,0.6,1.5,0.7
		c0.4,0.2,0.5,0.2,0.6,0.6c0,0.6-0.5,1.2-1.3,1.2c-0.4,0-0.9-0.2-1.4-0.7c-0.7-0.6-1.2-2.9-2-5.1l-0.4,0.2l0.4-0.2
		C32.2,22.3,30.9,20.2,30.9,19.3z M32.7,25.8c-1.5,1.5-3.1,2.1-5.1,2.2c-0.1-0.6-0.3-1.2-0.7-1.6c1.2-1.1,2.5-1.8,3.5-2.2
		c0.5-0.2,0.9-0.3,1.2-0.4c0.1,0,0.2-0.1,0.3-0.1c0.2,0.3,0.3,0.7,0.5,1C32.5,25.1,32.6,25.5,32.7,25.8z M34.4,21.4l4.6-1.9
		c0.7,0.3,1.4,0.7,2,1L35.4,23C35.1,22.3,34.8,21.8,34.4,21.4z M35.7,23.8l6.4-2.9c0.8,0.4,1.6,0.7,2.3,1l-8.3,4
		C36.1,25.4,36,24.7,35.7,23.8z M35.7,16.8c-4.1-2.2-6.9-4.3-8.6-5.9c-0.9-0.8-1.5-1.5-1.9-2.1c-0.3-0.4-0.4-0.7-0.5-0.9
		c1-0.2,2.1-0.3,3.1-0.3c5.6,0,12.2,2.4,18.4,5.1c3.7,1.7,7.4,4.1,10.1,6.2c2.7,2.1,4.5,3.7,4.5,3.7l0,0l9.6,5.5c0,0.1,0,0.2,0,0.3
		c0,0.2,0,0.5-0.1,0.6c-0.1,0-0.3,0-0.5,0c-0.4,0-0.9,0-1.2-0.1c-0.3,0-0.5-0.1-0.6-0.1l-7.6-4.4h-0.1c0,0-0.8,0-4.3-0.2
		C52.7,24.3,45,21.7,35.7,16.8z M69.3,7.2l2,0.2l-0.8,1.8l-15.6,7.6c-0.5-0.3-0.9-0.7-1.4-1l15.9-7.1L69,8l-16.4,7.3
		c-0.4-0.3-0.8-0.5-1.3-0.8L69.3,7.2z M45.4,2.2c1.4-0.6,2.3-1,2.7-1.2c0.4,0.2,1.4,0.7,2.7,1.2v11.5L50.4,14
		c-1.2-0.7-2.5-1.4-3.8-1.9c-0.4-0.2-0.8-0.3-1.2-0.5V2.2z M20.9,3.6c1.4,0.5,5.1,1.7,11.2,1.7c4.5,0,9.1-1.4,12.3-2.6v8.5
		C38.8,8.7,33,6.8,27.8,6.8c-1.2,0-2.4,0.1-3.5,0.3l0,0c-0.3,0-0.5,0.4-0.5,0.7c0,0.5,0.3,0.9,0.7,1.5c1.3,1.8,4.6,4.9,10.8,8.2
		c0.9,0.5,1.8,1,2.7,1.4l-4.2,1.7c-0.2-0.3-0.3-0.5-0.3-0.6c0,0,0,0,0,0c0-0.2,0.1-0.4,0.3-0.7c0.2-0.3,0.4-0.7,0.4-1.2
		c0-0.3-0.1-0.7-0.4-1c-0.4-0.4-0.9-0.6-1.4-0.6c-1.1,0-2.3,0.9-2.4,2.7c0,0.1,0,0.1,0,0.1c0,1,0.7,2.3,1.4,3.7
		c-0.9,0.2-3.2,0.9-5.4,3c-0.3-0.2-0.7-0.3-1.1-0.3c-1.4,0-2.6,1.2-2.6,2.6c0,1.4,1.2,2.6,2.6,2.6c1.2,0,2.2-0.8,2.5-2
		c2.1-0.1,3.9-0.7,5.5-2.2c0.5,1.4,0.8,2.8,1.6,3.5c0.7,0.6,1.4,0.9,2,0.9c1.2,0,2.2-1,2.2-2.1c0-0.9-0.7-1.3-1.2-1.4
		c-0.5-0.1-1-0.2-1.1-0.4c-0.1-0.1-0.1-0.2-0.2-0.3l8.1-3.9v9.5H20.9V3.6z M24.4,7.7L24.4,7.7l0-0.2L24.4,7.7z M26.8,28.3
		c0,1-0.8,1.7-1.7,1.7c-1,0-1.7-0.8-1.7-1.7c0-1,0.8-1.7,1.7-1.7C26,26.6,26.8,27.3,26.8,28.3z M20.9,33.4h24.5v-11l0.2-0.1
		c2,0.8,3.8,1.4,5.3,1.9v9.1h24.5v5.5H50.9v2.5c-1.4-0.2-2.6-0.3-3.2-0.3c-0.5,0-1.3,0-2.3,0.2v-2.4H20.9V33.4z M82.1,63.8
		c-1.1-0.9-4.1-4.5-5-5.5c-0.3-0.3-0.8-0.7-1.4-1.1c0,0,0,0,0,0l0,0c-0.7-0.4-1.5-0.7-2.4-0.7c-0.9,0-1.8,0.3-2.6,1.1
		c-1,0.9-1.4,2-1.4,2.9c0,0.7,0.2,1.4,0.6,1.9l0,0l0.2,0.2c0.1,0.1,0.2,0.2,0.3,0.3l2.1,2.1c-3.5,3.8-10.6,9.2-24.1,9.2
		c-13.6,0-20.6-5.5-24.2-9.3l2-1.8c0.7-0.5,1.2-1.4,1.2-2.5c0-1-0.4-2-1.4-2.9c-0.8-0.8-1.8-1.1-2.6-1.1c-0.9,0-1.8,0.3-2.4,0.7l0,0
		c0,0,0,0,0,0c-0.6,0.4-1.1,0.8-1.4,1.1c-0.9,0.9-3.9,4.5-5,5.5c-0.5,0.4-0.6,1.1-0.6,1.7c0,1.6,0.9,3.5,1.8,4.4
		c1.2,1.1,12.3,13.8,32.7,13.8h0c20.4,0,31.5-12.7,32.7-13.8c0.9-0.9,1.8-2.9,1.8-4.4C82.7,64.9,82.5,64.2,82.1,63.8z M71.2,62.6
		c-0.1,0-0.3-0.1-0.4-0.2l-0.3-0.3c-0.3-0.4-0.6-0.9-0.6-1.5c0-0.7,0.3-1.5,1.2-2.3c0.7-0.6,1.4-0.8,2-0.9c0.6,0,1.3,0.2,1.8,0.5
		c0.1,0.3,0.4,0.8,0.4,1.6c0,0.5-0.1,1-0.3,1.6l-1.2-1.1c-0.1-0.2-0.2-0.3-0.3-0.4c-0.3-0.2-0.6-0.2-0.8-0.2c-0.3,0-0.6,0.1-0.6,0.1
		l-0.1,0l-0.1,0c0,0-0.5,0.3-0.5,1c0,0.2,0.1,0.5,0.2,0.7l0.7-0.5c-0.1-0.1-0.1-0.2-0.1-0.2c0-0.1,0-0.1,0.1-0.2c0,0,0,0,0,0
		c0,0,0,0,0,0c0.1,0,0.2,0,0.3,0c0.1,0,0.3,0,0.3,0.1c0,0,0,0,0,0l-0.1,0.1l0.1,0.1c0,0,0,0,0,0.1c0,0,0,0.1,0,0.1
		c-0.1,1-0.7,1.8-1.5,1.8C71.4,62.6,71.3,62.6,71.2,62.6z M71.9,63.4c1.1-0.2,1.7-1.1,2-2.1l0.8,0.7c-0.2,0.4-0.5,0.7-0.8,1.1
		c-0.3,0.4-0.6,0.8-1,1.2L71.9,63.4z M23.4,64.3c-0.4-0.4-0.7-0.8-1-1.1c-0.3-0.4-0.6-0.8-0.8-1.2l0.8-0.8c0.2,1,0.8,2,1.9,2.3
		L23.4,64.3z M21.2,58.2c0-0.1,0.1-0.2,0.1-0.3c0.6-0.3,1.2-0.5,1.8-0.5c0.7,0,1.3,0.2,2,0.9c0.9,0.8,1.2,1.6,1.2,2.3
		c0,0.6-0.2,1.2-0.6,1.5l-0.3,0.3c-0.1,0.1-0.2,0.1-0.4,0.2c-0.1,0-0.2,0-0.3,0c-0.8,0-1.4-0.8-1.5-1.8c0-0.1,0-0.1,0-0.1
		c0-0.2,0-0.2,0.1-0.3c0,0,0.2-0.1,0.3-0.1c0.1,0,0.2,0,0.3,0c0,0,0,0,0.1,0c0,0,0,0,0,0c0,0,0,0,0,0c0,0,0,0-0.1,0.1l0.6,0.6
		c0.2-0.2,0.4-0.5,0.4-0.8c0-0.6-0.5-0.8-0.5-0.8l-0.1,0l-0.1,0c0,0-0.3-0.1-0.6-0.1c-0.2,0-0.5,0-0.8,0.2c-0.1,0-0.1,0.1-0.2,0.2
		l0,0l-1.4,1.3C21.1,60.5,21,60,21,59.6C21,59,21.1,58.5,21.2,58.2z M80.3,69.3c-1.2,1.2-12,13.5-32.1,13.6
		c-20.1,0-30.9-12.4-32.1-13.6c-0.7-0.7-1.6-2.6-1.5-3.8c0-0.5,0.1-0.9,0.3-1c1.2-1.1,4.2-4.7,5.1-5.5c0.1-0.1,0.2-0.1,0.3-0.2
		c0,0.2-0.1,0.5-0.1,0.8c0,1.1,0.4,2.6,1.7,4.1c2.8,3.5,10.1,11.4,26.4,11.4h0c16.2,0,23.5-7.9,26.3-11.4c1.3-1.6,1.7-3,1.7-4.1
		c0-0.3,0-0.6-0.1-0.8c0.1,0.1,0.2,0.2,0.3,0.2c0.9,0.8,3.8,4.4,5.1,5.5c0.2,0.2,0.3,0.5,0.3,1C81.8,66.7,81,68.6,80.3,69.3z
		 M21.9,70.9c0,0,0.1-0.1,0.1-0.1c0,0-0.1-0.1-0.1-0.1c0,0-0.1-0.1-0.1-0.1c-0.2,0.1-0.5,0.2-0.7,0.2c-0.2,0-0.3,0-0.4-0.1
		c-0.2-0.1-0.4-0.3-0.6-0.5c-0.3-0.3-0.5-0.5-0.5-0.6c0-0.1,0-0.1,0.1-0.2l0.5-0.5c0.1-0.1,0.3-0.3,0.4-0.5c0,0,0,0,0.1-0.1
		c0.1,0.1,0.3,0.3,0.5,0.5c0.2,0.2,0.3,0.3,0.3,0.4c0,0.1,0,0.1,0,0.2c0,0.1-0.1,0.2-0.2,0.3c-0.1,0.1-0.1,0.2-0.1,0.2l0.2,0.2l0,0
		c0,0,0.1-0.1,0.2-0.2c0.1-0.1,0.1-0.2,0.2-0.2c0,0,0.1-0.1,0.1-0.1c0,0,0.1-0.1,0.3-0.3c0.1-0.1,0.2-0.2,0.3-0.3l-0.1-0.1l0,0
		C22.1,68.9,22,69,21.9,69c-0.1,0-0.1,0-0.2,0c0,0-0.1-0.1-0.3-0.2c-0.1-0.1-0.3-0.3-0.6-0.6c0,0-0.1-0.1-0.1-0.1l0.3-0.3l0.4-0.4
		c0.3-0.3,0.4-0.4,0.4-0.4c0.2,0.1,0.3,0.3,0.5,0.5c0.2,0.2,0.3,0.3,0.4,0.5c0.1,0.1,0.1,0.1,0.1,0.2c0.1,0.1,0.1,0.1,0.1,0.2
		c0,0.1,0,0.3-0.1,0.4L23,68.9c0,0.1-0.1,0.1-0.1,0.2c0,0,0.1,0.1,0.1,0.1l0.1,0.1c0,0,0,0,0,0l0.1-0.1l0.5-0.5
		c0.1-0.1,0.1-0.1,0.1-0.2c-0.2-0.2-0.3-0.4-0.4-0.4L23,67.7c-0.3-0.3-0.6-0.6-0.9-0.9c-0.2-0.2-0.4-0.4-0.4-0.4
		c-0.1-0.1-0.2-0.2-0.2-0.2l0,0c0-0.1-0.1-0.1-0.2-0.2c-0.1-0.1-0.2-0.2-0.3-0.4c-0.1-0.1-0.2-0.3-0.3-0.4c-0.1-0.2-0.2-0.3-0.2-0.3
		c-0.1,0-0.1,0.1-0.1,0.1c0,0,0,0-0.1,0.1c0,0,0,0.1,0.1,0.1c0,0,0,0.1,0.1,0.1c0.1,0.1,0.1,0.2,0.1,0.3c0,0.1,0,0.1,0,0.1
		c-0.1,0-0.1,0.1-0.2,0.1c-0.1,0-0.2,0.1-0.4,0.1c-0.1,0-0.1,0-0.1,0l-0.2,0.1l-1.1,0.3l-0.5,0.1c0.1-0.1,0.2-0.3,0.2-0.4l0.4-0.8
		c0.2-0.4,0.4-0.6,0.5-0.8l0.2-0.2c0,0,0,0,0.1,0c0,0,0.1,0,0.1,0c0.1,0,0.1,0,0.2,0.1c0,0,0.1,0.1,0.3,0.3c0,0,0.1-0.1,0.2-0.2
		L19.9,64c-0.1,0-0.1-0.1-0.2-0.2c-0.1-0.2-0.2-0.3-0.2-0.3c-0.3-0.4-0.4-0.6-0.6-0.9c0,0-0.1-0.1-0.1-0.2l-0.2,0.2l0.1,0.1
		c0.1,0.1,0.1,0.2,0.1,0.3c0,0.1,0,0.1,0,0.2c0,0-0.1,0.2-0.3,0.6l-0.5,0.8l-0.7,1.3c-0.2,0.4-0.4,0.6-0.4,0.6
		c0,0.1-0.1,0.1-0.1,0.2c0,0.1,0.1,0.1,0.1,0.1c0,0,0,0.1,0.1,0.1c0.1,0,0.3-0.1,0.6-0.2l0.1,0c0.2-0.1,0.4-0.1,0.4-0.1
		c0.1,0,0.3-0.1,0.4-0.1c0.1,0,0.2-0.1,0.3-0.1l1.1-0.3c0.4-0.1,0.8-0.2,0.9-0.2c0.1,0,0.1,0,0.1,0c0,0,0.1,0.1,0.3,0.1
		c0,0,0.1,0.1,0.1,0.1c0,0,0,0.1,0.1,0.1c0,0,0,0.1,0,0.1c0,0,0,0,0,0l-0.3,0.3L20.7,67l-0.3,0.4l-0.3,0.3l-0.8,0.9l-0.1,0.1
		c-0.1,0.1-0.1,0.1-0.1,0.1c-0.1,0.1-0.1,0.1-0.2,0.1c-0.1,0-0.2-0.1-0.4-0.3c-0.1-0.1-0.2-0.1-0.2-0.2l-0.2,0.2l0.3,0.3l0.1,0.1
		c0.3,0.3,0.5,0.5,0.7,0.7c0.4,0.4,0.7,0.7,0.9,1c0.4,0.4,0.6,0.6,0.7,0.7c0.1,0.1,0.1,0.1,0.2,0.2l0.3-0.2L21.9,70.9L21.9,70.9z
		 M24.9,74c0-0.1,0-0.2,0-0.5l0.1-1c0-0.1,0-0.2,0-0.4c0-0.1,0-0.1,0-0.2c0.3,0.1,0.5,0.1,0.8,0.1c0.2-0.1,0.4-0.2,0.5-0.3
		c0.2-0.2,0.2-0.5,0.1-0.8c-0.1-0.3-0.3-0.6-0.6-0.9c-0.2-0.2-0.4-0.3-0.7-0.4l-0.3-0.2l-0.1-0.1c0,0-0.1-0.1-0.2-0.2
		c-0.1-0.1-0.2-0.1-0.2-0.2c-0.1-0.1-0.2-0.1-0.3-0.2l0,0l-0.1,0.2c0,0,0.1,0.1,0.3,0.2l0.1,0.1c-0.1,0.1-0.2,0.3-0.5,0.7
		c-0.1,0.2-0.3,0.3-0.4,0.5l-0.1,0.1l-0.2,0.2l-0.2,0.3l-0.4,0.6c-0.1,0.1-0.2,0.2-0.2,0.2c0,0,0,0-0.1,0.1c-0.1,0-0.2-0.1-0.3-0.1
		c-0.1-0.1-0.2-0.1-0.2-0.1c0,0-0.1,0.1-0.1,0.1c0,0,0,0-0.1,0.1l0.1,0.1c0.1,0.1,0.2,0.1,0.3,0.2l0.4,0.2c0,0,0.1,0,0.1,0.1
		c0.1,0,0.3,0.2,0.6,0.5l0.1,0.1c0,0,0,0,0.1,0c0,0,0.1-0.1,0.1-0.2c-0.1-0.1-0.2-0.2-0.3-0.4C23,72.6,23,72.6,23,72.5l0.4-0.5
		l0.4-0.6c0.1-0.1,0.1-0.1,0.1-0.2c0.1,0.1,0.1,0.1,0.2,0.1c0.1,0.1,0.2,0.2,0.2,0.3c0,0,0,0.2,0,0.4c-0.1,0.5-0.1,0.9-0.2,1.1
		c0,0.1,0,0.2-0.1,0.4l0,0.2c0,0,0.1,0,0.1,0.1c0.1,0.1,0.2,0.1,0.2,0.1l0.3,0.2c0.1,0.1,0.1,0.1,0.2,0.2l0.1,0.1l0.1,0.1l0.1,0
		l0.1,0.1c0,0,0,0,0-0.1c0,0,0-0.1,0-0.1c0-0.1-0.1-0.1-0.1-0.2C25,74.1,25,74.1,24.9,74z M24.2,71.2c0,0-0.1-0.1-0.2-0.1l0.1-0.1
		c0.1-0.1,0.2-0.2,0.2-0.3l0.2-0.3l0.2-0.2l0.3-0.3l0,0c0.1,0,0.1,0.1,0.2,0.1c0.2,0.1,0.3,0.2,0.3,0.3c0.1,0.1,0.1,0.2,0.1,0.3
		c0,0.1,0,0.2,0,0.3c0,0.1-0.1,0.2-0.2,0.3c-0.1,0.2-0.3,0.3-0.5,0.3C24.8,71.5,24.5,71.4,24.2,71.2z M29.3,75.5
		c0.1-0.2,0.1-0.4,0.1-0.7c-0.1-0.2-0.2-0.5-0.5-0.7c0.2,0,0.4,0,0.5,0c0.1,0,0.3-0.1,0.4-0.1c0.1-0.1,0.2-0.1,0.2-0.3
		c0.1-0.1,0.1-0.2,0.1-0.3c0-0.1,0-0.2,0-0.3c0-0.1-0.1-0.2-0.1-0.3c-0.1-0.1-0.1-0.2-0.2-0.2c-0.1-0.1-0.3-0.2-0.4-0.3l-0.2-0.1
		c-0.1,0-0.1-0.1-0.1-0.1c0,0,0,0-0.1,0L28.8,72l-0.9-0.5l-0.6-0.3l-0.1,0.2c0.1,0.1,0.2,0.2,0.3,0.2c0.1,0,0.1,0.1,0.1,0.1
		c0,0,0,0,0,0c0,0,0,0.1-0.1,0.3c-0.3,0.5-0.4,0.8-0.5,1l-0.7,1.2c-0.1,0.2-0.2,0.3-0.3,0.4c0,0-0.1,0.1-0.1,0.1
		c-0.1,0-0.2,0-0.3-0.1c-0.1,0-0.1,0-0.2-0.1l-0.1,0.2c0.4,0.2,0.6,0.3,0.7,0.3c0.3,0.1,0.5,0.3,0.7,0.4l0.5,0.3
		c0.2,0.1,0.4,0.2,0.5,0.2c0.2,0.1,0.4,0.1,0.6,0.1c0.2,0,0.3,0,0.5-0.1c0.1,0,0.2-0.1,0.3-0.2C29.1,75.7,29.2,75.6,29.3,75.5z
		 M28.4,75.1c-0.1,0.2-0.2,0.3-0.3,0.4c-0.1,0.1-0.3,0.1-0.4,0.1c-0.2,0-0.4-0.1-0.6-0.2c-0.1-0.1-0.2-0.1-0.3-0.3c0,0,0-0.1,0-0.1
		l0.3-0.6l0.2-0.4l0.2-0.3c0.1,0,0.1,0,0.3,0.1c0.3,0.1,0.5,0.3,0.6,0.4c0.1,0.1,0.2,0.3,0.2,0.5C28.6,74.8,28.5,74.9,28.4,75.1z
		 M28,73.5c-0.1-0.1-0.2-0.1-0.3-0.2c0-0.1,0.1-0.1,0.1-0.2l0.1-0.2c0.2-0.3,0.3-0.5,0.4-0.7c0-0.1,0.1-0.1,0.1-0.2
		c0.1,0.1,0.3,0.1,0.3,0.1c0.3,0.2,0.5,0.3,0.5,0.5c0.1,0.2,0.1,0.4,0,0.6c-0.1,0.3-0.3,0.4-0.5,0.4C28.5,73.7,28.3,73.7,28,73.5z
		 M32.7,77.9c0,0,0-0.1,0-0.2c0-0.2,0-0.3,0-0.4c0-0.2,0-0.4,0-0.5c0-0.2,0-0.4,0-0.7c0-0.3,0-0.6,0-0.9l0-1.4l0-0.1l-0.1-0.1
		c-0.1,0-0.1-0.1-0.2-0.1l-1.5,1.5l-1.2,1.3c-0.1,0.1-0.1,0.1-0.2,0.1c0,0-0.1,0-0.3,0c-0.1,0-0.2,0-0.2,0l-0.1,0.2l0.1,0
		c0.1,0.1,0.3,0.1,0.4,0.1l0.1,0c0.5,0.2,0.7,0.4,0.9,0.4c0,0,0,0,0-0.1c0,0,0-0.1,0.1-0.1C30.3,77,30.2,77,30.2,77
		c-0.1-0.1-0.2-0.1-0.2-0.2c0,0,0-0.1,0-0.1c0,0,0.1-0.1,0.1-0.2c0.3-0.3,0.5-0.5,0.5-0.6l1.1,0.5V77v0.3c0,0,0,0.1,0,0.1
		c0,0,0,0-0.1,0.1c0,0-0.1,0-0.2,0l-0.4-0.1c0,0.1-0.1,0.1-0.1,0.2l0.1,0.1l0.5,0.2c0.1,0,0.2,0.1,0.3,0.1c0.1,0.1,0.3,0.1,0.5,0.2
		c0.2,0.1,0.3,0.2,0.5,0.2c0,0,0,0,0-0.1c0,0,0-0.1,0-0.1C33,78.1,33,78.1,32.9,78C32.8,78,32.8,78,32.7,77.9z M31.8,76L31.8,76
		c-0.2-0.1-0.4-0.2-0.9-0.4l0.9-1c0,0.1,0,0.4,0,0.6C31.8,75.6,31.8,75.8,31.8,76z M40.6,76.3l0-0.2c0,0-0.1,0-0.1,0L39.8,76
		l-0.6-0.1l-0.1,0l0,0.2c0.1,0,0.1,0.1,0.2,0.1c0.2,0.1,0.2,0.1,0.3,0.2c0,0,0,0.1,0,0.3c0,0,0,0.2-0.1,0.5c0,0.1,0,0.3-0.1,0.5
		c0,0.2-0.1,0.3-0.1,0.4c0,0.1,0,0.3-0.1,0.5l-0.1,0.4l0,0.1c-1-1.5-1.6-2.4-1.7-2.7c-0.2-0.3-0.4-0.6-0.6-0.9c0,0-0.1,0-0.1,0
		c0,0-0.1,0-0.2,0c-0.1,0-0.2,0-0.2,0c0,0,0,0-0.1,0c-0.1,0-0.2-0.1-0.2-0.1c0,0-0.1,0-0.3,0l-0.1,0L35.4,75l0,0.2
		c0.2,0.1,0.4,0.1,0.4,0.2c0.1,0.1,0.2,0.1,0.2,0.2c0,0,0,0.1,0,0.1c0,0.1,0,0.3-0.1,0.5l-0.1,0.6l-0.2,1l0,0.2
		c0,0.1-0.1,0.3-0.2,0.6c0,0.1-0.1,0.2-0.1,0.2c0,0-0.1,0-0.3,0c-0.1,0-0.1,0-0.1,0c0,0-0.1,0-0.1,0c0,0,0,0.1,0,0.1
		c0,0,0,0.1,0,0.1c0,0,0.1,0,0.1,0c0,0,0.1,0,0.2,0c0.1,0,0.3,0.1,0.7,0.1c0.3,0.1,0.6,0.2,0.6,0.2l0.1,0l0-0.3c0,0-0.1,0-0.1,0
		c-0.3-0.1-0.4-0.1-0.5-0.2c0,0,0-0.1,0-0.1c0,0,0-0.1,0-0.1c0-0.2,0.1-0.4,0.1-0.6l0.1-0.4l0.1-0.2c0-0.1,0-0.1,0-0.2l0.2-1.2
		l0.4,0.6c0.2,0.2,0.4,0.5,0.5,0.8l0.3,0.5l0.4,0.6l0.6,0.9l0.3,0.5l0.4,0.1l0-0.2c0,0,0-0.1,0-0.2l0-0.2l0-0.2l0.1-0.4
		c0,0,0-0.1,0-0.2l0.2-1.1c0-0.1,0-0.1,0-0.2c0-0.2,0.1-0.4,0.1-0.7c0-0.1,0.1-0.2,0.1-0.3c0-0.1,0-0.1,0-0.1c0-0.1,0-0.1,0.1-0.1
		c0,0,0.1,0,0.2-0.1c0,0,0.1,0,0.2,0C40.5,76.4,40.6,76.4,40.6,76.3z M44.1,76.7c-0.3-0.2-0.7-0.3-1.1-0.4c-0.3,0-0.5,0-0.7,0
		c-0.2,0-0.4,0.1-0.7,0.2c-0.2,0.1-0.4,0.2-0.6,0.4c-0.2,0.1-0.3,0.3-0.4,0.5c-0.1,0.3-0.2,0.5-0.2,0.8c0,0.2,0,0.4,0,0.6
		c0,0.3,0.1,0.4,0.1,0.5c0.1,0.2,0.2,0.4,0.3,0.5c0.1,0.1,0.3,0.3,0.5,0.5c0,0,0.1,0.1,0.3,0.1c0.1,0,0.2,0.1,0.3,0.1
		c0.2,0,0.3,0.1,0.5,0.1c0.7,0.1,1.3-0.1,1.8-0.4c0.5-0.4,0.7-0.9,0.8-1.5c0-0.4,0-0.8-0.2-1.2C44.7,77.1,44.5,76.9,44.1,76.7z
		 M44,78.7c0,0.4-0.1,0.7-0.3,1c-0.1,0.2-0.3,0.4-0.5,0.5c-0.2,0.1-0.4,0.1-0.7,0.1c-0.1,0-0.2,0-0.4-0.1c-0.1-0.1-0.2-0.1-0.3-0.2
		c-0.1-0.1-0.2-0.2-0.2-0.4c0-0.1-0.1-0.2-0.1-0.5c0-0.1,0-0.2,0-0.3c0-0.1,0-0.1,0-0.1c0-0.1,0-0.2,0-0.4c0-0.3,0.1-0.5,0.2-0.7
		c0.1-0.2,0.2-0.4,0.3-0.5c0.1-0.1,0.2-0.2,0.4-0.2c0.2-0.1,0.3-0.1,0.5-0.1c0.3,0,0.6,0.2,0.8,0.4c0.2,0.2,0.3,0.5,0.4,0.8
		c0,0.1,0,0.1,0,0.1l0,0.1C44.1,78.3,44,78.5,44,78.7z M50.5,76.7l-0.7,0l-0.6,0l-0.1,0l0,0.2c0.1,0,0.1,0.1,0.3,0.1
		c0.2,0,0.3,0.1,0.3,0.1c0,0,0,0.1,0,0.3c0,0,0,0.2,0,0.5c0,0.1,0,0.3,0,0.5c0,0.2,0,0.3,0,0.5c0,0.1,0,0.3,0,0.5l0,0.4l0,0.1
		c-1.3-1.3-2.1-2.1-2.3-2.3c-0.2-0.2-0.5-0.5-0.8-0.8c0,0-0.1,0-0.1,0c0,0-0.1,0-0.2,0c-0.1,0-0.2,0-0.2,0c0,0,0,0-0.1,0
		c-0.1,0-0.2,0-0.2,0c0,0-0.1,0-0.3,0h-0.1l-0.3,0l0,0.2c0.2,0,0.4,0.1,0.4,0.1c0.1,0,0.2,0.1,0.3,0.2c0,0,0.1,0.1,0.1,0.1
		c0,0.1,0,0.3,0,0.5l0,0.6l0,1l0,0.2c0,0.1,0,0.3,0,0.6c0,0.1,0,0.2-0.1,0.2c0,0-0.1,0-0.3,0c-0.1,0-0.1,0-0.1,0c0,0-0.1,0-0.1,0
		c0,0,0,0.1,0,0.1c0,0,0,0.1,0,0.1c0,0,0.1,0,0.1,0c0,0,0.1,0,0.2,0c0.1,0,0.3,0,0.7,0c0.4,0,0.6,0.1,0.7,0.1h0.1l0-0.3
		c0,0-0.1,0-0.1,0c-0.3,0-0.5,0-0.6-0.1c0,0,0-0.1,0-0.1c0,0,0-0.1,0-0.1c0-0.2,0-0.4,0-0.6l0-0.4l0-0.2c0-0.1,0-0.1,0-0.2l0-1.2
		l0.5,0.5c0.2,0.2,0.4,0.4,0.7,0.7l0.4,0.4l0.5,0.5l0.8,0.8l0.4,0.4l0.4,0l0-0.2c0,0,0-0.1,0-0.2l0-0.2l0-0.2l0-0.4c0,0,0-0.1,0-0.2
		l0-1.1c0-0.1,0-0.1,0-0.2c0-0.2,0-0.4,0-0.7c0-0.1,0-0.2,0-0.3c0-0.1,0-0.1,0-0.1c0-0.1,0-0.1,0-0.1c0,0,0.1,0,0.2-0.1
		c0,0,0.1,0,0.2-0.1c0.1,0,0.1,0,0.2-0.1v-0.2C50.6,76.7,50.5,76.7,50.5,76.7z M60.9,78.1L60.9,78.1c0-0.1,0-0.2,0-0.2
		c0,0-0.1,0-0.1,0c0,0-0.1,0-0.2,0c0,0.3-0.1,0.5-0.2,0.7c-0.1,0.1-0.2,0.2-0.3,0.3c-0.2,0.1-0.4,0.2-0.7,0.2
		c-0.4,0.1-0.7,0.1-0.8,0.1c-0.1,0-0.1-0.1-0.1-0.1l-0.2-0.7c0-0.2-0.1-0.4-0.2-0.6c0,0,0-0.1,0-0.1c0.2-0.1,0.4-0.1,0.7-0.2
		c0.3-0.1,0.4-0.1,0.5-0.1c0.1,0,0.1,0,0.1,0.1c0,0,0.1,0.1,0.2,0.3c0,0.1,0.1,0.2,0.1,0.2l0.2-0.1l0-0.1c0-0.1,0-0.1-0.1-0.3
		c0-0.1-0.1-0.2-0.1-0.3c0,0,0-0.1,0-0.1c0-0.1,0-0.2-0.1-0.4c0-0.1-0.1-0.2-0.1-0.4l-0.2,0l0,0c0,0.3,0,0.4,0,0.5
		c0,0.1,0,0.1-0.1,0.2c0,0-0.1,0.1-0.3,0.1c-0.2,0.1-0.4,0.1-0.8,0.2c0,0-0.1,0-0.1,0l-0.1-0.4l-0.1-0.5c-0.1-0.4-0.1-0.6-0.1-0.6
		c0.2-0.1,0.4-0.1,0.7-0.2c0.2-0.1,0.4-0.1,0.6-0.1c0.1,0,0.2,0,0.2,0c0.1,0,0.1,0,0.2,0c0.1,0.1,0.2,0.2,0.3,0.2l0.2,0.2
		c0.1,0.1,0.1,0.1,0.1,0.2c0.1,0,0.1,0,0.1,0l0.1,0c0,0,0,0,0-0.1l0-0.1L60,75.3c0-0.1-0.1-0.1-0.1-0.2c-0.3,0-0.5,0.1-0.6,0.1
		l-0.6,0.1c-0.4,0.1-0.8,0.2-1.3,0.3c-0.3,0.1-0.5,0.1-0.6,0.2C56.7,76,56.5,76,56.3,76l0,0c-0.1,0-0.2,0-0.3,0.1
		c-0.1,0-0.3,0.1-0.5,0.1c-0.2,0-0.4,0-0.5,0c-0.2,0-0.3,0-0.3,0c0,0.1,0,0.1,0,0.1c0,0,0,0.1,0,0.1c0,0,0.1,0,0.1,0
		c0.1,0,0.1,0,0.1,0c0.1,0,0.2,0,0.3,0c0,0,0.1,0.1,0.1,0.1c0,0.1,0,0.1,0,0.2c0,0.1-0.1,0.3-0.1,0.4c0,0.1,0,0.1,0,0.1l-0.1,0.2
		l-0.2,1.1l-0.1,0.5c-0.1-0.1-0.2-0.3-0.2-0.4L54.1,78c-0.2-0.3-0.4-0.6-0.5-0.8l-0.1-0.3c0,0,0,0,0-0.1c0,0,0-0.1,0-0.1
		c0,0,0.1-0.1,0.2-0.1c0,0,0.2,0,0.4-0.1c0,0,0-0.1,0-0.3l-0.2,0c-0.1,0-0.2,0-0.3,0.1c-0.2,0-0.3,0.1-0.4,0.1
		c-0.4,0.1-0.8,0.1-1,0.1c0,0-0.1,0-0.2,0l0,0.3H52c0.1,0,0.2,0,0.3,0c0,0,0.1,0,0.1,0.1c0,0,0.2,0.2,0.4,0.6l0.5,0.8l0.8,1.3
		c0.2,0.4,0.3,0.6,0.4,0.6c0,0.1,0.1,0.1,0.1,0.2c0.1,0,0.1,0,0.2,0c0,0,0.1,0,0.2,0c0-0.1,0.1-0.3,0.1-0.6l0-0.1
		c0.1-0.2,0.1-0.4,0.1-0.4c0-0.1,0.1-0.3,0.1-0.4c0-0.1,0.1-0.2,0.1-0.3l0.3-1.1c0.1-0.5,0.2-0.8,0.3-0.9c0-0.1,0-0.1,0.1-0.1
		c0,0,0.1-0.1,0.2-0.1c0,0,0,0,0,0c0.1,0,0.2,0,0.4,0c0,0,0.1,0,0.1,0c0,0,0.1,0,0.1,0c0,0,0,0,0,0.1l0.1,0.4l0.1,0.3l0.1,0.5
		l0.1,0.3l0.3,1.2l0,0.1c0,0.1,0,0.1,0,0.2c0,0.1,0,0.2,0,0.2c-0.1,0.1-0.2,0.1-0.4,0.2c-0.1,0-0.2,0.1-0.2,0.1l0.1,0.2l0.4-0.1
		l0.1,0c0.4-0.1,0.7-0.2,0.9-0.3c0.5-0.1,0.9-0.2,1.3-0.3c0.5-0.1,0.8-0.2,0.9-0.2c0.1,0,0.2,0,0.3-0.1l0-0.4L60.9,78.1z M65.7,77.2
		c-0.1,0-0.1,0-0.2,0c-0.1,0-0.2,0-0.3,0c-0.1,0-0.2-0.1-0.4-0.3L64,76.3c-0.1-0.1-0.2-0.1-0.3-0.2c-0.1,0-0.1-0.1-0.2-0.1
		c0.2-0.2,0.4-0.4,0.5-0.6c0.1-0.2,0.1-0.4,0-0.6c-0.1-0.3-0.3-0.5-0.6-0.6c-0.3-0.1-0.7-0.1-1.1,0.1c-0.3,0.1-0.5,0.2-0.7,0.3
		l-0.4,0.2l-0.2,0.1c0,0-0.1,0-0.2,0.1c-0.1,0.1-0.2,0.1-0.3,0.1c-0.1,0-0.2,0.1-0.3,0.1l0,0l0.1,0.2c0.1,0,0.2,0,0.3-0.1l0.2,0
		c0.1,0.1,0.2,0.4,0.3,0.8c0.1,0.2,0.1,0.4,0.2,0.6l0.1,0.2l0.1,0.3l0.1,0.4l0.2,0.7c0.1,0.2,0.1,0.3,0.1,0.3c0,0,0,0,0,0.1
		c-0.1,0.1-0.2,0.1-0.3,0.2c-0.1,0.1-0.2,0.1-0.2,0.1c0,0,0,0.1,0,0.1c0,0,0,0,0,0.1l0.1,0c0.1,0,0.2-0.1,0.3-0.1l0.4-0.2
		c0,0,0.1,0,0.1,0c0.1,0,0.3-0.1,0.8-0.2l0.1-0.1c0,0,0,0,0.1,0c0-0.1,0-0.1-0.1-0.2c-0.1,0-0.3,0-0.4,0c-0.1,0-0.2,0-0.3,0
		l-0.2-0.6l-0.3-0.7c0-0.1-0.1-0.1-0.1-0.2c0.1,0,0.2-0.1,0.2-0.1c0.1-0.1,0.3-0.1,0.3,0c0.1,0,0.2,0.1,0.3,0.3
		c0.4,0.3,0.6,0.6,0.8,0.8c0.1,0.1,0.2,0.1,0.3,0.3l0.2,0.2c0,0,0.1,0,0.1-0.1c0.1-0.1,0.2-0.1,0.2-0.1l0.3-0.1
		c0.1,0,0.2-0.1,0.2-0.1l0.1,0l0.2,0l0.1,0l0.1,0C65.8,77.4,65.8,77.3,65.7,77.2C65.7,77.3,65.7,77.3,65.7,77.2z M63.1,75.8
		c-0.1,0.2-0.3,0.3-0.7,0.4c0,0-0.1,0-0.2,0.1l0-0.1c-0.1-0.1-0.1-0.3-0.1-0.4l-0.1-0.3l-0.1-0.2l-0.2-0.4l0-0.1
		c0.1,0,0.1-0.1,0.2-0.1c0.2-0.1,0.3-0.1,0.4-0.1c0.1,0,0.3,0,0.4,0.1c0.1,0,0.1,0.1,0.2,0.2c0.1,0.1,0.1,0.2,0.2,0.3
		C63.2,75.4,63.2,75.6,63.1,75.8z M68.9,74.4c-0.1-0.2-0.3-0.4-0.5-0.5c-0.2-0.1-0.5-0.1-0.8,0c0.2-0.2,0.2-0.3,0.3-0.4
		c0.1-0.1,0.1-0.3,0.1-0.4c0-0.1,0-0.2-0.1-0.3c-0.1-0.1-0.1-0.2-0.2-0.3c-0.1-0.1-0.2-0.1-0.3-0.2c-0.1,0-0.2-0.1-0.3-0.1
		c-0.1,0-0.2,0-0.3,0c-0.2,0-0.4,0.1-0.5,0.2L66,72.6c-0.1,0-0.1,0.1-0.2,0.1c0,0,0,0-0.1,0l-0.1,0.1l-0.9,0.5l-0.6,0.3l0.1,0.2
		c0.2-0.1,0.3-0.1,0.3-0.1c0.1,0,0.2-0.1,0.2,0c0,0,0,0,0,0c0,0,0.1,0.1,0.2,0.2c0.3,0.5,0.4,0.8,0.5,1l0.6,1.2
		c0.1,0.2,0.2,0.4,0.2,0.5c0,0,0,0.1,0,0.2c-0.1,0.1-0.1,0.1-0.3,0.2c-0.1,0-0.1,0.1-0.2,0.1l0.1,0.2c0.4-0.2,0.6-0.3,0.7-0.4
		c0.3-0.2,0.5-0.3,0.7-0.4l0.5-0.2c0.2-0.1,0.4-0.2,0.5-0.3c0.2-0.1,0.3-0.3,0.4-0.4c0.1-0.1,0.2-0.3,0.2-0.4c0-0.1,0.1-0.2,0-0.4
		C69,74.7,68.9,74.5,68.9,74.4z M66.2,74.5c0-0.1-0.1-0.1-0.1-0.2L66,74.1c-0.1-0.3-0.3-0.5-0.4-0.7c0-0.1-0.1-0.1-0.1-0.2
		c0.1-0.1,0.2-0.2,0.3-0.2c0.3-0.1,0.5-0.2,0.7-0.1c0.2,0,0.3,0.2,0.4,0.3c0.1,0.3,0.1,0.5,0.1,0.7c-0.1,0.2-0.3,0.3-0.6,0.5
		C66.4,74.4,66.3,74.5,66.2,74.5z M68,75.8c-0.1,0.1-0.3,0.3-0.5,0.4c-0.1,0.1-0.2,0.1-0.4,0.1c0,0-0.1-0.1-0.1-0.1l-0.3-0.6
		l-0.2-0.4l-0.2-0.3c0,0,0.1-0.1,0.2-0.2c0.3-0.1,0.5-0.2,0.7-0.2c0.2,0,0.3,0,0.5,0.1c0.1,0.1,0.2,0.2,0.3,0.4
		c0.1,0.2,0.1,0.3,0.1,0.5C68.2,75.5,68.1,75.7,68,75.8z M72.9,72.2L72.9,72.2C72.8,72,72.8,72,72.8,72c0,0-0.1,0-0.1,0.1
		c0,0-0.1,0.1-0.1,0.1c0.1,0.3,0.1,0.5,0,0.7c0,0.2-0.1,0.3-0.2,0.4c-0.1,0.2-0.4,0.3-0.6,0.5c-0.4,0.3-0.6,0.4-0.7,0.4
		c-0.1,0-0.1,0-0.2-0.1l-0.4-0.6c-0.1-0.1-0.2-0.3-0.4-0.5c0,0,0,0-0.1-0.1c0.1-0.1,0.3-0.2,0.6-0.4c0.2-0.2,0.4-0.2,0.4-0.2
		c0.1,0,0.1,0,0.2,0c0.1,0,0.2,0.1,0.3,0.2c0.1,0.1,0.1,0.1,0.2,0.1l0.2-0.1l0-0.1c0,0-0.1-0.1-0.2-0.2c-0.1-0.1-0.1-0.2-0.2-0.2
		c0,0,0-0.1-0.1-0.1c0-0.1-0.1-0.2-0.2-0.4c-0.1-0.1-0.1-0.2-0.2-0.3l-0.2,0.1l0,0c0.1,0.3,0.2,0.4,0.2,0.4c0,0.1,0,0.1,0,0.2
		c0,0-0.1,0.1-0.2,0.2c-0.1,0.1-0.4,0.3-0.7,0.5c0,0-0.1,0-0.1,0.1l-0.2-0.3l-0.3-0.4c-0.2-0.3-0.3-0.5-0.3-0.5
		c0.2-0.1,0.4-0.3,0.6-0.4c0.2-0.1,0.4-0.2,0.6-0.3c0.1-0.1,0.2-0.1,0.2-0.1c0.1,0,0.1-0.1,0.2-0.1c0.1,0,0.2,0.1,0.3,0.1l0.2,0.1
		c0.1,0,0.1,0.1,0.2,0.1c0,0,0.1,0,0.1-0.1l0.1-0.1c0,0,0,0,0,0l-0.1-0.1L71,69.9c0-0.1-0.1-0.1-0.1-0.1c-0.2,0.1-0.4,0.2-0.5,0.3
		l-0.5,0.3c-0.3,0.2-0.7,0.5-1.1,0.7c-0.3,0.2-0.4,0.3-0.5,0.3c-0.2,0.1-0.4,0.2-0.5,0.3c-0.1,0-0.2,0.1-0.3,0.2l0.1,0.2
		c0,0,0.1,0,0.1-0.1c0.1-0.1,0.2-0.1,0.3-0.2c0,0,0.1,0,0.1,0c0,0,0.1,0,0.1,0c0,0,0,0,0,0.1l0.2,0.3l0.2,0.3l0.3,0.4l0.2,0.3l0.7,1
		l0,0.1c0.1,0.1,0.1,0.1,0.1,0.2c0,0.1,0.1,0.2,0.1,0.2c0,0.1-0.2,0.2-0.3,0.3c-0.1,0.1-0.2,0.1-0.2,0.2l0.1,0.2l0.3-0.2l0.1-0.1
		c0.3-0.2,0.6-0.4,0.8-0.6c0.4-0.3,0.8-0.5,1.1-0.7c0.5-0.3,0.7-0.4,0.8-0.5c0.1,0,0.2-0.1,0.3-0.2l-0.2-0.3L72.9,72.2z M80,66.3
		c-0.1,0-0.2,0.1-0.2,0.2c-0.1,0.1-0.1,0.1-0.2,0.1c0,0-0.1,0-0.2,0c-0.2-0.1-0.3-0.1-0.4-0.1c-0.2-0.1-0.3-0.1-0.5-0.2
		c-0.2-0.1-0.4-0.1-0.6-0.2c-0.3-0.1-0.5-0.2-0.8-0.3l-1.3-0.5l-0.1,0l-0.1,0.1c0,0-0.1,0.1-0.1,0.2l0.9,1.9l0.8,1.6
		c0,0.1,0.1,0.2,0,0.2c0,0,0,0.1-0.1,0.3c0,0.1-0.1,0.1-0.1,0.2c0,0-0.1,0-0.1,0c-0.1,0-0.2,0.1-0.3,0.1c-0.1,0-0.2,0-0.4-0.1
		l-0.9-0.3c-0.1,0-0.2-0.1-0.4-0.1c-0.1,0-0.1,0-0.2-0.1c0.2-0.3,0.2-0.5,0.2-0.7c0-0.2-0.1-0.4-0.2-0.6c-0.2-0.2-0.5-0.3-0.8-0.3
		c-0.3,0-0.7,0.1-1,0.4c-0.2,0.2-0.4,0.4-0.6,0.6L72,68.8l-0.1,0.1c0,0-0.1,0.1-0.2,0.1c-0.1,0.1-0.2,0.2-0.2,0.2
		c-0.1,0.1-0.1,0.1-0.2,0.2l0,0l0.1,0.1c0.1,0,0.1-0.1,0.3-0.2l0.2-0.1c0.1,0.1,0.3,0.3,0.6,0.6c0.1,0.2,0.3,0.3,0.4,0.5l0.1,0.1
		l0.2,0.2l0.2,0.3l0.5,0.5c0.1,0.1,0.2,0.2,0.2,0.2c0,0,0,0,0,0.1c0,0.1-0.1,0.2-0.2,0.2c-0.1,0.1-0.1,0.2-0.1,0.2
		c0,0,0,0.1,0.1,0.1c0,0,0,0,0.1,0.1l0.1-0.1c0.1-0.1,0.2-0.2,0.3-0.3l0.3-0.3c0,0,0,0,0.1-0.1c0.1-0.1,0.3-0.2,0.7-0.5l0.1-0.1
		c0,0,0,0,0.1,0c0,0-0.1-0.1-0.1-0.2c-0.1,0-0.3,0.1-0.4,0.2c-0.1,0-0.2,0.1-0.2,0.1l-0.4-0.5l-0.5-0.5c-0.1-0.1-0.1-0.1-0.1-0.2
		c0.1-0.1,0.1-0.1,0.2-0.1c0.1-0.1,0.2-0.2,0.3-0.2c0.1,0,0.2,0,0.4,0.1c0.5,0.2,0.8,0.3,1,0.4c0.1,0,0.2,0.1,0.4,0.1l0.2,0.1
		c0,0,0.1-0.1,0.1-0.1c0.1-0.1,0.1-0.1,0.2-0.2l0.3-0.2c0.1-0.1,0.1-0.1,0.2-0.2l0.1-0.1l0.1-0.1l0,0l0.1-0.1c0,0,0,0,0,0
		c0.1-0.1,0.1-0.2,0.2-0.3l0.1-0.1c0.4-0.4,0.6-0.6,0.7-0.7c0,0,0,0-0.1-0.1c0,0-0.1-0.1-0.1-0.1c-0.1,0.1-0.2,0.1-0.2,0.1
		c-0.1,0.1-0.2,0.1-0.3,0.2c0,0-0.1,0-0.1,0c0,0-0.1-0.1-0.1-0.2c-0.2-0.4-0.3-0.6-0.4-0.7l0.8-0.9l0.6,0.2l0.3,0.1c0,0,0.1,0,0.1,0
		c0,0,0,0,0,0.1c0,0,0,0.1-0.1,0.2l-0.2,0.3c0,0,0.1,0.1,0.1,0.1l0.1-0.1l0.3-0.4c0-0.1,0.1-0.2,0.2-0.3c0.1-0.1,0.2-0.2,0.4-0.4
		c0.1-0.1,0.3-0.3,0.4-0.4c0,0,0,0,0,0C80.1,66.4,80,66.3,80,66.3z M74.1,69.2c0,0.2-0.2,0.4-0.5,0.7c0,0-0.1,0.1-0.2,0.1l-0.1-0.1
		c-0.1-0.1-0.2-0.2-0.2-0.3L73,69.3l-0.2-0.2l-0.3-0.3l0-0.1c0-0.1,0.1-0.1,0.2-0.2c0.2-0.1,0.3-0.2,0.4-0.3
		c0.1-0.1,0.2-0.1,0.4-0.1c0.1,0,0.2,0,0.3,0.1c0.1,0.1,0.2,0.1,0.3,0.2C74.1,68.8,74.1,69,74.1,69.2z M77.4,66.9
		c-0.1,0.1-0.3,0.3-0.6,0.7l-0.6-1.2c0.1,0,0.3,0.1,0.6,0.2C77,66.6,77.2,66.7,77.4,66.9L77.4,66.9z M23.7,28.9
		c0.2,0.4,0.9,0.4,1.6,0c0.7-0.4,1.1-1,0.9-1.4c-0.2-0.4-0.9-0.4-1.6,0C24,28,23.5,28.6,23.7,28.9z M41.3,53.4
		c0.4,0.1,0.8,0.1,1.3,0.1c0.6,0,1.1,0,1.5-0.1c0.4-0.1,0.7-0.2,1-0.4l0.1-0.3l0.1-0.2c0.1-0.5,0.1-0.7,0.1-0.8
		c0-0.2,0.1-0.3,0.1-0.5c-0.2,0-0.4,0-0.5,0c-0.4,0.6-0.7,1-1.1,1.3c-0.4,0.3-0.8,0.4-1.2,0.4c-0.4,0-0.7-0.1-1.1-0.3
		c-0.3-0.1-0.5-0.3-0.6-0.6c-0.2-0.3-0.4-0.7-0.5-1.2c-0.1-0.3-0.1-0.8-0.1-1.5c0-1.2,0.2-2.2,0.7-2.9c0.4-0.5,0.8-0.8,1.4-0.8
		c0.5,0,0.9,0.1,1.3,0.4c0.4,0.3,0.8,0.7,1.1,1.2h0.5c0-0.3,0-0.6-0.1-0.9c-0.1-0.6-0.2-1-0.3-1.1c-0.4-0.1-0.7-0.2-1.1-0.2
		c-0.4-0.1-0.8-0.1-1.3-0.1c-1.1,0-2.1,0.4-2.8,1.2c-0.7,0.8-1.1,1.9-1.1,3.1c0,0.5,0.1,1,0.2,1.4c0.1,0.4,0.3,0.8,0.5,1.2
		c0.2,0.4,0.6,0.7,1,1C40.5,53.1,40.9,53.3,41.3,53.4z M54.9,52.7c-0.1,0-0.1,0-0.2,0.1l-0.5,0.1l-0.4,0.1c0,0.1,0,0.2,0,0.4
		c0.1,0,0.1,0,0.2,0c0.5-0.1,0.9-0.1,1.2-0.1c0.7,0,1.2,0,1.5,0.1c0.2,0,0.4,0,0.6,0c0,0,0.1,0,0.3,0l0-0.4
		c-0.2-0.1-0.4-0.2-0.8-0.3c-0.1,0-0.1,0-0.2-0.1c0-0.2,0-0.4,0-0.5l0-0.7v-0.9c0-0.6,0-1,0-1.1l0-0.8l0-0.6v-0.8c0,0,0-0.1,0-0.3
		v-0.2c0,0,0-0.1,0-0.2l0-0.1l0-0.2v-0.1l0-0.1c0.1-0.1,0.2-0.1,0.3-0.1c0.1,0,0.3-0.1,0.7-0.2c0-0.1,0-0.3,0-0.4
		c-0.2,0-0.3,0-0.4,0c-0.1,0-0.3,0-0.4,0c-0.1,0-0.1,0-0.2,0l-0.7,0c0,0-0.1,0-0.2,0c-0.4,0-0.7,0-1.1-0.1l-0.5,0c0,0-0.1,0-0.2,0
		c0,0.1,0,0.2,0,0.4c0.1,0,0.1,0,0.2,0.1c0.4,0.1,0.7,0.2,0.8,0.3c0,0,0.1,0.1,0.1,0.1l0,0.4l0,1.1l0,0.3c0,0.6,0,0.9,0,1.1
		c-0.1,0-0.3,0-0.4,0l-1,0l-1,0h-0.4l-0.8,0c-0.1,0-0.2,0-0.3,0c0-0.2,0-0.4,0-0.5c0-0.1,0-0.1,0-0.2c0-0.1,0-0.2,0-0.2
		c0,0,0-0.1,0-0.2l0-0.8c0,0,0-0.1,0-0.1v-0.1l0-0.2l0-0.3l0-0.1l0-0.2c0-0.1,0-0.1,0.1-0.2l1-0.2c0-0.1,0-0.2,0-0.2
		c0,0,0-0.1,0-0.2c-0.1,0-0.2,0-0.4,0c-0.1,0-0.2,0-0.3,0c-0.5,0-0.8,0.1-0.9,0.1c-0.1,0-0.2,0-0.3,0c-0.1,0-0.2,0-0.3,0
		c-0.2,0-0.6,0-1-0.1c-0.1,0-0.1,0-0.3,0c-0.1,0-0.2,0-0.3,0c0,0.1,0,0.2,0,0.2c0,0,0,0.1,0,0.2c0.1,0,0.1,0,0.2,0.1l0.1,0
		c0.2,0,0.3,0,0.5,0.1c0,0,0.1,0,0.1,0c0,0,0.1,0,0.1,0c0,0.1,0,0.1,0,0.1c0,0.3,0,0.6,0,0.9v0.3l0,0.6l0,0.5l0,0.2
		c0,0.7,0,1.1,0,1.3l0,0.2c0,0.3,0,0.7,0,1.3l-0.1,1.6c-0.1,0-0.2,0.1-0.3,0.1l-0.7,0.1c0,0.2,0,0.3,0,0.4c0.5,0,0.9,0,1.1-0.1
		c0,0,0.1,0,0.3,0l0.1,0c0.3,0,0.6,0,0.8,0l0.8,0c0,0,0.1,0,0.1,0c0.1,0,0.1,0,0.2,0c0.1,0,0.2,0,0.3,0c0-0.1,0-0.2,0-0.2
		c0,0,0-0.1,0-0.2c0,0-0.1,0-0.1-0.1c0,0-0.1,0-0.1,0l-0.8-0.1l-0.1,0c0-0.1,0-0.2,0-0.3v-2c0,0,0-0.1,0-0.2v-0.1l0-0.5
		c0.1,0,0.2,0,0.2,0h0.2c0.1,0,0.2,0,0.2,0c0,0,0.1,0,0.1,0l0,0l0.1,0l2.6,0c0.2,0,0.3,0,0.4,0c0,0.3,0,0.6,0,0.8l0,0.5
		C55,51.8,54.9,52.3,54.9,52.7z M54.4,19l1.3,2.5l-2.8,0.8l5.9,0.9L54.4,19z M50.8,16.4l0.8,3.1l-3.7,1.2l6.9,0.3L50.8,16.4z
		 M47.7,15.2l0.4,2.8l-3.6,1.2l6-0.3L47.7,15.2z M44.3,13.6l0.6,2.8L41,17.9l6.4-0.5L44.3,13.6z M40.6,11.8l1,3.1l-3.9,1.2l5.9-0.4
		L40.6,11.8z M37.3,10.6l1,2.6l-4.1,1.1l6-0.1L37.3,10.6z M34.2,9.6l0.9,1.9l-3.1,0.7l5.1,0.3L34.2,9.6z M32.2,9.6l0.4,1.1L31,11.2
		h3.2L32.2,9.6z M31.7,10.1l-1.4-0.4l-1.4-1.2l-0.1,0.5l-1.5,0.3l2.6,0.8l-0.8,0.5L31.7,10.1z"/>
</g>
</svg>
