<?xml version="1.0" encoding="utf-8"?>
<!-- Generator: Adobe Illustrator 19.0.0, SVG Export Plug-In . SVG Version: 6.00 Build 0)  -->
<svg version="1.1" id="Capa_1" xmlns="http://www.w3.org/2000/svg" xmlns:xlink="http://www.w3.org/1999/xlink" x="0px" y="0px"
	 viewBox="0 0 85 85" style="enable-background:new 0 0 85 85;" xml:space="preserve">
<style type="text/css">
	.st0{fill:#FFFFFF;}
</style>
<g id="XMLID_52_">
	<path id="XMLID_56_" class="st0" d="M28,64.6c7,5.7,13.9,9.3,13.9,9.3l0.2,0.1l0.2-0.1c0,0,7-3.5,13.9-9.3c6.9-5.7,14-13.7,14-22.6
		c0-6.5,0-38.4,0-38.4V2.8l-0.6,0.3c0,0-0.2,0.1-0.7,0.3C67.5,3.9,63.9,5,58.1,5c-3.8,0-7.8-1.1-10.8-2.1c-3-1.1-5-2.1-5-2.1
		l-0.2-0.2l-0.2,0.1c0,0-2,1.1-5,2.1c-3,1.1-7,2.1-10.8,2.1c-3.9,0-6.7-0.5-8.6-0.9c-1-0.2-1.7-0.5-2.1-0.6
		c-0.5-0.2-0.7-0.3-0.7-0.3l-0.6-0.3v39.1C14.1,50.9,21.1,58.9,28,64.6z M40.3,60.3L40.3,60.3c0.1,0,0.5-0.1,1-0.5
		c0.2-0.1,0.3-0.3,0.5-0.6c0.2,0.2,0.4,0.4,0.6,0.5c0.5,0.3,1,0.4,1.1,0.4l0,0h11.7v-16h1.4v17H42.4l-0.1,0.3c0,0,0,0-0.1,0.1
		c-0.1,0.3-0.5,0.7-0.8,0.6c-0.3,0-0.5-0.1-0.7-0.3c-0.1-0.1-0.1-0.2-0.2-0.2c0-0.1-0.1-0.1-0.1-0.1l-0.1-0.2H27.2v-17h1.2v16H40.3z
		 M30.7,57.5c0,0,1.5,0.4,3.2,0.4c0.6,0,1.2-0.1,1.9-0.2c2.1-0.5,4.7-0.7,6-0.7c1.2,0,3.8,0.2,5.9,0.7c0.6,0.2,1.3,0.2,1.9,0.2
		c1.7,0,3.2-0.4,3.2-0.4l0.3-0.1V43.9h1.2v15.4H43.5c0,0-0.1,0-0.2,0c-0.4-0.1-1.1-0.4-1.1-1.5h-0.9c0,0.8-0.3,1.2-0.6,1.5
		c-0.1,0.1-0.3,0.2-0.4,0.2h-0.1h-11V44.3h1.2v13.1L30.7,57.5z M31.2,56.7V43.3c0.6,0.1,1.8,0.2,2.9,0.2c0.9,0,1.8-0.1,2.6-0.3
		c1.8-0.5,3.6-0.6,4.5-0.6v13.5c-1.4,0-3.7,0.3-5.7,0.8c-0.5,0.1-1.1,0.2-1.7,0.2c-0.8,0-1.5-0.1-2.1-0.2
		C31.6,56.8,31.4,56.8,31.2,56.7z M42.1,56.1V42.6c1,0,2.7,0.2,4.5,0.6c0.8,0.2,1.7,0.3,2.6,0.3c1.2,0,2.3-0.1,2.9-0.2v13.4
		c-0.1,0-0.3,0.1-0.6,0.1c-0.6,0.1-1.3,0.2-2.1,0.2c-0.6,0-1.1,0-1.7-0.2C45.9,56.4,43.5,56.1,42.1,56.1z M44.9,71.5
		c-1.4,0.8-2.4,1.3-2.8,1.6c-0.4-0.2-1.4-0.7-2.7-1.5v-9.4h0.5c0.2,0.3,0.7,0.8,1.5,0.9c0.9,0,1.3-0.6,1.6-1h1.9V71.5z M69.4,42
		c0,8.5-6.8,16.3-13.7,22c-3.4,2.8-6.9,5.1-9.5,6.7c-0.1,0.1-0.2,0.1-0.3,0.2V62h11.5V43.3h-2.3V43H53v-0.7l-0.5,0.1
		c0,0-1.6,0.2-3.3,0.2c-0.8,0-1.7-0.1-2.4-0.2c-0.3-0.1-0.7-0.2-1-0.2v-1.7h23.5L69.4,42L69.4,42z M24.9,19.9L24.9,19.9L24.9,19.9
		L24.9,19.9c0.1-1.5,0.8-1.9,1.5-1.9c0.3,0,0.6,0.1,0.8,0.3c0.2,0.2,0.2,0.2,0.2,0.4c0,0.1-0.1,0.4-0.3,0.7
		c-0.2,0.3-0.4,0.7-0.4,1.2c0,0.1,0,0.1,0,0.2c0.1,0.6,0.5,1.1,0.9,1.6s0.8,1.1,1.2,2c0.7,1.8,0.3,3,1.1,4c0.5,0.5,1.1,0.6,1.5,0.7
		c0.4,0.2,0.5,0.2,0.6,0.6c0,0.6-0.5,1.2-1.3,1.2c-0.4,0-0.9-0.2-1.4-0.7c-0.7-0.6-1.2-2.9-2-5.1l-0.4,0.2l0.4-0.2
		C26.2,22.9,24.9,20.8,24.9,19.9z M26.7,26.4c-1.5,1.5-3.1,2.1-5.1,2.2c-0.1-0.6-0.3-1.2-0.7-1.6c1.2-1.1,2.5-1.8,3.5-2.2
		c0.5-0.2,0.9-0.3,1.2-0.4c0.1,0,0.2-0.1,0.3-0.1c0.2,0.3,0.3,0.7,0.5,1C26.5,25.7,26.6,26.1,26.7,26.4z M28.4,22l4.6-1.9
		c0.7,0.3,1.4,0.7,2,1l-5.6,2.5C29.1,22.9,28.8,22.4,28.4,22z M29.7,24.4l6.4-2.9c0.8,0.4,1.6,0.7,2.3,1l-8.3,4
		C30.1,26,30,25.3,29.7,24.4z M29.7,17.4c-4.1-2.2-6.9-4.3-8.6-5.9c-0.9-0.8-1.5-1.5-1.9-2.1c-0.3-0.4-0.4-0.7-0.5-0.9
		c1-0.2,2.1-0.3,3.1-0.3c5.6,0,12.2,2.4,18.4,5.1c3.7,1.7,7.4,4.1,10.1,6.2s4.5,3.7,4.5,3.7l0,0l9.6,5.5c0,0.1,0,0.2,0,0.3
		c0,0.2,0,0.5-0.1,0.6c-0.1,0-0.3,0-0.5,0c-0.4,0-0.9,0-1.2-0.1c-0.3,0-0.5-0.1-0.6-0.1L54.4,25h-0.1c0,0-0.8,0-4.3-0.2
		C46.7,24.9,39,22.3,29.7,17.4z M63.3,7.8l2,0.2l-0.8,1.8l-15.6,7.6c-0.5-0.3-0.9-0.7-1.4-1l15.9-7.1L63,8.6l-16.4,7.3
		c-0.4-0.3-0.8-0.5-1.3-0.8L63.3,7.8z M39.4,2.8c1.4-0.6,2.3-1,2.7-1.2c0.4,0.2,1.4,0.7,2.7,1.2v11.5l-0.4,0.3
		c-1.2-0.7-2.5-1.4-3.8-1.9c-0.4-0.2-0.8-0.3-1.2-0.5V2.8z M14.9,4.2c1.4,0.5,5.1,1.7,11.2,1.7c4.5,0,9.1-1.4,12.3-2.6v8.5
		C32.8,9.3,27,7.4,21.8,7.4c-1.2,0-2.4,0.1-3.5,0.3l0,0c-0.3,0-0.5,0.4-0.5,0.7c0,0.5,0.3,0.9,0.7,1.5c1.3,1.8,4.6,4.9,10.8,8.2
		c0.9,0.5,1.8,1,2.7,1.4l-4.2,1.7c-0.2-0.3-0.3-0.5-0.3-0.6l0,0c0-0.2,0.1-0.4,0.3-0.7c0.2-0.3,0.4-0.7,0.4-1.2c0-0.3-0.1-0.7-0.4-1
		c-0.4-0.4-0.9-0.6-1.4-0.6c-1.1,0-2.3,0.9-2.4,2.7c0,0.1,0,0.1,0,0.1c0,1,0.7,2.3,1.4,3.7c-0.9,0.2-3.2,0.9-5.4,3
		c-0.3-0.2-0.7-0.3-1.1-0.3c-1.4,0-2.6,1.2-2.6,2.6s1.2,2.6,2.6,2.6c1.2,0,2.2-0.8,2.5-2c2.1-0.1,3.9-0.7,5.5-2.2
		c0.5,1.4,0.8,2.8,1.6,3.5c0.7,0.6,1.4,0.9,2,0.9c1.2,0,2.2-1,2.2-2.1c0-0.9-0.7-1.3-1.2-1.4c-0.5-0.1-1-0.2-1.1-0.4
		c-0.1-0.1-0.1-0.2-0.2-0.3l8.1-3.9v9.5H14.9V4.2z M18.4,8.3L18.4,8.3V8.1V8.3z M20.8,28.9c0,1-0.8,1.7-1.7,1.7
		c-1,0-1.7-0.8-1.7-1.7c0-1,0.8-1.7,1.7-1.7C20,27.2,20.8,27.9,20.8,28.9z M14.9,34h24.5V23l0.2-0.1c2,0.8,3.8,1.4,5.3,1.9v9.1h24.5
		v5.5H44.9v2.5c-1.4-0.2-2.6-0.3-3.2-0.3c-0.5,0-1.3,0-2.3,0.2v-2.4H14.9V34z M76.1,64.4c-1.1-0.9-4.1-4.5-5-5.5
		c-0.3-0.3-0.8-0.7-1.4-1.1l0,0l0,0c-0.7-0.4-1.5-0.7-2.4-0.7s-1.8,0.3-2.6,1.1c-1,0.9-1.4,2-1.4,2.9c0,0.7,0.2,1.4,0.6,1.9l0,0
		l0.2,0.2c0.1,0.1,0.2,0.2,0.3,0.3l2.1,2.1c-3.5,3.8-10.6,9.2-24.1,9.2c-13.6,0-20.6-5.5-24.2-9.3l2-1.8c0.7-0.5,1.2-1.4,1.2-2.5
		c0-1-0.4-2-1.4-2.9c-0.8-0.8-1.8-1.1-2.6-1.1c-0.9,0-1.8,0.3-2.4,0.7l0,0l0,0c-0.6,0.4-1.1,0.8-1.4,1.1c-0.9,0.9-3.9,4.5-5,5.5
		C8.1,64.9,8,65.6,8,66.2c0,1.6,0.9,3.5,1.8,4.4c1.2,1.1,12.3,13.8,32.7,13.8l0,0c20.4,0,31.5-12.7,32.7-13.8
		c0.9-0.9,1.8-2.9,1.8-4.4C76.7,65.5,76.5,64.8,76.1,64.4z M65.2,63.2c-0.1,0-0.3-0.1-0.4-0.2l-0.3-0.3c-0.3-0.4-0.6-0.9-0.6-1.5
		c0-0.7,0.3-1.5,1.2-2.3c0.7-0.6,1.4-0.8,2-0.9c0.6,0,1.3,0.2,1.8,0.5c0.1,0.3,0.4,0.8,0.4,1.6c0,0.5-0.1,1-0.3,1.6l-1.2-1.1
		c-0.1-0.2-0.2-0.3-0.3-0.4C67.2,60,66.9,60,66.7,60c-0.3,0-0.6,0.1-0.6,0.1H66h-0.1c0,0-0.5,0.3-0.5,1c0,0.2,0.1,0.5,0.2,0.7
		l0.7-0.5c-0.1-0.1-0.1-0.2-0.1-0.2c0-0.1,0-0.1,0.1-0.2l0,0l0,0c0.1,0,0.2,0,0.3,0c0.1,0,0.3,0,0.3,0.1l0,0l-0.1,0.1l0.1,0.1
		c0,0,0,0,0,0.1v0.1c-0.1,1-0.7,1.8-1.5,1.8C65.4,63.2,65.3,63.2,65.2,63.2z M65.9,64c1.1-0.2,1.7-1.1,2-2.1l0.8,0.7
		c-0.2,0.4-0.5,0.7-0.8,1.1s-0.6,0.8-1,1.2L65.9,64z M17.4,64.9c-0.4-0.4-0.7-0.8-1-1.1c-0.3-0.4-0.6-0.8-0.8-1.2l0.8-0.8
		c0.2,1,0.8,2,1.9,2.3L17.4,64.9z M15.2,58.8c0-0.1,0.1-0.2,0.1-0.3c0.6-0.3,1.2-0.5,1.8-0.5c0.7,0,1.3,0.2,2,0.9
		c0.9,0.8,1.2,1.6,1.2,2.3c0,0.6-0.2,1.2-0.6,1.5L19.4,63c-0.1,0.1-0.2,0.1-0.4,0.2c-0.1,0-0.2,0-0.3,0c-0.8,0-1.4-0.8-1.5-1.8
		c0-0.1,0-0.1,0-0.1c0-0.2,0-0.2,0.1-0.3c0,0,0.2-0.1,0.3-0.1c0.1,0,0.2,0,0.3,0c0,0,0,0,0.1,0l0,0l0,0c0,0,0,0-0.1,0.1l0.6,0.6
		c0.2-0.2,0.4-0.5,0.4-0.8c0-0.6-0.5-0.8-0.5-0.8h-0.1h-0.1c0,0-0.3-0.1-0.6-0.1c-0.2,0-0.5,0-0.8,0.2c-0.1,0-0.1,0.1-0.2,0.2l0,0
		l-1.4,1.3c-0.1-0.5-0.2-1-0.2-1.4C15,59.6,15.1,59.1,15.2,58.8z M74.3,69.9c-1.2,1.2-12,13.5-32.1,13.6
		c-20.1,0-30.9-12.4-32.1-13.6c-0.7-0.7-1.6-2.6-1.5-3.8c0-0.5,0.1-0.9,0.3-1c1.2-1.1,4.2-4.7,5.1-5.5c0.1-0.1,0.2-0.1,0.3-0.2
		c0,0.2-0.1,0.5-0.1,0.8c0,1.1,0.4,2.6,1.7,4.1c2.8,3.5,10.1,11.4,26.4,11.4l0,0c16.2,0,23.5-7.9,26.3-11.4c1.3-1.6,1.7-3,1.7-4.1
		c0-0.3,0-0.6-0.1-0.8c0.1,0.1,0.2,0.2,0.3,0.2c0.9,0.8,3.8,4.4,5.1,5.5c0.2,0.2,0.3,0.5,0.3,1C75.8,67.3,75,69.2,74.3,69.9z
		 M15.9,71.5L15.9,71.5v-0.2l-0.1-0.1c-0.2,0.1-0.5,0.2-0.7,0.2s-0.3,0-0.4-0.1c-0.2-0.1-0.4-0.3-0.6-0.5c-0.3-0.3-0.5-0.5-0.5-0.6
		s0-0.1,0.1-0.2l0.5-0.5c0.1-0.1,0.3-0.3,0.4-0.5c0,0,0,0,0.1-0.1c0.1,0.1,0.3,0.3,0.5,0.5s0.3,0.3,0.3,0.4s0,0.1,0,0.2
		s-0.1,0.2-0.2,0.3c-0.1,0.1-0.1,0.2-0.1,0.2l0.2,0.2l0,0c0,0,0.1-0.1,0.2-0.2s0.1-0.2,0.2-0.2l0.1-0.1c0,0,0.1-0.1,0.3-0.3
		c0.1-0.1,0.2-0.2,0.3-0.3l-0.1-0.1l0,0c-0.3,0-0.4,0.1-0.5,0.1c-0.1,0-0.1,0-0.2,0c0,0-0.1-0.1-0.3-0.2c-0.1-0.1-0.3-0.3-0.6-0.6
		l-0.1-0.1l0.3-0.3l0.4-0.4c0.3-0.3,0.4-0.4,0.4-0.4c0.2,0.1,0.3,0.3,0.5,0.5s0.3,0.3,0.4,0.5c0.1,0.1,0.1,0.1,0.1,0.2
		c0.1,0.1,0.1,0.1,0.1,0.2s0,0.3-0.1,0.4l0.2,0.1c0,0.1-0.1,0.1-0.1,0.2l0.1,0.1l0.1,0.1l0,0l0.1-0.1l0.5-0.5
		c0.1-0.1,0.1-0.1,0.1-0.2c-0.2-0.2-0.3-0.4-0.4-0.4L17,68.3c-0.3-0.3-0.6-0.6-0.9-0.9c-0.2-0.2-0.4-0.4-0.4-0.4
		c-0.1-0.1-0.2-0.2-0.2-0.2l0,0c0-0.1-0.1-0.1-0.2-0.2s-0.2-0.2-0.3-0.4c-0.1-0.1-0.2-0.3-0.3-0.4c-0.1-0.2-0.2-0.3-0.2-0.3
		c-0.1,0-0.1,0.1-0.1,0.1s0,0-0.1,0.1c0,0,0,0.1,0.1,0.1c0,0,0,0.1,0.1,0.1c0.1,0.1,0.1,0.2,0.1,0.3c0,0.1,0,0.1,0,0.1
		c-0.1,0-0.1,0.1-0.2,0.1s-0.2,0.1-0.4,0.1c-0.1,0-0.1,0-0.1,0l-0.2,0.1l-1.1,0.3L12.1,67c0.1-0.1,0.2-0.3,0.2-0.4l0.4-0.8
		c0.2-0.4,0.4-0.6,0.5-0.8l0.2-0.2c0,0,0,0,0.1,0h0.1c0.1,0,0.1,0,0.2,0.1c0,0,0.1,0.1,0.3,0.3c0,0,0.1-0.1,0.2-0.2l-0.4-0.4
		c-0.1,0-0.1-0.1-0.2-0.2c-0.1-0.2-0.2-0.3-0.2-0.3c-0.3-0.4-0.4-0.6-0.6-0.9c0,0-0.1-0.1-0.1-0.2l-0.2,0.2l0.1,0.1
		c0.1,0.1,0.1,0.2,0.1,0.3s0,0.1,0,0.2c0,0-0.1,0.2-0.3,0.6L12,65.2l-0.7,1.3c-0.2,0.4-0.4,0.6-0.4,0.6c0,0.1-0.1,0.1-0.1,0.2
		s0.1,0.1,0.1,0.1s0,0.1,0.1,0.1s0.3-0.1,0.6-0.2h0.1c0.2-0.1,0.4-0.1,0.4-0.1c0.1,0,0.3-0.1,0.4-0.1s0.2-0.1,0.3-0.1l1.1-0.3
		c0.4-0.1,0.8-0.2,0.9-0.2s0.1,0,0.1,0s0.1,0.1,0.3,0.1l0.1,0.1c0,0,0,0.1,0.1,0.1v0.1l0,0l-0.3,0.3l-0.4,0.4L14.4,68l-0.3,0.3
		l-0.8,0.9l-0.1,0.1c-0.1,0.1-0.1,0.1-0.1,0.1c-0.1,0.1-0.1,0.1-0.2,0.1s-0.2-0.1-0.4-0.3c-0.1-0.1-0.2-0.1-0.2-0.2l-0.2,0.2
		l0.3,0.3l0.1,0.1c0.3,0.3,0.5,0.5,0.7,0.7c0.4,0.4,0.7,0.7,0.9,1c0.4,0.4,0.6,0.6,0.7,0.7s0.1,0.1,0.2,0.2l0.3-0.2L15.9,71.5
		L15.9,71.5z M18.9,74.6c0-0.1,0-0.2,0-0.5l0.1-1c0-0.1,0-0.2,0-0.4c0-0.1,0-0.1,0-0.2c0.3,0.1,0.5,0.1,0.8,0.1
		c0.2-0.1,0.4-0.2,0.5-0.3c0.2-0.2,0.2-0.5,0.1-0.8s-0.3-0.6-0.6-0.9c-0.2-0.2-0.4-0.3-0.7-0.4L18.8,70l-0.1-0.1
		c0,0-0.1-0.1-0.2-0.2s-0.2-0.1-0.2-0.2c-0.1-0.1-0.2-0.1-0.3-0.2l0,0l-0.1,0.2c0,0,0.1,0.1,0.3,0.2l0.1,0.1
		c-0.1,0.1-0.2,0.3-0.5,0.7c-0.1,0.2-0.3,0.3-0.4,0.5l-0.1,0.1l-0.2,0.2l-0.2,0.3l-0.4,0.6c-0.1,0.1-0.2,0.2-0.2,0.2s0,0-0.1,0.1
		c-0.1,0-0.2-0.1-0.3-0.1c-0.1-0.1-0.2-0.1-0.2-0.1l-0.1,0.1c0,0,0,0-0.1,0.1l0.1,0.1c0.1,0.1,0.2,0.1,0.3,0.2l0.4,0.2
		c0,0,0.1,0,0.1,0.1c0.1,0,0.3,0.2,0.6,0.5l0.1,0.1c0,0,0,0,0.1,0c0,0,0.1-0.1,0.1-0.2c-0.1-0.1-0.2-0.2-0.3-0.4c0,0.1,0,0.1,0,0
		l0.4-0.5l0.4-0.6c0.1-0.1,0.1-0.1,0.1-0.2c0.1,0.1,0.1,0.1,0.2,0.1c0.1,0.1,0.2,0.2,0.2,0.3c0,0,0,0.2,0,0.4
		c-0.1,0.5-0.1,0.9-0.2,1.1c0,0.1,0,0.2-0.1,0.4v0.2c0,0,0.1,0,0.1,0.1c0.1,0.1,0.2,0.1,0.2,0.1l0.3,0.2c0.1,0.1,0.1,0.1,0.2,0.2
		l0.1,0.1l0.1,0.1h0.1l0.1,0.1c0,0,0,0,0-0.1V75c0-0.1-0.1-0.1-0.1-0.2C19,74.7,19,74.7,18.9,74.6z M18.2,71.8c0,0-0.1-0.1-0.2-0.1
		l0.1-0.1c0.1-0.1,0.2-0.2,0.2-0.3l0.2-0.3l0.2-0.2l0.3-0.3l0,0c0.1,0,0.1,0.1,0.2,0.1c0.2,0.1,0.3,0.2,0.3,0.3
		c0.1,0.1,0.1,0.2,0.1,0.3c0,0.1,0,0.2,0,0.3c0,0.1-0.1,0.2-0.2,0.3c-0.1,0.2-0.3,0.3-0.5,0.3C18.8,72.1,18.5,72,18.2,71.8z
		 M23.3,76.1c0.1-0.2,0.1-0.4,0.1-0.7c-0.1-0.2-0.2-0.5-0.5-0.7c0.2,0,0.4,0,0.5,0s0.3-0.1,0.4-0.1c0.1-0.1,0.2-0.1,0.2-0.3
		c0.1-0.1,0.1-0.2,0.1-0.3c0-0.1,0-0.2,0-0.3c0-0.1-0.1-0.2-0.1-0.3c-0.1-0.1-0.1-0.2-0.2-0.2c-0.1-0.1-0.3-0.2-0.4-0.3l-0.2-0.1
		c-0.1,0-0.1-0.1-0.1-0.1s0,0-0.1,0l-0.2-0.1l-0.9-0.5l-0.6-0.3L21.2,72c0.1,0.1,0.2,0.2,0.3,0.2c0.1,0,0.1,0.1,0.1,0.1l0,0
		c0,0,0,0.1-0.1,0.3c-0.3,0.5-0.4,0.8-0.5,1l-0.7,1.2c-0.1,0.2-0.2,0.3-0.3,0.4l-0.1,0.1c-0.1,0-0.2,0-0.3-0.1c-0.1,0-0.1,0-0.2-0.1
		l-0.1,0.2c0.4,0.2,0.6,0.3,0.7,0.3c0.3,0.1,0.5,0.3,0.7,0.4l0.5,0.3c0.2,0.1,0.4,0.2,0.5,0.2c0.2,0.1,0.4,0.1,0.6,0.1
		s0.3,0,0.5-0.1c0.1,0,0.2-0.1,0.3-0.2C23.1,76.3,23.2,76.2,23.3,76.1z M22.4,75.7c-0.1,0.2-0.2,0.3-0.3,0.4
		c-0.1,0.1-0.3,0.1-0.4,0.1c-0.2,0-0.4-0.1-0.6-0.2c-0.1-0.1-0.2-0.1-0.3-0.3v-0.1l0.3-0.6l0.2-0.4l0.2-0.3c0.1,0,0.1,0,0.3,0.1
		c0.3,0.1,0.5,0.3,0.6,0.4s0.2,0.3,0.2,0.5C22.6,75.4,22.5,75.5,22.4,75.7z M22,74.1c-0.1-0.1-0.2-0.1-0.3-0.2
		c0-0.1,0.1-0.1,0.1-0.2l0.1-0.2c0.2-0.3,0.3-0.5,0.4-0.7c0-0.1,0.1-0.1,0.1-0.2c0.1,0.1,0.3,0.1,0.3,0.1c0.3,0.2,0.5,0.3,0.5,0.5
		c0.1,0.2,0.1,0.4,0,0.6c-0.1,0.3-0.3,0.4-0.5,0.4C22.5,74.3,22.3,74.3,22,74.1z M26.7,78.5c0,0,0-0.1,0-0.2c0-0.2,0-0.3,0-0.4
		c0-0.2,0-0.4,0-0.5c0-0.2,0-0.4,0-0.7c0-0.3,0-0.6,0-0.9v-1.4v-0.1l-0.1-0.1c-0.1,0-0.1-0.1-0.2-0.1l-1.5,1.5l-1.2,1.3
		C23.6,77,23.6,77,23.5,77c0,0-0.1,0-0.3,0c-0.1,0-0.2,0-0.2,0l-0.1,0.2H23c0.1,0.1,0.3,0.1,0.4,0.1h0.1c0.5,0.2,0.7,0.4,0.9,0.4
		c0,0,0,0,0-0.1c0,0,0-0.1,0.1-0.1c-0.2,0.1-0.3,0.1-0.3,0.1c-0.1-0.1-0.2-0.1-0.2-0.2v-0.1c0,0,0.1-0.1,0.1-0.2
		c0.3-0.3,0.5-0.5,0.5-0.6l1.1,0.5v0.6v0.3V78c0,0,0,0-0.1,0.1c0,0-0.1,0-0.2,0L25,78c0,0.1-0.1,0.1-0.1,0.2l0.1,0.1l0.5,0.2
		c0.1,0,0.2,0.1,0.3,0.1c0.1,0.1,0.3,0.1,0.5,0.2s0.3,0.2,0.5,0.2c0,0,0,0,0-0.1v-0.1c0.2-0.1,0.2-0.1,0.1-0.2
		C26.8,78.6,26.8,78.6,26.7,78.5z M25.8,76.6L25.8,76.6c-0.2-0.1-0.4-0.2-0.9-0.4l0.9-1c0,0.1,0,0.4,0,0.6
		C25.8,76.2,25.8,76.4,25.8,76.6z M34.6,76.9v-0.2h-0.1l-0.7-0.1l-0.6-0.1h-0.1v0.2c0.1,0,0.1,0.1,0.2,0.1c0.2,0.1,0.2,0.1,0.3,0.2
		c0,0,0,0.1,0,0.3c0,0,0,0.2-0.1,0.5c0,0.1,0,0.3-0.1,0.5c0,0.2-0.1,0.3-0.1,0.4s0,0.3-0.1,0.5l-0.1,0.4v0.1c-1-1.5-1.6-2.4-1.7-2.7
		c-0.2-0.3-0.4-0.6-0.6-0.9h-0.1c0,0-0.1,0-0.2,0c-0.1,0-0.2,0-0.2,0s0,0-0.1,0S30,76,30,76s-0.1,0-0.3,0h-0.1l-0.2-0.4v0.2
		c0.2,0.1,0.4,0.1,0.4,0.2c0.1,0.1,0.2,0.1,0.2,0.2v0.1c0,0.1,0,0.3-0.1,0.5l-0.1,0.6l-0.2,1v0.2c0,0.1-0.1,0.3-0.2,0.6
		c0,0.1-0.1,0.2-0.1,0.2s-0.1,0-0.3,0c-0.1,0-0.1,0-0.1,0h-0.1v0.1v0.1h0.1c0,0,0.1,0,0.2,0c0.1,0,0.3,0.1,0.7,0.1
		c0.3,0.1,0.6,0.2,0.6,0.2h0.1v-0.3h-0.1c-0.3-0.1-0.4-0.1-0.5-0.2v-0.1v-0.1c0-0.2,0.1-0.4,0.1-0.6l0.1-0.4l0.1-0.2
		c0-0.1,0-0.1,0-0.2l0.2-1.2l0.4,0.6c0.2,0.2,0.4,0.5,0.5,0.8l0.3,0.5l0.4,0.6l0.6,0.9l0.3,0.5l0.4,0.1v-0.2c0,0,0-0.1,0-0.2V80
		v-0.2l0.1-0.4c0,0,0-0.1,0-0.2l0.2-1.1c0-0.1,0-0.1,0-0.2c0-0.2,0.1-0.4,0.1-0.7c0-0.1,0.1-0.2,0.1-0.3c0-0.1,0-0.1,0-0.1
		c0-0.1,0-0.1,0.1-0.1c0,0,0.1,0,0.2-0.1c0,0,0.1,0,0.2,0C34.5,77,34.6,77,34.6,76.9z M38.1,77.3c-0.3-0.2-0.7-0.3-1.1-0.4
		c-0.3,0-0.5,0-0.7,0s-0.4,0.1-0.7,0.2c-0.2,0.1-0.4,0.2-0.6,0.4c-0.2,0.1-0.3,0.3-0.4,0.5c-0.1,0.3-0.2,0.5-0.2,0.8
		c0,0.2,0,0.4,0,0.6c0,0.3,0.1,0.4,0.1,0.5c0.1,0.2,0.2,0.4,0.3,0.5s0.3,0.3,0.5,0.5c0,0,0.1,0.1,0.3,0.1c0.1,0,0.2,0.1,0.3,0.1
		c0.2,0,0.3,0.1,0.5,0.1c0.7,0.1,1.3-0.1,1.8-0.4c0.5-0.4,0.7-0.9,0.8-1.5c0-0.4,0-0.8-0.2-1.2C38.7,77.7,38.5,77.5,38.1,77.3z
		 M38,79.3c0,0.4-0.1,0.7-0.3,1c-0.1,0.2-0.3,0.4-0.5,0.5s-0.4,0.1-0.7,0.1c-0.1,0-0.2,0-0.4-0.1c-0.1-0.1-0.2-0.1-0.3-0.2
		s-0.2-0.2-0.2-0.4c0-0.1-0.1-0.2-0.1-0.5c0-0.1,0-0.2,0-0.3c0-0.1,0-0.1,0-0.1c0-0.1,0-0.2,0-0.4c0-0.3,0.1-0.5,0.2-0.7
		c0.1-0.2,0.2-0.4,0.3-0.5s0.2-0.2,0.4-0.2c0.2-0.1,0.3-0.1,0.5-0.1c0.3,0,0.6,0.2,0.8,0.4c0.2,0.2,0.3,0.5,0.4,0.8
		c0,0.1,0,0.1,0,0.1v0.1C38.1,78.9,38,79.1,38,79.3z M44.5,77.3h-0.7h-0.6h-0.1v0.2c0.1,0,0.1,0.1,0.3,0.1s0.3,0.1,0.3,0.1
		s0,0.1,0,0.3c0,0,0,0.2,0,0.5c0,0.1,0,0.3,0,0.5s0,0.3,0,0.5c0,0.1,0,0.3,0,0.5v0.4v0.1c-1.3-1.3-2.1-2.1-2.3-2.3
		c-0.2-0.2-0.5-0.5-0.8-0.8h-0.1c0,0-0.1,0-0.2,0c-0.1,0-0.2,0-0.2,0s0,0-0.1,0s-0.2,0-0.2,0s-0.1,0-0.3,0h-0.1h-0.3v0.2
		c0.2,0,0.4,0.1,0.4,0.1c0.1,0,0.2,0.1,0.3,0.2l0.1,0.1c0,0.1,0,0.3,0,0.5v0.6v1v0.2c0,0.1,0,0.3,0,0.6c0,0.1,0,0.2-0.1,0.2
		c0,0-0.1,0-0.3,0c-0.1,0-0.1,0-0.1,0h-0.1v0.1v0.1h0.1c0,0,0.1,0,0.2,0c0.1,0,0.3,0,0.7,0s0.6,0.1,0.7,0.1h0.1v-0.3H41
		c-0.3,0-0.5,0-0.6-0.1v-0.1v-0.1c0-0.2,0-0.4,0-0.6v-0.4v-0.2c0-0.1,0-0.1,0-0.2v-1.2l0.5,0.5c0.2,0.2,0.4,0.4,0.7,0.7l0.4,0.4
		l0.5,0.5l0.8,0.8l0.4,0.4h0.4v-0.2c0,0,0-0.1,0-0.2v-0.2v-0.2v-0.4c0,0,0-0.1,0-0.2V79c0-0.1,0-0.1,0-0.2c0-0.2,0-0.4,0-0.7
		c0-0.1,0-0.2,0-0.3c0-0.1,0-0.1,0-0.1c0-0.1,0-0.1,0-0.1s0.1,0,0.2-0.1c0,0,0.1,0,0.2-0.1c0.1,0,0.1,0,0.2-0.1v-0.2
		C44.6,77.3,44.5,77.3,44.5,77.3z M54.9,78.7L54.9,78.7c0-0.1,0-0.2,0-0.2h-0.1c0,0-0.1,0-0.2,0c0,0.3-0.1,0.5-0.2,0.7
		c-0.1,0.1-0.2,0.2-0.3,0.3c-0.2,0.1-0.4,0.2-0.7,0.2c-0.4,0.1-0.7,0.1-0.8,0.1s-0.1-0.1-0.1-0.1L52.3,79c0-0.2-0.1-0.4-0.2-0.6
		v-0.1c0.2-0.1,0.4-0.1,0.7-0.2s0.4-0.1,0.5-0.1s0.1,0,0.1,0.1c0,0,0.1,0.1,0.2,0.3c0,0.1,0.1,0.2,0.1,0.2l0.2-0.1v-0.1
		c0-0.1,0-0.1-0.1-0.3c0-0.1-0.1-0.2-0.1-0.3v-0.1c0-0.1,0-0.2-0.1-0.4c0-0.1-0.1-0.2-0.1-0.4h-0.2l0,0c0,0.3,0,0.4,0,0.5
		s0,0.1-0.1,0.2c0,0-0.1,0.1-0.3,0.1c-0.2,0.1-0.4,0.1-0.8,0.2H52l-0.1-0.4L51.8,77c-0.1-0.4-0.1-0.6-0.1-0.6
		c0.2-0.1,0.4-0.1,0.7-0.2c0.2-0.1,0.4-0.1,0.6-0.1c0.1,0,0.2,0,0.2,0c0.1,0,0.1,0,0.2,0c0.1,0.1,0.2,0.2,0.3,0.2l0.2,0.2
		c0.1,0.1,0.1,0.1,0.1,0.2c0.1,0,0.1,0,0.1,0h0.1c0,0,0,0,0-0.1v-0.1L54,75.9c0-0.1-0.1-0.1-0.1-0.2c-0.3,0-0.5,0.1-0.6,0.1
		l-0.6,0.1c-0.4,0.1-0.8,0.2-1.3,0.3c-0.3,0.1-0.5,0.1-0.6,0.2c-0.1,0.2-0.3,0.2-0.5,0.2l0,0c-0.1,0-0.2,0-0.3,0.1
		c-0.1,0-0.3,0.1-0.5,0.1s-0.4,0-0.5,0c-0.2,0-0.3,0-0.3,0c0,0.1,0,0.1,0,0.1V77h0.1c0.1,0,0.1,0,0.1,0c0.1,0,0.2,0,0.3,0l0.1,0.1
		c0,0.1,0,0.1,0,0.2s-0.1,0.3-0.1,0.4s0,0.1,0,0.1L49.1,78l-0.2,1.1l-0.1,0.5c-0.1-0.1-0.2-0.3-0.2-0.4l-0.5-0.6
		c-0.2-0.3-0.4-0.6-0.5-0.8l-0.1-0.3c0,0,0,0,0-0.1v-0.1c0,0,0.1-0.1,0.2-0.1c0,0,0.2,0,0.4-0.1c0,0,0-0.1,0-0.3h-0.2
		c-0.1,0-0.2,0-0.3,0.1c-0.2,0-0.3,0.1-0.4,0.1c-0.4,0.1-0.8,0.1-1,0.1c0,0-0.1,0-0.2,0v0.3l0,0c0.1,0,0.2,0,0.3,0
		c0,0,0.1,0,0.1,0.1c0,0,0.2,0.2,0.4,0.6l0.5,0.8l0.8,1.3c0.2,0.4,0.3,0.6,0.4,0.6c0,0.1,0.1,0.1,0.1,0.2c0.1,0,0.1,0,0.2,0
		c0,0,0.1,0,0.2,0c0-0.1,0.1-0.3,0.1-0.6v-0.1c0.1-0.2,0.1-0.4,0.1-0.4c0-0.1,0.1-0.3,0.1-0.4s0.1-0.2,0.1-0.3l0.3-1.1
		c0.1-0.5,0.2-0.8,0.3-0.9c0-0.1,0-0.1,0.1-0.1c0,0,0.1-0.1,0.2-0.1l0,0c0.1,0,0.2,0,0.4,0h0.1h0.1c0,0,0,0,0,0.1l0.1,0.4l0.1,0.3
		l0.1,0.5l0.1,0.3l0.3,1.2v0.1c0,0.1,0,0.1,0,0.2s0,0.2,0,0.2c-0.1,0.1-0.2,0.1-0.4,0.2c-0.1,0-0.2,0.1-0.2,0.1l0.1,0.2l0.4-0.1h0.1
		c0.4-0.1,0.7-0.2,0.9-0.3c0.5-0.1,0.9-0.2,1.3-0.3c0.5-0.1,0.8-0.2,0.9-0.2c0.1,0,0.2,0,0.3-0.1v-0.4L54.9,78.7z M59.7,77.8
		c-0.1,0-0.1,0-0.2,0s-0.2,0-0.3,0c-0.1,0-0.2-0.1-0.4-0.3L58,76.9c-0.1-0.1-0.2-0.1-0.3-0.2c-0.1,0-0.1-0.1-0.2-0.1
		c0.2-0.2,0.4-0.4,0.5-0.6s0.1-0.4,0-0.6c-0.1-0.3-0.3-0.5-0.6-0.6s-0.7-0.1-1.1,0.1c-0.3,0.1-0.5,0.2-0.7,0.3l-0.4,0.2L55,75.5
		c0,0-0.1,0-0.2,0.1c-0.1,0.1-0.2,0.1-0.3,0.1s-0.2,0.1-0.3,0.1l0,0l0.1,0.2c0.1,0,0.2,0,0.3-0.1h0.2c0.1,0.1,0.2,0.4,0.3,0.8
		c0.1,0.2,0.1,0.4,0.2,0.6l0.1,0.2l0.1,0.3l0.1,0.4l0.2,0.7c0.1,0.2,0.1,0.3,0.1,0.3s0,0,0,0.1c-0.1,0.1-0.2,0.1-0.3,0.2
		s-0.2,0.1-0.2,0.1v0.1c0,0,0,0,0,0.1h0.1c0.1,0,0.2-0.1,0.3-0.1l0.4-0.2h0.1c0.1,0,0.3-0.1,0.8-0.2l0.1-0.1c0,0,0,0,0.1,0
		c0-0.1,0-0.1-0.1-0.2c-0.1,0-0.3,0-0.4,0c-0.1,0-0.2,0-0.3,0l-0.2-0.6L56,77.7c0-0.1-0.1-0.1-0.1-0.2c0.1,0,0.2-0.1,0.2-0.1
		c0.1-0.1,0.3-0.1,0.3,0c0.1,0,0.2,0.1,0.3,0.3c0.4,0.3,0.6,0.6,0.8,0.8c0.1,0.1,0.2,0.1,0.3,0.3L58,79c0,0,0.1,0,0.1-0.1
		c0.1-0.1,0.2-0.1,0.2-0.1l0.3-0.1c0.1,0,0.2-0.1,0.2-0.1h0.1h0.2h0.1h0.1C59.8,78,59.8,77.9,59.7,77.8
		C59.7,77.9,59.7,77.9,59.7,77.8z M57.1,76.4c-0.1,0.2-0.3,0.3-0.7,0.4c0,0-0.1,0-0.2,0.1v-0.1c-0.1-0.1-0.1-0.3-0.1-0.4L56,76.1
		l-0.1-0.2l-0.2-0.4v-0.1c0.1,0,0.1-0.1,0.2-0.1c0.2-0.1,0.3-0.1,0.4-0.1c0.1,0,0.3,0,0.4,0.1c0.1,0,0.1,0.1,0.2,0.2
		c0.1,0.1,0.1,0.2,0.2,0.3C57.2,76,57.2,76.2,57.1,76.4z M62.9,75c-0.1-0.2-0.3-0.4-0.5-0.5s-0.5-0.1-0.8,0c0.2-0.2,0.2-0.3,0.3-0.4
		C62,74,62,73.8,62,73.7s0-0.2-0.1-0.3c-0.1-0.1-0.1-0.2-0.2-0.3c-0.1-0.1-0.2-0.1-0.3-0.2c-0.1,0-0.2-0.1-0.3-0.1
		c-0.1,0-0.2,0-0.3,0c-0.2,0-0.4,0.1-0.5,0.2L60,73.2c-0.1,0-0.1,0.1-0.2,0.1c0,0,0,0-0.1,0l-0.1,0.1l-0.9,0.5l-0.6,0.3l0.1,0.2
		c0.2-0.1,0.3-0.1,0.3-0.1c0.1,0,0.2-0.1,0.2,0l0,0c0,0,0.1,0.1,0.2,0.2c0.3,0.5,0.4,0.8,0.5,1l0.6,1.2c0.1,0.2,0.2,0.4,0.2,0.5
		c0,0,0,0.1,0,0.2c-0.1,0.1-0.1,0.1-0.3,0.2c-0.1,0-0.1,0.1-0.2,0.1l0.1,0.2c0.4-0.2,0.6-0.3,0.7-0.4c0.3-0.2,0.5-0.3,0.7-0.4
		l0.5-0.2c0.2-0.1,0.4-0.2,0.5-0.3c0.2-0.1,0.3-0.3,0.4-0.4s0.2-0.3,0.2-0.4s0.1-0.2,0-0.4C63,75.3,62.9,75.1,62.9,75z M60.2,75.1
		c0-0.1-0.1-0.1-0.1-0.2L60,74.7c-0.1-0.3-0.3-0.5-0.4-0.7c0-0.1-0.1-0.1-0.1-0.2c0.1-0.1,0.2-0.2,0.3-0.2c0.3-0.1,0.5-0.2,0.7-0.1
		c0.2,0,0.3,0.2,0.4,0.3c0.1,0.3,0.1,0.5,0.1,0.7c-0.1,0.2-0.3,0.3-0.6,0.5C60.4,75,60.3,75.1,60.2,75.1z M62,76.4
		c-0.1,0.1-0.3,0.3-0.5,0.4c-0.1,0.1-0.2,0.1-0.4,0.1L61,76.8l-0.3-0.6l-0.2-0.4l-0.2-0.3c0,0,0.1-0.1,0.2-0.2
		c0.3-0.1,0.5-0.2,0.7-0.2s0.3,0,0.5,0.1c0.1,0.1,0.2,0.2,0.3,0.4c0.1,0.2,0.1,0.3,0.1,0.5C62.2,76.1,62.1,76.3,62,76.4z M66.9,72.8
		L66.9,72.8c-0.1-0.2-0.1-0.2-0.1-0.2s-0.1,0-0.1,0.1l-0.1,0.1c0.1,0.3,0.1,0.5,0,0.7c0,0.2-0.1,0.3-0.2,0.4
		c-0.1,0.2-0.4,0.3-0.6,0.5c-0.4,0.3-0.6,0.4-0.7,0.4s-0.1,0-0.2-0.1l-0.4-0.6c-0.1-0.1-0.2-0.3-0.4-0.5c0,0,0,0-0.1-0.1
		c0.1-0.1,0.3-0.2,0.6-0.4c0.2-0.2,0.4-0.2,0.4-0.2c0.1,0,0.1,0,0.2,0s0.2,0.1,0.3,0.2c0.1,0.1,0.1,0.1,0.2,0.1l0.2-0.1V73
		c0,0-0.1-0.1-0.2-0.2s-0.1-0.2-0.2-0.2c0,0,0-0.1-0.1-0.1c0-0.1-0.1-0.2-0.2-0.4c-0.1-0.1-0.1-0.2-0.2-0.3l-0.2,0.1l0,0
		c0.1,0.3,0.2,0.4,0.2,0.4c0,0.1,0,0.1,0,0.2c0,0-0.1,0.1-0.2,0.2s-0.4,0.3-0.7,0.5c0,0-0.1,0-0.1,0.1L63.8,73l-0.3-0.4
		c-0.2-0.3-0.3-0.5-0.3-0.5c0.2-0.1,0.4-0.3,0.6-0.4s0.4-0.2,0.6-0.3c0.1-0.1,0.2-0.1,0.2-0.1c0.1,0,0.1-0.1,0.2-0.1
		s0.2,0.1,0.3,0.1l0.2,0.1c0.1,0,0.1,0.1,0.2,0.1c0,0,0.1,0,0.1-0.1l0.1-0.1l0,0l-0.1-0.1L65,70.5c0-0.1-0.1-0.1-0.1-0.1
		c-0.2,0.1-0.4,0.2-0.5,0.3L63.9,71c-0.3,0.2-0.7,0.5-1.1,0.7c-0.3,0.2-0.4,0.3-0.5,0.3c-0.2,0.1-0.4,0.2-0.5,0.3
		c-0.1,0-0.2,0.1-0.3,0.2l0.1,0.2c0,0,0.1,0,0.1-0.1c0.1-0.1,0.2-0.1,0.3-0.2h0.1h0.1c0,0,0,0,0,0.1l0.2,0.3l0.2,0.3l0.3,0.4
		l0.2,0.3l0.7,1v0.1c0.1,0.1,0.1,0.1,0.1,0.2s0.1,0.2,0.1,0.2c0,0.1-0.2,0.2-0.3,0.3c-0.1,0.1-0.2,0.1-0.2,0.2l0.1,0.2l0.3-0.2
		l0.1-0.1c0.3-0.2,0.6-0.4,0.8-0.6c0.4-0.3,0.8-0.5,1.1-0.7c0.5-0.3,0.7-0.4,0.8-0.5c0.1,0,0.2-0.1,0.3-0.2l-0.2-0.3L66.9,72.8z
		 M74,66.9c-0.1,0-0.2,0.1-0.2,0.2c-0.1,0.1-0.1,0.1-0.2,0.1c0,0-0.1,0-0.2,0c-0.2-0.1-0.3-0.1-0.4-0.1c-0.2-0.1-0.3-0.1-0.5-0.2
		s-0.4-0.1-0.6-0.2c-0.3-0.1-0.5-0.2-0.8-0.3l-1.3-0.5h-0.1L69.6,66c0,0-0.1,0.1-0.1,0.2l0.9,1.9l0.8,1.6c0,0.1,0.1,0.2,0,0.2
		c0,0,0,0.1-0.1,0.3c0,0.1-0.1,0.1-0.1,0.2h-0.1c-0.1,0-0.2,0.1-0.3,0.1c-0.1,0-0.2,0-0.4-0.1l-0.9-0.3c-0.1,0-0.2-0.1-0.4-0.1
		c-0.1,0-0.1,0-0.2-0.1c0.2-0.3,0.2-0.5,0.2-0.7s-0.1-0.4-0.2-0.6c-0.2-0.2-0.5-0.3-0.8-0.3s-0.7,0.1-1,0.4
		c-0.2,0.2-0.4,0.4-0.6,0.6L66,69.4l-0.1,0.1c0,0-0.1,0.1-0.2,0.1c-0.1,0.1-0.2,0.2-0.2,0.2c-0.1,0.1-0.1,0.1-0.2,0.2l0,0l0.1,0.1
		c0.1,0,0.1-0.1,0.3-0.2l0.2-0.1c0.1,0.1,0.3,0.3,0.6,0.6c0.1,0.2,0.3,0.3,0.4,0.5L67,71l0.2,0.2l0.2,0.3l0.5,0.5
		c0.1,0.1,0.2,0.2,0.2,0.2s0,0,0,0.1s-0.1,0.2-0.2,0.2c-0.1,0.1-0.1,0.2-0.1,0.2s0,0.1,0.1,0.1c0,0,0,0,0.1,0.1l0.1-0.1
		c0.1-0.1,0.2-0.2,0.3-0.3l0.3-0.3c0,0,0,0,0.1-0.1s0.3-0.2,0.7-0.5l0.1-0.1c0,0,0,0,0.1,0c0,0-0.1-0.1-0.1-0.2
		c-0.1,0-0.3,0.1-0.4,0.2c-0.1,0-0.2,0.1-0.2,0.1l-0.4-0.5l-0.5-0.5C68,70.5,68,70.5,68,70.4c0.1-0.1,0.1-0.1,0.2-0.1
		c0.1-0.1,0.2-0.2,0.3-0.2c0.1,0,0.2,0,0.4,0.1c0.5,0.2,0.8,0.3,1,0.4c0.1,0,0.2,0.1,0.4,0.1l0.2,0.1l0.1-0.1
		c0.1-0.1,0.1-0.1,0.2-0.2l0.3-0.2c0.1-0.1,0.1-0.1,0.2-0.2l0.1-0.1l0.1-0.1l0,0l0.1-0.1l0,0c0.1-0.1,0.1-0.2,0.2-0.3l0.1-0.1
		c0.4-0.4,0.6-0.6,0.7-0.7c0,0,0,0-0.1-0.1l-0.1-0.1c-0.1,0.1-0.2,0.1-0.2,0.1c-0.1,0.1-0.2,0.1-0.3,0.2h-0.1c0,0-0.1-0.1-0.1-0.2
		c-0.2-0.4-0.3-0.6-0.4-0.7l0.8-0.9l0.6,0.2l0.3,0.1h0.1c0,0,0,0,0,0.1c0,0,0,0.1-0.1,0.2l-0.2,0.3l0.1,0.1l0.1-0.1l0.3-0.4
		c0-0.1,0.1-0.2,0.2-0.3c0.1-0.1,0.2-0.2,0.4-0.4c0.1-0.1,0.3-0.3,0.4-0.4l0,0C74.1,67,74,66.9,74,66.9z M68.1,69.8
		c0,0.2-0.2,0.4-0.5,0.7c0,0-0.1,0.1-0.2,0.1l-0.1-0.1c-0.1-0.1-0.2-0.2-0.2-0.3L67,69.9l-0.2-0.2l-0.3-0.3v-0.1
		c0-0.1,0.1-0.1,0.2-0.2c0.2-0.1,0.3-0.2,0.4-0.3c0.1-0.1,0.2-0.1,0.4-0.1c0.1,0,0.2,0,0.3,0.1c0.1,0.1,0.2,0.1,0.3,0.2
		C68.1,69.4,68.1,69.6,68.1,69.8z M71.4,67.5c-0.1,0.1-0.3,0.3-0.6,0.7L70.2,67c0.1,0,0.3,0.1,0.6,0.2C71,67.2,71.2,67.3,71.4,67.5
		L71.4,67.5z M17.7,29.5c0.2,0.4,0.9,0.4,1.6,0s1.1-1,0.9-1.4s-0.9-0.4-1.6,0C18,28.6,17.5,29.2,17.7,29.5z M35.3,54
		c0.4,0.1,0.8,0.1,1.3,0.1c0.6,0,1.1,0,1.5-0.1s0.7-0.2,1-0.4l0.1-0.3l0.1-0.2c0.1-0.5,0.1-0.7,0.1-0.8c0-0.2,0.1-0.3,0.1-0.5
		c-0.2,0-0.4,0-0.5,0c-0.4,0.6-0.7,1-1.1,1.3c-0.4,0.3-0.8,0.4-1.2,0.4s-0.7-0.1-1.1-0.3c-0.3-0.1-0.5-0.3-0.6-0.6
		c-0.2-0.3-0.4-0.7-0.5-1.2c-0.1-0.3-0.1-0.8-0.1-1.5c0-1.2,0.2-2.2,0.7-2.9c0.4-0.5,0.8-0.8,1.4-0.8c0.5,0,0.9,0.1,1.3,0.4
		c0.4,0.3,0.8,0.7,1.1,1.2h0.5c0-0.3,0-0.6-0.1-0.9c-0.1-0.6-0.2-1-0.3-1.1c-0.4-0.1-0.7-0.2-1.1-0.2c-0.4-0.1-0.8-0.1-1.3-0.1
		c-1.1,0-2.1,0.4-2.8,1.2s-1.1,1.9-1.1,3.1c0,0.5,0.1,1,0.2,1.4c0.1,0.4,0.3,0.8,0.5,1.2s0.6,0.7,1,1C34.5,53.7,34.9,53.9,35.3,54z
		 M48.9,53.3c-0.1,0-0.1,0-0.2,0.1l-0.5,0.1l-0.4,0.1c0,0.1,0,0.2,0,0.4c0.1,0,0.1,0,0.2,0c0.5-0.1,0.9-0.1,1.2-0.1
		c0.7,0,1.2,0,1.5,0.1c0.2,0,0.4,0,0.6,0c0,0,0.1,0,0.3,0v-0.4c-0.2-0.1-0.4-0.2-0.8-0.3c-0.1,0-0.1,0-0.2-0.1c0-0.2,0-0.4,0-0.5V52
		v-0.9c0-0.6,0-1,0-1.1v-0.8v-0.6v-0.8c0,0,0-0.1,0-0.3v-0.2c0,0,0-0.1,0-0.2V47v-0.2v-0.1v-0.1c0.1-0.1,0.2-0.1,0.3-0.1
		s0.3-0.1,0.7-0.2c0-0.1,0-0.3,0-0.4c-0.2,0-0.3,0-0.4,0c-0.1,0-0.3,0-0.4,0c-0.1,0-0.1,0-0.2,0h-0.7c0,0-0.1,0-0.2,0
		c-0.4,0-0.7,0-1.1-0.1h-0.5c0,0-0.1,0-0.2,0c0,0.1,0,0.2,0,0.4c0.1,0,0.1,0,0.2,0.1c0.4,0.1,0.7,0.2,0.8,0.3l0.1,0.1v0.4v1.1v0.3
		c0,0.6,0,0.9,0,1.1c-0.1,0-0.3,0-0.4,0h-1h-1h-0.4h-0.8c-0.1,0-0.2,0-0.3,0c0-0.2,0-0.4,0-0.5s0-0.1,0-0.2c0-0.1,0-0.2,0-0.2
		s0-0.1,0-0.2v-0.8v-0.1v-0.1v-0.2V47v-0.1v-0.2c0-0.1,0-0.1,0.1-0.2l1-0.2c0-0.1,0-0.2,0-0.2s0-0.1,0-0.2c-0.1,0-0.2,0-0.4,0
		c-0.1,0-0.2,0-0.3,0c-0.5,0-0.8,0.1-0.9,0.1c-0.1,0-0.2,0-0.3,0s-0.2,0-0.3,0c-0.2,0-0.6,0-1-0.1c-0.1,0-0.1,0-0.3,0
		c-0.1,0-0.2,0-0.3,0c0,0.1,0,0.2,0,0.2s0,0.1,0,0.2c0.1,0,0.1,0,0.2,0.1h0.1c0.2,0,0.3,0,0.5,0.1h0.1h0.1c0,0.1,0,0.1,0,0.1
		c0,0.3,0,0.6,0,0.9v0.3v0.6v0.5v0.2c0,0.7,0,1.1,0,1.3v0.2c0,0.3,0,0.7,0,1.3l-0.1,1.6c-0.1,0-0.2,0.1-0.3,0.1l-0.7,0.1
		c0,0.2,0,0.3,0,0.4c0.5,0,0.9,0,1.1-0.1c0,0,0.1,0,0.3,0h0.1c0.3,0,0.6,0,0.8,0h0.8h0.1c0.1,0,0.1,0,0.2,0c0.1,0,0.2,0,0.3,0
		c0-0.1,0-0.2,0-0.2s0-0.1,0-0.2c0,0-0.1,0-0.1-0.1h-0.1L45,53.4h-0.1c0-0.1,0-0.2,0-0.3v-2c0,0,0-0.1,0-0.2v-0.1v-0.5
		c0.1,0,0.2,0,0.2,0h0.2c0.1,0,0.2,0,0.2,0h0.1l0,0h0.1h2.6c0.2,0,0.3,0,0.4,0c0,0.3,0,0.6,0,0.8v0.5C49,52.4,48.9,52.9,48.9,53.3z
		 M48.4,19.6l1.3,2.5l-2.8,0.8l5.9,0.9L48.4,19.6z M44.8,17l0.8,3.1l-3.7,1.2l6.9,0.3L44.8,17z M41.7,15.8l0.4,2.8l-3.6,1.2l6-0.3
		L41.7,15.8z M38.3,14.2l0.6,2.8L35,18.5l6.4-0.5L38.3,14.2z M34.6,12.4l1,3.1l-3.9,1.2l5.9-0.4L34.6,12.4z M31.3,11.2l1,2.6
		l-4.1,1.1l6-0.1L31.3,11.2z M28.2,10.2l0.9,1.9L26,12.8l5.1,0.3L28.2,10.2z M26.2,10.2l0.4,1.1L25,11.8h3.2L26.2,10.2z M25.7,10.7
		l-1.4-0.4l-1.4-1.2l-0.1,0.5l-1.5,0.3l2.6,0.8l-0.8,0.5L25.7,10.7z"/>
</g>
</svg>
