<?xml version="1.0" encoding="utf-8"?>
<!-- Generator: Adobe Illustrator 19.0.0, SVG Export Plug-In . SVG Version: 6.00 Build 0)  -->
<svg version="1.1" id="Capa_1" xmlns="http://www.w3.org/2000/svg" xmlns:xlink="http://www.w3.org/1999/xlink" x="0px" y="0px"
	 viewBox="0 0 453.5 56.7" style="enable-background:new 0 0 453.5 56.7;" xml:space="preserve">
<style type="text/css">
	.st0{fill:#FFFFFF;}
</style>
<g id="XMLID_53_">
	<g id="XMLID_116_">
		<path id="XMLID_145_" class="st0" d="M119,0.8c0.8,0.2,1.7,0.4,2.5,0.5c0.3,0,0.5,0.4,0.5,1c0,1,0.1,2.3,0.2,3.3
			c0,0.8-0.2,1.4-0.6,1.4c-0.2,0-0.5-0.4-0.7-1c-0.4-1.1-0.9-2.1-1.5-2.6c-1.5-1.3-3.3-2.1-5.2-2.1c-5.6,0-9.6,5.3-9.6,10.8
			c0,2.4,0.5,4.5,1.3,6.1c1.9,4,6.4,4.6,9.2,4.6c0.5,0,2.2-0.1,3.4-0.8c1.3-0.8,2.3-1.8,3.1-3.3c0.4-0.8,0.7-1.1,1-1.1
			c0.4,0,0.4,0.9,0.3,1.3c-0.2,0.9-0.7,2.5-1.1,3.1c-0.1,0.3-0.7,0.9-1.3,1.2c-0.5,0.2-2.9,1-6.2,1c-5.2,0-9-2.4-10.4-4.1
			c-1.3-1.6-3-4.1-3-8.1c0-4.4,2.4-7.4,3.9-8.7c3-2.5,6.7-3.2,9.6-3.2C116.1,0.2,117.8,0.5,119,0.8z"/>
		<path id="XMLID_143_" class="st0" d="M22.3,0.8C23.1,1,24,1.2,24.8,1.3c0.2,0,0.5,0.4,0.5,1c0,1,0.1,2.3,0.2,3.3
			c0,0.8-0.2,1.4-0.6,1.4c-0.2,0-0.5-0.4-0.7-1c-0.4-1.1-0.9-2.1-1.5-2.6c-1.5-1.3-3.3-2.1-5.2-2.1c-5.6,0-9.6,5.3-9.6,10.8
			c0,2.4,0.5,4.5,1.3,6.1c1.9,4,6.4,4.6,9.2,4.6c0.5,0,2.2-0.1,3.4-0.8c1.3-0.8,2.3-1.8,3.1-3.3c0.4-0.8,0.7-1.1,1-1.1
			c0.4,0,0.4,0.9,0.3,1.3c-0.2,0.9-0.7,2.5-1.1,3.1c-0.1,0.3-0.7,0.9-1.3,1.2c-0.5,0.2-2.9,1-6.2,1c-5.2,0-9-2.4-10.4-4.1
			c-1.3-1.6-3-4.1-3-8.1c0-4.4,2.4-7.4,3.9-8.7c3-2.5,6.7-3.2,9.6-3.2C19.3,0.2,21,0.5,22.3,0.8z"/>
		<path id="XMLID_141_" class="st0" d="M35,11.4c2.2,0,6.9,0,10.4,0c0.1,0,0.7-0.3,0.7-1.3c0-1.1,0-4.1,0-6.1c0-1.3-0.9-1.7-2.3-2.1
			c-0.5-0.1-1-0.4-1-0.7c0-0.3,0.3-0.5,1.1-0.5c0.4,0,6.8,0,7.2,0c0.6,0,1,0.2,1,0.5c0,0.4-0.3,0.6-1,0.8c-1.2,0.3-1.9,0.7-1.9,1.7
			c0,2.3,0,4.5,0,10.1c0,3.5,0,5.1,0,6.6c0,1.4,1.1,1.7,2.4,2.1c0.6,0.2,0.9,0.5,0.9,0.8c0,0.4-0.4,0.6-1,0.6s-6.6,0-7.3,0
			c-0.8,0-1.1-0.2-1.1-0.5s0.4-0.6,0.9-0.8c1.6-0.5,2.1-0.4,2.1-3.4c0-1.9,0-4.4,0-5.8c0-0.3-0.5-0.5-0.7-0.5c-2.6,0-9.7-0.1-10.4,0
			c-0.2,0-0.6,0.3-0.6,0.5c0,1.3-0.1,5.2,0,6.4c0.1,1.7,1.1,2.2,2.4,2.7c0.7,0.2,1.2,0.5,1.2,0.9s-0.6,0.5-1,0.5c-0.2,0-6.5,0-7.6,0
			c-0.8,0-1.1-0.2-1.2-0.5c0-0.4,0.3-0.6,0.9-0.8c1.4-0.4,2.4-0.8,2.4-2.3c0-1.9,0-6.1,0-11.8c0-1.1,0-2.6,0-4.5
			c0-1.2-1-1.6-2.1-1.9c-0.8-0.3-1.1-0.5-1.1-0.8c0-0.4,0.4-0.5,1-0.5c0.9,0,6.4,0,7.2,0c0.7,0,1.1,0.1,1.1,0.5s-0.4,0.6-1.1,0.8
			c-1.4,0.3-2,1-2,2.5c0,1.3-0.1,5.5,0,6.2C34.4,10.9,34.7,11.4,35,11.4z"/>
		<path id="XMLID_139_" class="st0" d="M55,0.7c1.4,0,7.1,0,7.8,0c0.6,0,1,0.3,1,0.5c0,0.3-0.4,0.6-1,0.7c-1.2,0.3-1.4,0.7-1.6,2.1
			c-0.2,1.2-0.1,4.7-0.1,9.7c0,4.2,0.2,6,1.7,7.3c1,0.9,3.1,1.3,4.1,1.3c3.8,0,6.6-2.1,6.6-6.1c0-2.7,0-4,0-8.9c0-2.3,0-3.1,0-3.5
			c0-1.3-0.9-1.7-2.5-2.1c-0.3-0.1-0.9-0.4-0.9-0.7c0-0.2,0.3-0.4,0.9-0.4c0.8,0,5.3,0,6.2,0c0.5,0,0.8,0.3,0.8,0.5
			s-0.4,0.5-0.9,0.6c-1.6,0.4-2.1,1.1-2.2,3.4c0,1.7,0,6.6,0,8.5c0,6.2-1.1,8-3.5,9.5c-1.5,0.9-4.4,1.1-5.7,1.1
			c-3,0-5.2-1.1-6.3-2.2c-1.9-1.9-2.3-2.7-2.3-9.8c0-2.7,0-6,0-8.8c0-0.7-1-1.3-2.2-1.6C54.5,1.7,54,1.4,54,1.1
			C54,0.9,54.5,0.7,55,0.7z"/>
		<path id="XMLID_137_" class="st0" d="M258.9,0.7c1.4,0,7.1,0,7.8,0c0.6,0,1,0.3,1,0.5c0,0.3-0.4,0.6-1,0.7
			c-1.2,0.3-1.4,0.7-1.6,2.1c-0.2,1.2-0.1,4.7-0.1,9.7c0,4.2,0.2,6,1.7,7.3c1,0.9,3.1,1.3,4.1,1.3c3.8,0,6.6-2.1,6.6-6.1
			c0-2.7,0-4,0-8.9c0-2.3,0-3.1,0-3.5c0-1.3-0.9-1.7-2.5-2.1C274.6,1.6,274,1.3,274,1c0-0.2,0.3-0.4,0.9-0.4c0.8,0,5.3,0,6.2,0
			c0.5,0,0.8,0.3,0.8,0.5s-0.4,0.5-0.9,0.6c-1.6,0.4-2.1,1.1-2.2,3.4c0,1.7,0,6.6,0,8.5c0,6.2-1.1,8-3.5,9.5
			c-1.5,0.9-4.4,1.1-5.7,1.1c-3,0-5.2-1.1-6.3-2.2c-1.9-1.9-2.3-2.7-2.3-9.8c0-2.7,0-6,0-8.8c0-0.7-1-1.3-2.2-1.6
			c-0.4-0.1-0.9-0.4-0.9-0.7C257.9,0.9,258.3,0.7,258.9,0.7z"/>
		<path id="XMLID_134_" class="st0" d="M96.4,11.6c-0.1,0.1-1.7,0.5-2.2,0.8C94,12.5,92.8,13,93,13c2.1,1.4,5.4,5.8,7,7.9
			c0.9,1.2,1.8,1.6,2.8,1.8c0.3,0.1,0.6,0.4,0.6,0.5c0,0.2-0.3,0.5-0.5,0.5c-0.5,0.2-2.2,0.3-2.2,0.3s-2.5-0.1-4.5-2.6
			c-1-1.3-3.2-3.9-5.3-6.6c-0.4-0.5-0.8-1.3-1-1.5s-2.5-0.5-3.1-0.5c-0.1,0-0.3,0.2-0.3,0.4c0,1.5,0,4.9,0,7.2
			c0,1.6,0.3,1.9,1.8,2.3c0.6,0.2,0.8,0.4,0.8,0.7c0,0.4-1,0.5-1,0.5l-7.3-0.1c0,0-1-0.3-1-0.6c0-0.2,0.4-0.4,0.8-0.6
			c1.5-0.5,2.9-0.9,2.9-2.1c0-3.3,0-5.8,0-8.9c0-3.8,0-6.2,0-7.9c0-0.9-1.3-1.4-2.8-1.8c-0.5-0.1-0.8-0.4-0.8-0.7
			c0-0.3,0.4-0.5,0.9-0.5c1,0,1.7,0,2.4,0c1.2,0,6.3-0.2,8.1-0.2c1.5,0,4.1,0.1,5.7,1.6c1,0.9,1.8,2.6,1.8,4.3
			C98.7,8.8,97.9,10.3,96.4,11.6z M93.3,3.1c-0.8-0.9-1.8-1.3-2.6-1.3c-0.1,0-3.4,0.1-3.6,0.3c-0.2,0.1-0.4,0.6-0.4,0.8
			c0,2.1,0,6.3,0,8.5c0,0.2,0.2,0.4,0.4,0.4c1.7,0,5.6-0.5,5.9-0.8c0.9-0.7,1.8-2,1.8-4C94.7,6,94.4,4.4,93.3,3.1z"/>
		<path id="XMLID_132_" class="st0" d="M131.6,11.4c2.3,0,7,0,10.5,0c0.1,0,0.7-0.3,0.7-1.3c0-1.1,0-4.1,0-6.1c0-1.3-1-1.7-2.3-2.1
			c-0.5-0.1-1-0.4-1-0.7c0-0.3,0.3-0.5,1.1-0.5c0.4,0,6.9,0,7.3,0c0.6,0,1,0.2,1,0.5c0,0.4-0.3,0.6-1,0.8c-1.2,0.3-1.9,0.7-1.9,1.7
			c0,2.3,0,4.5,0,10.1c0,3.5,0,5.1,0,6.6c0,1.4,1.1,1.7,2.4,2.1c0.6,0.2,0.9,0.5,0.9,0.8c0,0.4-0.4,0.6-1,0.6s-6.7,0-7.4,0
			c-0.8,0-1.1-0.2-1.1-0.5s0.4-0.6,0.9-0.8c1.6-0.5,2.1-0.4,2.1-3.4c0-1.9,0-4.4,0-5.8c0-0.3-0.5-0.5-0.7-0.5c-2.7,0-9.9-0.1-10.5,0
			c-0.2,0-0.6,0.3-0.6,0.5c0,1.3-0.1,5.2,0,6.4c0.1,1.7,1.1,2.2,2.4,2.7c0.7,0.2,1.2,0.5,1.2,0.9s-0.6,0.5-1.1,0.5
			c-0.2,0-6.6,0-7.7,0c-0.9,0-1.2-0.2-1.2-0.5c0-0.4,0.4-0.6,0.9-0.8c1.5-0.4,2.5-0.8,2.5-2.3c0-1.9,0-6.1,0-11.8c0-1.1,0-2.6,0-4.5
			c0-1.2-1-1.6-2.1-1.9c-0.8-0.3-1.1-0.5-1.1-0.8c0-0.4,0.4-0.5,1-0.5c0.9,0,6.5,0,7.3,0c0.7,0,1.1,0.1,1.1,0.5s-0.4,0.6-1.1,0.8
			c-1.4,0.3-2,1-2,2.5c0,1.3-0.1,5.5,0,6.2C131,10.9,131.3,11.4,131.6,11.4z"/>
		<path id="XMLID_130_" class="st0" d="M219.2,11.4c2.3,0,7.1,0,10.5,0c0.1,0,0.7-0.3,0.7-1.3c0-1.1,0-4.1,0-6.1
			c0-1.3-1-1.7-2.3-2.1c-0.5-0.1-1-0.4-1-0.7c0-0.3,0.3-0.5,1.1-0.5c0.4,0,6.9,0,7.3,0c0.6,0,1,0.2,1,0.5c0,0.4-0.3,0.6-1,0.8
			c-1.2,0.3-1.9,0.7-1.9,1.7c0,2.3,0,4.5,0,10.1c0,3.5,0,5.1,0,6.6c0,1.4,1.1,1.7,2.5,2.1c0.6,0.2,0.9,0.5,0.9,0.8
			c0,0.4-0.4,0.6-1,0.6s-6.7,0-7.4,0c-0.8,0-1.1-0.2-1.1-0.5s0.4-0.6,0.9-0.8c1.6-0.5,2.1-0.4,2.1-3.4c0-1.9,0-4.4,0-5.8
			c0-0.3-0.5-0.5-0.7-0.5c-2.7,0-9.9-0.1-10.5,0c-0.2,0-0.6,0.3-0.6,0.5c0,1.3-0.1,5.2,0,6.4c0.1,1.7,1.1,2.2,2.4,2.7
			c0.7,0.2,1.2,0.5,1.2,0.9s-0.6,0.5-1.1,0.5c-0.2,0-6.6,0-7.7,0c-0.9,0-1.2-0.2-1.2-0.5c0-0.4,0.4-0.6,0.9-0.8
			c1.5-0.4,2.5-0.8,2.5-2.3c0-1.9,0-6.1,0-11.8c0-1.1,0-2.6,0-4.5c0-1.2-1-1.6-2.1-1.9c-0.8-0.3-1.1-0.5-1.1-0.8
			c0-0.4,0.4-0.5,1-0.5c0.9,0,6.5,0,7.3,0c0.7,0,1.1,0.1,1.1,0.5s-0.4,0.6-1.1,0.8c-1.4,0.3-2,1-2,2.5c0,1.3-0.1,5.5,0,6.2
			C218.6,10.9,218.9,11.4,219.2,11.4z"/>
		<path id="XMLID_128_" class="st0" d="M154.6,4.7c0-1.7-0.7-2.3-2.3-2.7c-0.8-0.2-1-0.5-1-0.7c0-0.3,0.5-0.5,1-0.5
			c0.9,0,6.5,0,7.6,0c0.6,0,1,0.1,1,0.5c0,0.3-0.5,0.6-1,0.7c-1.6,0.3-2.2,1.3-2.2,2.2c0,1.7,0,2.2,0,8.4c0,4.4,0,5.4,0,7
			c0,2.1,0.7,2.6,2.5,3.1c0.6,0.1,0.9,0.4,0.9,0.8c0,0.4-0.6,0.5-1,0.5c-1.3,0-6.8,0-8,0c-0.8,0-1-0.3-1-0.7c0-0.3,0.3-0.5,1-0.7
			c1.5-0.4,2.5-1.2,2.5-2.7c0-1.9,0-5.1,0-8.2C154.6,9.8,154.6,6.4,154.6,4.7z"/>
		<path id="XMLID_126_" class="st0" d="M165.1,0.8c1,0,2.6,0.1,3.7,0.1c1.5,0,2.6-0.1,3.5-0.1s1.2,0.2,1.2,0.4
			c0,0.3-0.4,0.6-0.8,0.7c-2,0.5-2.3,1-2.3,1.4c-0.3,1.8-0.3,5.5-0.3,10.8c0,2.5,0,5.5,0.2,6.7c0.1,0.9,2.4,1.8,2.5,1.8
			c0.7,0.1,2,0.2,3.1,0.2c0.8,0,2,0,2.7-0.2c0.3-0.1,0.9-0.6,1.4-0.9c0.5-0.5,1.4-1.3,2.3-2.8c0.3-0.5,0.7-0.7,1-0.7s0.3,0.4,0.1,1
			c-0.4,1.3-1,3.2-1.2,4.3c-0.1,0.2-0.7,0.6-0.9,0.6c-0.6,0-15.8,0-16.9,0c-0.7,0-1.1-0.1-1.1-0.5c0-0.3,0.3-0.6,0.9-0.7
			c2-0.4,2.4-1,2.6-2.6c0.1-0.9,0.2-4.7,0.2-9.9c0-3.5,0-4.9,0-6.1s-0.2-1.8-1.9-2.2c-0.7-0.2-1-0.4-1-0.7
			C164,0.9,164.5,0.8,165.1,0.8z"/>
		<path id="XMLID_124_" class="st0" d="M185.7,0.8c1,0,2.6,0.1,3.7,0.1c1.5,0,2.6-0.1,3.5-0.1s1.2,0.2,1.2,0.4
			c0,0.3-0.4,0.6-0.8,0.7c-2,0.5-2.3,1-2.3,1.4c-0.3,1.8-0.3,5.5-0.3,10.8c0,2.5,0,5.5,0.2,6.7c0.1,0.9,2.4,1.8,2.5,1.8
			c0.7,0.1,2,0.2,3.1,0.2c0.8,0,2,0,2.7-0.2c0.3-0.1,0.9-0.6,1.4-0.9c0.5-0.5,1.4-1.3,2.3-2.8c0.3-0.5,0.7-0.7,1-0.7s0.3,0.4,0.1,1
			c-0.4,1.3-1,3.2-1.2,4.3c-0.1,0.2-0.7,0.6-0.9,0.6c-0.6,0-15.8,0-16.9,0c-0.7,0-1.1-0.1-1.1-0.5c0-0.3,0.3-0.6,0.9-0.7
			c2.1-0.4,2.4-1,2.6-2.6c0.1-0.9,0.2-4.7,0.2-9.9c0-3.5,0-4.9,0-6.1s-0.2-1.8-1.9-2.2c-0.7-0.2-1-0.4-1-0.7
			C184.6,0.9,185.1,0.8,185.7,0.8z"/>
		<path id="XMLID_121_" class="st0" d="M258.7,11.9c0,4.7-1.8,7.8-4.1,9.8c-1.9,1.6-4.6,2.6-7.2,2.6c-3.4,0-6.4-1.4-8.5-3.9
			c-1.8-2.1-2.8-4.9-2.8-8.3c0-4.4,1.8-7.2,4.2-9.4c1.5-1.3,4.2-2.6,7-2.6C254.5,0.2,258.7,6.1,258.7,11.9z M242.8,3.3
			c-1.1,1.2-3.2,3.6-3.2,9c0,8,3.6,10.9,8.4,10.9c1.8,0,4.1-1.2,4.5-1.7c1.8-1.9,2.7-2.3,2.7-8.5c0-3.9-0.9-7.2-3.4-9.6
			c-2.1-2-4-1.9-5.4-1.9C245,1.5,243.6,2.5,242.8,3.3z"/>
		<path id="XMLID_119_" class="st0" d="M294,0.8c0.1,0,0.4,0.5,0.4,0.7c0,0.5,0.3,3.2,0.3,3.4c0,0.5-0.1,0.9-0.3,0.9
			c-0.3,0-0.8-0.3-0.9-0.9c-0.3-1.2-1-2.2-1.4-2.6c-0.8-0.7-1.6-1-2.6-1c-1.5,0-4.5,1.4-4.5,3.8c0,2.1,1.7,3.5,5.3,5.5
			c4.6,2.6,5.7,4.8,5.7,7c0,1.9-0.9,4-2.8,5.3c-1.1,0.8-3.8,1.3-5.4,1.3c-1.9,0-3.4-0.4-4.7-0.9c-0.3-0.1-0.8-0.9-0.8-1
			c-0.3-1.3-0.6-2.8-0.6-3.9c0-0.3,0.4-0.8,0.5-0.8c0.3,0,0.8,0.9,1.3,2c1,2.2,2.9,3.6,4.5,3.6c3.9,0,5.3-1.6,5.3-3.9
			c0-1.5-1.4-3.5-4.6-5.4c-3.8-2.3-6.5-4.1-6.5-7.3c0-2.1,0.9-3.8,1.9-4.7c1.1-1,3-1.7,5.6-1.7C291.4,0.2,293.2,0.7,294,0.8z"/>
		<path id="XMLID_117_" class="st0" d="M310.7,0.8c1.2,0,2.7-0.1,3.2-0.2c0.1,0,0.4,0.2,0.4,0.5c0,0.7,0,3.1,0,3.9
			c0,0.5-0.3,1-0.6,1c-0.3,0-0.6-0.5-0.7-0.9c-0.5-2-1.5-2.6-2.4-2.7c-0.7-0.1-2.3-0.3-5.1-0.2c-0.1,0-2.1,0.1-2.1,1
			c-0.1,0.9,0,5.9,0,7.9c0,0.1,0,0.4,0.2,0.4h4.6c2.6,0,2.5-0.1,3.2-1.7c0.2-0.5,0.5-0.9,0.8-0.9s0.4,0.6,0.4,1
			c-0.1,1-0.1,1.7-0.1,2.5c0,1,0.1,1.6,0.1,2.5c0,0.6-0.2,1.1-0.5,1.1s-0.6-0.4-0.7-0.8c-0.5-1.6-1-1.8-2.4-1.9
			c-1.2-0.1-4.2-0.1-5.3-0.1c-0.1,0-0.3,0.4-0.3,0.4c-0.1,1,0,3.8,0,5c0,0.9-0.1,2.2,0,3c0.1,0.3,2,0.8,2.4,0.9
			c0.6,0.1,1.7,0.2,3,0.2c1.1,0,2.5,0,3.4-0.3c1.1-0.4,2.1-1.3,2.9-2.7c0.5-0.9,0.8-1.3,1.1-1.3c0.4,0,0.3,0.8,0.3,1.1
			s-1.1,3.6-1.4,4.2c-0.1,0.3-0.7,0.5-0.9,0.5c-0.4,0-9.5-0.2-12.3-0.2c-2.5,0-2.9,0.2-4.2,0.2c-0.7,0-1.3-0.1-1.3-0.5
			c0-0.3,0.5-0.6,1.1-0.7c1.9-0.4,2.2-0.8,2.3-2.7c0.1-1.5,0-4.3,0-8.7c0-4.3,0.1-5.9,0-7c-0.1-1.3,0.1-2-1.5-2.3
			c-0.8-0.1-1.2-0.3-1.2-0.6c0-0.3,0.6-0.5,1.1-0.5c1.7,0,4.7,0.1,6.7,0.1h5.8V0.8z"/>
	</g>
	<g id="XMLID_59_">
		<path id="XMLID_114_" class="st0" d="M18.6,36.2c-0.8-0.6-1.8-0.9-3-0.9c-0.5,0-1,0-1.5,0.2c-0.5,0.1-0.9,0.3-1.3,0.5
			s-0.7,0.5-0.9,0.9c-0.2,0.4-0.3,0.9-0.3,1.5c0,0.5,0.2,1,0.5,1.3s0.8,0.6,1.3,0.8s1.1,0.4,1.8,0.5c0.7,0.1,1.4,0.3,2.1,0.5
			s1.4,0.4,2.1,0.6c0.7,0.2,1.3,0.5,1.8,0.9s1,0.9,1.3,1.4c0.3,0.6,0.5,1.3,0.5,2.2c0,0.9-0.2,1.7-0.6,2.4s-1,1.2-1.6,1.6
			c-0.7,0.4-1.4,0.7-2.2,0.9c-0.8,0.2-1.6,0.3-2.4,0.3c-1,0-1.9-0.1-2.8-0.4c-0.9-0.2-1.7-0.6-2.3-1.1c-0.7-0.5-1.2-1.1-1.6-1.9
			s-0.6-1.7-0.6-2.8h2.2c0,0.7,0.1,1.4,0.4,1.9s0.7,1,1.1,1.3c0.5,0.3,1,0.6,1.6,0.8c0.6,0.2,1.3,0.2,1.9,0.2c0.5,0,1.1-0.1,1.6-0.2
			s1-0.3,1.4-0.5s0.8-0.6,1-1c0.3-0.4,0.4-0.9,0.4-1.6c0-0.6-0.2-1.1-0.5-1.5s-0.8-0.7-1.3-0.9s-1.1-0.4-1.8-0.6
			c-0.7-0.1-1.4-0.3-2.1-0.5s-1.4-0.3-2.1-0.5s-1.3-0.5-1.8-0.8s-1-0.8-1.3-1.3s-0.5-1.2-0.5-2c0-0.9,0.2-1.7,0.5-2.3
			c0.4-0.7,0.8-1.2,1.5-1.6c0.6-0.4,1.3-0.7,2.1-0.9c0.8-0.2,1.6-0.3,2.4-0.3c0.9,0,1.8,0.1,2.5,0.3c0.8,0.2,1.5,0.6,2,1
			c0.6,0.5,1,1,1.4,1.7c0.3,0.7,0.5,1.5,0.6,2.5H20C19.9,37.7,19.4,36.8,18.6,36.2z"/>
		<path id="XMLID_112_" class="st0" d="M33.1,40.9c-0.5-0.4-1.2-0.7-2.1-0.7c-0.8,0-1.4,0.1-1.9,0.4c-0.5,0.3-0.9,0.7-1.2,1.1
			c-0.3,0.5-0.5,1-0.7,1.6c-0.1,0.6-0.2,1.2-0.2,1.9c0,0.6,0.1,1.2,0.2,1.7c0.1,0.6,0.4,1.1,0.7,1.5c0.3,0.4,0.7,0.8,1.2,1.1
			c0.5,0.3,1,0.4,1.7,0.4c1,0,1.9-0.3,2.4-0.8c0.6-0.5,0.9-1.3,1.1-2.3h2.2c-0.2,1.6-0.8,2.8-1.8,3.7s-2.2,1.3-3.9,1.3
			c-1,0-1.8-0.2-2.6-0.5s-1.4-0.8-1.9-1.3c-0.5-0.6-0.9-1.3-1.1-2.1c-0.3-0.8-0.4-1.7-0.4-2.6c0-1,0.1-1.9,0.4-2.7
			c0.2-0.8,0.6-1.6,1.1-2.2c0.5-0.6,1.1-1.1,1.9-1.5s1.6-0.5,2.7-0.5c0.7,0,1.4,0.1,2,0.3s1.2,0.4,1.7,0.8c0.5,0.4,0.9,0.8,1.2,1.4
			c0.3,0.6,0.5,1.2,0.6,2h-2.2C34,42,33.7,41.4,33.1,40.9z"/>
		<path id="XMLID_110_" class="st0" d="M40.9,33.8v6.8H41c0.2-0.4,0.4-0.7,0.7-1s0.6-0.5,1-0.7s0.8-0.3,1.2-0.4
			c0.4-0.1,0.8-0.1,1.2-0.1c0.8,0,1.5,0.1,2.1,0.3s1,0.6,1.4,1c0.3,0.4,0.6,0.9,0.7,1.5c0.1,0.6,0.2,1.2,0.2,1.9v8.4h-2.1v-8.7
			c0-0.8-0.2-1.4-0.7-1.9s-1.1-0.7-1.9-0.7c-0.6,0-1.2,0.1-1.7,0.3s-0.9,0.5-1.2,0.8c-0.3,0.4-0.5,0.8-0.7,1.3s-0.2,1-0.2,1.6v7.2
			h-2.1V33.8H40.9z"/>
		<path id="XMLID_107_" class="st0" d="M52.3,42.5c0.3-0.8,0.7-1.5,1.2-2.1s1.2-1.1,2-1.4c0.8-0.3,1.7-0.5,2.7-0.5s1.9,0.2,2.7,0.5
			s1.4,0.8,1.9,1.4c0.5,0.6,0.9,1.3,1.2,2.1s0.4,1.7,0.4,2.6c0,0.9-0.1,1.8-0.4,2.6c-0.3,0.8-0.7,1.5-1.2,2.1s-1.2,1.1-1.9,1.4
			c-0.8,0.3-1.7,0.5-2.7,0.5s-1.9-0.2-2.7-0.5s-1.4-0.8-2-1.4c-0.5-0.6-0.9-1.3-1.2-2.1c-0.3-0.8-0.4-1.7-0.4-2.6
			C51.9,44.2,52,43.3,52.3,42.5z M54.4,47.2c0.2,0.6,0.5,1.1,0.9,1.5s0.8,0.7,1.3,0.9c0.5,0.2,1,0.3,1.6,0.3c0.5,0,1.1-0.1,1.5-0.3
			c0.5-0.2,0.9-0.5,1.3-0.9c0.4-0.4,0.6-0.9,0.9-1.5c0.2-0.6,0.3-1.3,0.3-2.1s-0.1-1.5-0.3-2.1s-0.5-1.1-0.9-1.5s-0.8-0.7-1.3-0.9
			s-1-0.3-1.5-0.3s-1.1,0.1-1.6,0.3s-0.9,0.5-1.3,0.9c-0.4,0.4-0.6,0.9-0.9,1.5c-0.2,0.6-0.3,1.3-0.3,2.1
			C54.1,45.9,54.2,46.6,54.4,47.2z"/>
		<path id="XMLID_104_" class="st0" d="M66.5,42.5c0.3-0.8,0.7-1.5,1.2-2.1s1.2-1.1,2-1.4c0.8-0.3,1.7-0.5,2.7-0.5s1.9,0.2,2.7,0.5
			s1.4,0.8,1.9,1.4c0.5,0.6,0.9,1.3,1.2,2.1s0.4,1.7,0.4,2.6c0,0.9-0.1,1.8-0.4,2.6c-0.3,0.8-0.7,1.5-1.2,2.1s-1.2,1.1-1.9,1.4
			c-0.8,0.3-1.7,0.5-2.7,0.5s-1.9-0.2-2.7-0.5s-1.4-0.8-2-1.4c-0.5-0.6-0.9-1.3-1.2-2.1c-0.3-0.8-0.4-1.7-0.4-2.6
			S66.2,43.3,66.5,42.5z M68.7,47.2c0.2,0.6,0.5,1.1,0.9,1.5s0.8,0.7,1.3,0.9c0.5,0.2,1,0.3,1.6,0.3c0.5,0,1.1-0.1,1.5-0.3
			c0.5-0.2,0.9-0.5,1.3-0.9c0.4-0.4,0.6-0.9,0.9-1.5c0.2-0.6,0.3-1.3,0.3-2.1s-0.1-1.5-0.3-2.1s-0.5-1.1-0.9-1.5s-0.8-0.7-1.3-0.9
			s-1-0.3-1.5-0.3s-1.1,0.1-1.6,0.3s-0.9,0.5-1.3,0.9c-0.4,0.4-0.6,0.9-0.9,1.5c-0.2,0.6-0.3,1.3-0.3,2.1
			C68.3,45.9,68.4,46.6,68.7,47.2z"/>
		<path id="XMLID_102_" class="st0" d="M83.3,33.8v17.7h-2.1V33.8H83.3z"/>
		<path id="XMLID_99_" class="st0" d="M93.1,42.5c0.3-0.8,0.7-1.5,1.2-2.1s1.2-1.1,2-1.4c0.8-0.3,1.7-0.5,2.7-0.5s1.9,0.2,2.7,0.5
			s1.4,0.8,1.9,1.4c0.5,0.6,0.9,1.3,1.2,2.1s0.4,1.7,0.4,2.6c0,0.9-0.1,1.8-0.4,2.6c-0.3,0.8-0.7,1.5-1.2,2.1s-1.2,1.1-1.9,1.4
			c-0.8,0.3-1.7,0.5-2.7,0.5s-1.9-0.2-2.7-0.5s-1.4-0.8-2-1.4c-0.5-0.6-0.9-1.3-1.2-2.1c-0.3-0.8-0.4-1.7-0.4-2.6
			C92.7,44.2,92.9,43.3,93.1,42.5z M95.3,47.2c0.2,0.6,0.5,1.1,0.9,1.5s0.8,0.7,1.3,0.9c0.5,0.2,1,0.3,1.6,0.3
			c0.5,0,1.1-0.1,1.6-0.3c0.5-0.2,0.9-0.5,1.3-0.9c0.4-0.4,0.6-0.9,0.9-1.5c0.2-0.6,0.3-1.3,0.3-2.1s-0.1-1.5-0.3-2.1
			s-0.5-1.1-0.9-1.5s-0.8-0.7-1.3-0.9s-1-0.3-1.6-0.3c-0.5,0-1.1,0.1-1.6,0.3s-0.9,0.5-1.3,0.9c-0.4,0.4-0.6,0.9-0.9,1.5
			c-0.2,0.6-0.3,1.3-0.3,2.1C95,45.9,95.1,46.6,95.3,47.2z"/>
		<path id="XMLID_97_" class="st0" d="M106.4,40.5v-1.9h2.2v-1.9c0-1,0.3-1.8,0.9-2.4c0.6-0.5,1.5-0.8,2.6-0.8c0.2,0,0.4,0,0.7,0.1
			c0.3,0,0.5,0.1,0.7,0.1v1.8c-0.2-0.1-0.4-0.1-0.6-0.1c-0.2,0-0.4,0-0.6,0c-0.5,0-0.9,0.1-1.2,0.3s-0.4,0.6-0.4,1.1v1.8h2.5v1.9
			h-2.5v11h-2.1v-11C108.6,40.5,106.4,40.5,106.4,40.5z"/>
		<path id="XMLID_95_" class="st0" d="M134.5,33.8v2h-9.9v5.6h9.2v2h-9.2v6.1h9.9v2h-12.3V33.8H134.5z"/>
		<path id="XMLID_93_" class="st0" d="M139,38.7v2h0.1c0.9-1.6,2.3-2.3,4.2-2.3c0.8,0,1.5,0.1,2.1,0.3s1,0.6,1.4,1
			c0.3,0.4,0.6,0.9,0.7,1.5c0.1,0.6,0.2,1.2,0.2,1.9v8.4h-2.1v-8.7c0-0.8-0.2-1.4-0.7-1.9s-1.1-0.7-1.9-0.7c-0.6,0-1.2,0.1-1.7,0.3
			s-0.9,0.5-1.2,0.8c-0.3,0.4-0.5,0.8-0.7,1.3s-0.2,1-0.2,1.6v7.2H137V38.7H139z"/>
		<path id="XMLID_90_" class="st0" d="M160.4,55.1c-1,1-2.5,1.6-4.5,1.6c-0.6,0-1.2-0.1-1.8-0.2s-1.2-0.3-1.7-0.6
			c-0.5-0.3-0.9-0.7-1.3-1.2c-0.3-0.5-0.5-1.1-0.5-1.8h2.1c0,0.4,0.1,0.7,0.4,1c0.2,0.3,0.5,0.5,0.8,0.6c0.3,0.2,0.7,0.3,1.1,0.4
			c0.4,0.1,0.7,0.1,1.1,0.1c0.7,0,1.3-0.1,1.8-0.4c0.5-0.2,0.9-0.6,1.2-1c0.3-0.4,0.5-0.9,0.7-1.5c0.1-0.6,0.2-1.2,0.2-2v-0.8l0,0
			c-0.4,0.8-0.9,1.4-1.6,1.7c-0.7,0.4-1.5,0.6-2.3,0.6c-1,0-1.8-0.2-2.5-0.5s-1.3-0.8-1.8-1.4s-0.8-1.3-1.1-2.1
			c-0.2-0.8-0.4-1.6-0.4-2.5c0-0.8,0.1-1.5,0.3-2.3s0.5-1.5,1-2.2s1.1-1.2,1.8-1.6c0.8-0.4,1.7-0.6,2.8-0.6c0.8,0,1.6,0.2,2.2,0.5
			c0.7,0.4,1.2,0.9,1.6,1.6l0,0v-1.8h2v11.7C161.9,52.5,161.4,54.1,160.4,55.1z M157.8,49.4c0.5-0.3,0.9-0.7,1.2-1.1
			c0.3-0.5,0.5-1,0.7-1.6c0.1-0.6,0.2-1.2,0.2-1.8s-0.1-1.1-0.2-1.7c-0.1-0.5-0.3-1-0.6-1.5c-0.3-0.4-0.7-0.8-1.1-1.1
			c-0.5-0.3-1-0.4-1.7-0.4c-0.7,0-1.3,0.1-1.7,0.4c-0.5,0.3-0.9,0.6-1.2,1s-0.5,0.9-0.7,1.5c-0.1,0.6-0.2,1.1-0.2,1.8
			c0,0.6,0.1,1.2,0.2,1.7c0.1,0.6,0.3,1.1,0.6,1.6s0.7,0.9,1.1,1.1c0.5,0.3,1,0.4,1.7,0.4C156.7,49.8,157.3,49.6,157.8,49.4z"/>
		<path id="XMLID_88_" class="st0" d="M167.3,33.8v17.7h-2.1V33.8H167.3z"/>
		<path id="XMLID_85_" class="st0" d="M170.7,36.4v-2.6h2.1v2.6H170.7z M172.8,38.7v12.8h-2.1V38.7H172.8z"/>
		<path id="XMLID_83_" class="st0" d="M177.7,48.6c0.2,0.3,0.5,0.6,0.8,0.8c0.3,0.2,0.7,0.3,1.1,0.4s0.8,0.1,1.3,0.1
			c0.3,0,0.7,0,1-0.1c0.4,0,0.7-0.1,1-0.3c0.3-0.1,0.6-0.3,0.8-0.6c0.2-0.3,0.3-0.6,0.3-1c0-0.5-0.2-1-0.6-1.2
			c-0.4-0.3-0.9-0.5-1.6-0.7c-0.6-0.2-1.3-0.3-2-0.5c-0.7-0.1-1.4-0.3-2-0.6s-1.1-0.6-1.5-1.1s-0.6-1.1-0.6-1.9
			c0-0.6,0.1-1.2,0.4-1.7s0.7-0.8,1.1-1.1c0.5-0.3,1-0.5,1.5-0.6c0.6-0.1,1.1-0.2,1.7-0.2c0.7,0,1.4,0.1,2,0.2
			c0.6,0.1,1.2,0.3,1.6,0.6c0.5,0.3,0.8,0.7,1.1,1.2c0.3,0.5,0.4,1.2,0.5,1.9h-2.1c0-0.4-0.1-0.8-0.3-1c-0.2-0.3-0.4-0.5-0.7-0.7
			c-0.3-0.2-0.6-0.3-0.9-0.4c-0.3-0.1-0.7-0.1-1-0.1s-0.6,0-1,0.1c-0.3,0.1-0.6,0.1-0.9,0.3c-0.3,0.1-0.5,0.3-0.6,0.5
			c-0.2,0.2-0.2,0.5-0.2,0.8c0,0.4,0.1,0.7,0.4,0.9s0.6,0.4,1,0.6c0.4,0.2,0.8,0.3,1.3,0.4c0.5,0.1,1,0.2,1.5,0.3s1,0.3,1.5,0.4
			c0.5,0.2,0.9,0.4,1.3,0.7s0.7,0.6,0.9,1c0.2,0.4,0.4,0.9,0.4,1.5c0,0.8-0.2,1.4-0.5,1.9s-0.7,0.9-1.3,1.2
			c-0.5,0.3-1.1,0.5-1.8,0.7c-0.7,0.1-1.3,0.2-1.9,0.2c-0.7,0-1.4-0.1-2-0.2s-1.2-0.4-1.7-0.7c-0.5-0.3-0.9-0.8-1.2-1.3
			c-0.3-0.6-0.5-1.2-0.5-2h2.1C177.4,47.9,177.5,48.3,177.7,48.6z"/>
		<path id="XMLID_81_" class="st0" d="M190.6,33.8v6.8h0.1c0.2-0.4,0.4-0.7,0.7-1c0.3-0.3,0.6-0.5,1-0.7s0.8-0.3,1.2-0.4
			c0.4-0.1,0.8-0.1,1.2-0.1c0.8,0,1.5,0.1,2.1,0.3s1,0.6,1.4,1c0.3,0.4,0.6,0.9,0.7,1.5s0.2,1.2,0.2,1.9v8.4H197v-8.7
			c0-0.8-0.2-1.4-0.7-1.9s-1.1-0.7-1.9-0.7c-0.6,0-1.2,0.1-1.7,0.3s-0.9,0.5-1.2,0.8c-0.3,0.4-0.5,0.8-0.7,1.3s-0.2,1-0.2,1.6v7.2
			h-2.1V33.8H190.6z"/>
		<path id="XMLID_79_" class="st0" d="M211.8,33.8v15.7h9.4v2h-11.7V33.8H211.8z"/>
		<path id="XMLID_76_" class="st0" d="M232.8,51.8c-0.5,0-1-0.2-1.3-0.5s-0.5-0.8-0.5-1.5c-0.6,0.7-1.3,1.2-2,1.5
			c-0.8,0.3-1.6,0.5-2.5,0.5c-0.6,0-1.1-0.1-1.6-0.2s-1-0.3-1.4-0.6c-0.4-0.3-0.7-0.7-0.9-1.1c-0.2-0.5-0.3-1-0.3-1.6
			c0-0.7,0.1-1.3,0.4-1.8c0.2-0.5,0.6-0.8,1-1.1s0.9-0.5,1.4-0.7c0.5-0.1,1.1-0.3,1.6-0.4c0.6-0.1,1.1-0.2,1.6-0.3s1-0.1,1.4-0.2
			c0.4-0.1,0.7-0.3,0.9-0.5c0.2-0.2,0.3-0.5,0.3-0.9c0-0.5-0.1-0.8-0.3-1.1c-0.2-0.3-0.4-0.5-0.7-0.6c-0.3-0.1-0.6-0.2-0.9-0.3
			c-0.3,0-0.7-0.1-1-0.1c-0.9,0-1.6,0.2-2.2,0.5s-0.9,1-1,1.9h-2.1c0-0.8,0.2-1.5,0.5-2s0.7-1,1.2-1.3s1.1-0.6,1.7-0.7
			c0.6-0.1,1.3-0.2,2-0.2c0.6,0,1.2,0,1.7,0.1c0.6,0.1,1.1,0.3,1.6,0.5c0.5,0.3,0.8,0.6,1.1,1.1c0.3,0.5,0.4,1.1,0.4,1.8v6.6
			c0,0.5,0,0.9,0.1,1.1s0.3,0.3,0.6,0.3c0.2,0,0.4,0,0.6-0.1v1.6C233.9,51.7,233.4,51.8,232.8,51.8z M229.8,45.3
			c-0.4,0.1-0.9,0.2-1.4,0.2c-0.5,0.1-0.9,0.1-1.4,0.2c-0.5,0.1-0.9,0.2-1.3,0.4s-0.7,0.4-0.9,0.7c-0.2,0.3-0.4,0.7-0.4,1.3
			c0,0.3,0.1,0.6,0.2,0.9c0.1,0.2,0.3,0.4,0.5,0.6c0.2,0.1,0.5,0.3,0.8,0.3c0.3,0.1,0.6,0.1,0.9,0.1c0.7,0,1.3-0.1,1.8-0.3
			c0.5-0.2,0.9-0.4,1.2-0.7c0.3-0.3,0.5-0.6,0.7-0.9c0.1-0.3,0.2-0.7,0.2-1v-2.2C230.6,45.1,230.2,45.2,229.8,45.3z"/>
		<path id="XMLID_74_" class="st0" d="M238.2,38.7v2l0,0c0.9-1.6,2.3-2.3,4.2-2.3c0.8,0,1.5,0.1,2.1,0.3s1,0.6,1.4,1
			c0.3,0.4,0.6,0.9,0.7,1.5s0.2,1.2,0.2,1.9v8.4h-2.1v-8.7c0-0.8-0.2-1.4-0.7-1.9s-1.1-0.7-1.9-0.7c-0.6,0-1.2,0.1-1.7,0.3
			s-0.9,0.5-1.2,0.8c-0.3,0.4-0.5,0.8-0.7,1.3s-0.2,1-0.2,1.6v7.2h-2.1V38.7H238.2z"/>
		<path id="XMLID_71_" class="st0" d="M259.6,55.1c-1,1-2.5,1.6-4.5,1.6c-0.6,0-1.2-0.1-1.8-0.2c-0.6-0.1-1.2-0.3-1.7-0.6
			c-0.5-0.3-0.9-0.7-1.3-1.2c-0.3-0.5-0.5-1.1-0.5-1.8h2.1c0,0.4,0.1,0.7,0.4,1c0.2,0.3,0.5,0.5,0.8,0.6c0.3,0.2,0.7,0.3,1.1,0.4
			s0.7,0.1,1.1,0.1c0.7,0,1.3-0.1,1.8-0.4c0.5-0.2,0.9-0.6,1.2-1c0.3-0.4,0.5-0.9,0.7-1.5c0.1-0.6,0.2-1.2,0.2-2v-0.8l0,0
			c-0.4,0.8-0.9,1.4-1.6,1.7c-0.7,0.4-1.5,0.6-2.3,0.6c-1,0-1.8-0.2-2.5-0.5s-1.3-0.8-1.8-1.4s-0.8-1.3-1.1-2.1
			c-0.2-0.8-0.4-1.6-0.4-2.5c0-0.8,0.1-1.5,0.3-2.3c0.2-0.8,0.5-1.5,1-2.2s1.1-1.2,1.8-1.6c0.8-0.4,1.7-0.6,2.8-0.6
			c0.8,0,1.6,0.2,2.2,0.5c0.7,0.4,1.2,0.9,1.6,1.6l0,0v-1.8h2v11.7C261.1,52.5,260.6,54.1,259.6,55.1z M256.9,49.4
			c0.5-0.3,0.9-0.7,1.2-1.1c0.3-0.5,0.5-1,0.7-1.6c0.1-0.6,0.2-1.2,0.2-1.8s-0.1-1.1-0.2-1.7c-0.1-0.5-0.3-1-0.6-1.5
			c-0.3-0.4-0.7-0.8-1.1-1.1c-0.5-0.3-1-0.4-1.7-0.4s-1.3,0.1-1.7,0.4c-0.5,0.3-0.9,0.6-1.2,1c-0.3,0.4-0.5,0.9-0.7,1.5
			c-0.1,0.6-0.2,1.1-0.2,1.8c0,0.6,0.1,1.2,0.2,1.7c0.1,0.6,0.3,1.1,0.6,1.6c0.3,0.5,0.7,0.9,1.1,1.1c0.5,0.3,1,0.4,1.7,0.4
			C255.9,49.8,256.5,49.6,256.9,49.4z"/>
		<path id="XMLID_69_" class="st0" d="M272.9,51.5v-2l0,0c-0.4,0.8-1,1.4-1.7,1.8s-1.5,0.6-2.5,0.6c-0.8,0-1.5-0.1-2.1-0.3
			c-0.6-0.2-1-0.5-1.4-1c-0.3-0.4-0.6-0.9-0.7-1.5s-0.2-1.2-0.2-1.9v-8.4h2.1v8.7c0,0.8,0.2,1.4,0.7,1.9s1.1,0.7,1.9,0.7
			c0.6,0,1.2-0.1,1.7-0.3c0.5-0.2,0.9-0.5,1.2-0.8c0.3-0.4,0.5-0.8,0.7-1.3s0.2-1,0.2-1.6v-7.2h2.1v12.8h-2V51.5z"/>
		<path id="XMLID_66_" class="st0" d="M287.9,51.8c-0.5,0-1-0.2-1.3-0.5s-0.5-0.8-0.5-1.5c-0.6,0.7-1.3,1.2-2,1.5
			c-0.8,0.3-1.6,0.5-2.5,0.5c-0.6,0-1.1-0.1-1.6-0.2s-1-0.3-1.4-0.6c-0.4-0.3-0.7-0.7-0.9-1.1c-0.2-0.5-0.3-1-0.3-1.6
			c0-0.7,0.1-1.3,0.4-1.8c0.2-0.5,0.6-0.8,1-1.1s0.9-0.5,1.4-0.7c0.5-0.1,1.1-0.3,1.6-0.4c0.6-0.1,1.1-0.2,1.6-0.3s1-0.1,1.4-0.2
			c0.4-0.1,0.7-0.3,0.9-0.5c0.2-0.2,0.3-0.5,0.3-0.9c0-0.5-0.1-0.8-0.3-1.1c-0.2-0.3-0.4-0.5-0.7-0.6c-0.3-0.1-0.6-0.2-0.9-0.3
			c-0.3,0-0.7-0.1-1-0.1c-0.9,0-1.6,0.2-2.2,0.5s-0.9,1-1,1.9h-2.1c0-0.8,0.2-1.5,0.5-2s0.7-1,1.2-1.3s1.1-0.6,1.7-0.7
			c0.6-0.1,1.3-0.2,2-0.2c0.6,0,1.2,0,1.7,0.1c0.6,0.1,1.1,0.3,1.6,0.5c0.5,0.3,0.8,0.6,1.1,1.1c0.3,0.5,0.4,1.1,0.4,1.8v6.6
			c0,0.5,0,0.9,0.1,1.1s0.3,0.3,0.6,0.3c0.2,0,0.4,0,0.6-0.1v1.6C289,51.7,288.5,51.8,287.9,51.8z M284.9,45.3
			c-0.4,0.1-0.9,0.2-1.4,0.2c-0.5,0.1-0.9,0.1-1.4,0.2c-0.5,0.1-0.9,0.2-1.3,0.4s-0.7,0.4-0.9,0.7c-0.2,0.3-0.4,0.7-0.4,1.3
			c0,0.3,0.1,0.6,0.2,0.9c0.1,0.2,0.3,0.4,0.5,0.6c0.2,0.1,0.5,0.3,0.8,0.3c0.3,0.1,0.6,0.1,0.9,0.1c0.7,0,1.3-0.1,1.8-0.3
			c0.5-0.2,0.9-0.4,1.2-0.7c0.3-0.3,0.5-0.6,0.7-0.9c0.1-0.3,0.2-0.7,0.2-1v-2.2C285.7,45.1,285.3,45.2,284.9,45.3z"/>
		<path id="XMLID_63_" class="st0" d="M301,55.1c-1,1-2.5,1.6-4.5,1.6c-0.6,0-1.2-0.1-1.8-0.2c-0.6-0.1-1.2-0.3-1.7-0.6
			c-0.5-0.3-0.9-0.7-1.3-1.2c-0.3-0.5-0.5-1.1-0.5-1.8h2.1c0,0.4,0.1,0.7,0.4,1c0.2,0.3,0.5,0.5,0.8,0.6c0.3,0.2,0.7,0.3,1.1,0.4
			s0.7,0.1,1.1,0.1c0.7,0,1.3-0.1,1.8-0.4c0.5-0.2,0.9-0.6,1.2-1c0.3-0.4,0.5-0.9,0.7-1.5c0.1-0.6,0.2-1.2,0.2-2v-0.8l0,0
			c-0.4,0.8-0.9,1.4-1.6,1.7c-0.7,0.4-1.5,0.6-2.3,0.6c-1,0-1.8-0.2-2.5-0.5s-1.3-0.8-1.8-1.4s-0.8-1.3-1.1-2.1
			c-0.2-0.8-0.4-1.6-0.4-2.5c0-0.8,0.1-1.5,0.3-2.3c0.2-0.8,0.5-1.5,1-2.2s1.1-1.2,1.8-1.6c0.8-0.4,1.7-0.6,2.8-0.6
			c0.8,0,1.6,0.2,2.2,0.5c0.7,0.4,1.2,0.9,1.6,1.6l0,0v-1.8h2v11.7C302.4,52.5,301.9,54.1,301,55.1z M298.3,49.4
			c0.5-0.3,0.9-0.7,1.2-1.1c0.3-0.5,0.5-1,0.7-1.6c0.1-0.6,0.2-1.2,0.2-1.8s-0.1-1.1-0.2-1.7c-0.1-0.5-0.3-1-0.6-1.5
			c-0.3-0.4-0.7-0.8-1.1-1.1c-0.5-0.3-1-0.4-1.7-0.4s-1.3,0.1-1.7,0.4c-0.5,0.3-0.9,0.6-1.2,1c-0.3,0.4-0.5,0.9-0.7,1.5
			c-0.1,0.6-0.2,1.1-0.2,1.8c0,0.6,0.1,1.2,0.2,1.7c0.1,0.6,0.3,1.1,0.6,1.6c0.3,0.5,0.7,0.9,1.1,1.1c0.5,0.3,1,0.4,1.7,0.4
			C297.2,49.8,297.8,49.6,298.3,49.4z"/>
		<path id="XMLID_60_" class="st0" d="M314.6,50.7c-1,0.7-2.2,1.1-3.6,1.1c-1,0-1.9-0.2-2.7-0.5c-0.8-0.3-1.4-0.8-1.9-1.4
			s-0.9-1.3-1.2-2.1c-0.3-0.8-0.4-1.7-0.4-2.7s0.1-1.9,0.4-2.7s0.7-1.5,1.3-2.1c0.5-0.6,1.2-1.1,1.9-1.4c0.7-0.3,1.5-0.5,2.4-0.5
			c1.1,0,2.1,0.2,2.8,0.7c0.8,0.5,1.4,1.1,1.8,1.8c0.5,0.7,0.8,1.5,0.9,2.4c0.2,0.9,0.2,1.7,0.2,2.5h-9.6c0,0.6,0,1.1,0.2,1.6
			c0.1,0.5,0.4,1,0.7,1.3c0.3,0.4,0.8,0.7,1.3,0.9c0.5,0.2,1.1,0.3,1.8,0.3c0.9,0,1.6-0.2,2.2-0.6s0.9-1,1.1-1.9h2.1
			C316.2,48.9,315.6,50,314.6,50.7z M314.1,42.5c-0.2-0.4-0.4-0.8-0.8-1.2c-0.3-0.3-0.7-0.6-1.1-0.8s-0.9-0.3-1.4-0.3
			s-1,0.1-1.5,0.3c-0.4,0.2-0.8,0.4-1.1,0.8c-0.3,0.3-0.6,0.7-0.7,1.2c-0.2,0.4-0.3,0.9-0.3,1.4h7.4
			C314.4,43.4,314.3,42.9,314.1,42.5z"/>
	</g>
	<g id="XMLID_54_">
		<path id="XMLID_57_" class="st0" d="M356.1,52L336.3,8.8v34.3c0,3.2,0.3,5.1,1,5.9c0.9,1.1,2.4,1.6,4.4,1.6h1.8V52h-17.9v-1.4h1.8
			c2.2,0,3.7-0.7,4.6-2c0.6-0.8,0.8-2.6,0.8-5.5V9.6c0-2.3-0.3-3.9-0.8-4.9c-0.4-0.7-1-1.3-1.9-1.8s-2.5-0.7-4.6-0.7V0.8H340
			L358.6,41l18.3-40.2h14.5v1.4h-1.8c-2.2,0-3.7,0.7-4.7,2c-0.6,0.8-0.8,2.6-0.8,5.5v33.5c0,3.2,0.4,5.1,1.1,5.9
			c0.9,1.1,2.4,1.6,4.4,1.6h1.8V52h-21.8v-1.4h1.8c2.2,0,3.7-0.7,4.6-2c0.6-0.8,0.8-2.6,0.8-5.5V8.8L357.3,52H356.1z"/>
		<path id="XMLID_55_" class="st0" d="M427.8,23.6l11,16.4c3.1,4.5,5.3,7.4,6.8,8.6s3.3,1.9,5.6,2V52h-22v-1.4
			c1.5,0,2.5-0.2,3.3-0.5c0.5-0.2,1-0.6,1.3-1c0.3-0.5,0.5-0.9,0.5-1.4c0-0.6-0.1-1.2-0.3-1.7c-0.2-0.4-0.9-1.5-2.1-3.3l-8.7-13.2
			l-10.7,13.8c-1.1,1.5-1.8,2.4-2,2.9s-0.3,1-0.3,1.5c0,0.8,0.3,1.5,1,2s2,0.8,3.9,0.9V52h-18.2v-1.4c1.3-0.1,2.4-0.4,3.3-0.8
			c1.6-0.7,3.1-1.5,4.5-2.6s3-2.8,4.8-5.1l12.1-15.3L411.4,12c-2.8-4-5.1-6.6-7-7.9c-1.9-1.2-4.1-1.9-6.6-2V0.7h23.7v1.4
			c-2,0.1-3.4,0.4-4.1,1c-0.7,0.6-1.1,1.2-1.1,1.9c0,0.9,0.6,2.3,1.8,4.1l7.9,11.8l9.1-11.5c1.1-1.4,1.7-2.3,1.9-2.8s0.4-1,0.4-1.6
			s-0.2-1-0.5-1.4c-0.4-0.5-0.9-0.9-1.4-1.1c-0.6-0.2-1.8-0.3-3.6-0.4V0.7h18.2v1.4c-1.4,0.1-2.6,0.3-3.5,0.7
			c-1.4,0.6-2.6,1.4-3.7,2.3c-1.1,1-2.7,2.8-4.8,5.4L427.8,23.6z"/>
	</g>
</g>
</svg>
