<?xml version="1.0" encoding="utf-8"?>
<!-- Generator: Adobe Illustrator 19.0.0, SVG Export Plug-In . SVG Version: 6.00 Build 0)  -->
<svg version="1.1" id="Capa_1" xmlns="http://www.w3.org/2000/svg" xmlns:xlink="http://www.w3.org/1999/xlink" x="0px" y="0px"
	 viewBox="0 0 595.3 841.9" style="enable-background:new 0 0 595.3 841.9;" xml:space="preserve">
<style type="text/css">
	.st0{fill:#5B5B5F;}
</style>
<g id="XMLID_2_">
	<path id="XMLID_3_" class="st0" d="M186.9,573.6c52.5,43.4,104.9,70.1,105,70.2l1.5,0.8l1.5-0.8c0.1-0.1,52.5-26.8,105.1-70.2
		c52.5-43.4,105.6-103.4,105.7-171.1c0-49,0-290.5,0-290.5v-5.2L501,109c0,0-1.6,0.8-5.2,2.1c-10.7,3.9-37.8,11.7-81.5,11.7
		c-28.8,0-58.7-8-81.3-16.1c-22.6-8.1-37.9-16.1-37.9-16.1l-1.5-0.8l-1.5,0.8c-0.1,0-15.3,8-38,16.1c-22.6,8.1-52.6,16.1-81.3,16.1
		c-29.1,0-50.9-3.5-65.4-7c-7.2-1.7-12.6-3.5-16.2-4.8c-3.5-1.3-5.2-2.1-5.2-2.1l-4.7-2.2v295.7C81.4,470.2,134.5,530.2,186.9,573.6
		z M279.7,540.7l0.3,0c0.3-0.1,3.5-0.7,6.9-3.6c1.3-1.1,2.6-2.5,3.7-4.3c1.3,1.8,2.9,3.1,4.5,4c4,2.5,7.7,2.8,8,2.8l0.1,0h88.3
		V418.8h10.9v128.4H295.7l-0.9,2c0,0-0.1,0.3-0.4,0.9c-1,1.9-3.6,4.9-6.3,4.8c-2.1,0-3.8-1-5-2.3c-0.6-0.6-1.1-1.3-1.4-1.7
		c-0.3-0.5-0.4-0.7-0.4-0.7l-0.9-1.8h-99.9V419.9h8.7v120.8H279.7z M206.9,519.6c0.2,0,11.4,3.2,24.3,3.2c4.6,0,9.4-0.4,14.1-1.6
		c15.9-4,35.8-5.6,45.1-5.6c9.3,0,28.8,1.6,44.7,5.6c4.7,1.2,9.5,1.6,14.1,1.6c12.9,0,24.2-3.2,24.3-3.2l2.4-0.7V416.7h9v116.4
		h-81.4c-0.2,0-0.6-0.1-1.4-0.3c-3.1-1-8.5-2.9-8.6-11.7H287c-0.1,6.2-2.2,9.2-4.3,11c-1.1,0.9-2.1,1.5-2.9,1.8
		c-0.4,0.1-0.6,0.3-0.8,0.3h-83.4V419.9h9v99L206.9,519.6z M211,513.9V412.5c4.7,0.5,13.2,1.4,22.1,1.4c6.7,0,13.6-0.4,19.5-1.9
		c13.6-3.4,26.9-4.5,34.3-4.7v102c-10.6,0.3-28.2,2-43.2,5.7c-4,1-8.3,1.4-12.5,1.4c-5.9,0-11.5-0.7-15.7-1.5
		C213.7,514.5,212.2,514.2,211,513.9z M293.5,509.2v-102c7.4,0.2,20.7,1.3,34.3,4.7c5.9,1.5,12.8,1.9,19.4,1.9
		c8.9,0,17.4-0.8,22.1-1.4v101.4c-1.1,0.2-2.6,0.6-4.4,0.9c-4.2,0.8-9.8,1.5-15.8,1.5c-4.2,0-8.6-0.4-12.5-1.4
		C321.6,511.2,304,509.5,293.5,509.2z M314.2,625.4c-10.4,6.1-17.8,10.1-20.8,11.7c-3-1.6-10.4-5.5-20.6-11.6v-70.7h3.7
		c1.7,2.4,5.3,6.3,11.6,6.5c6.6-0.3,10.2-4.9,11.7-7.6h14.4V625.4z M499.1,402.5c0.1,64-51.3,123.2-103.3,166
		c-26,21.4-52,38.8-71.5,50.8c-0.9,0.5-1.7,1-2.6,1.6v-67.2h87.1V412.3h-17.4v-2.2h-15.5V405l-3.7,0.6c0,0-12.2,1.8-24.9,1.8
		c-6.4,0-12.9-0.5-17.9-1.7c-2.6-0.7-5.1-1.2-7.7-1.7V391h177.4V402.5z M163.4,235.8L163.4,235.8v-0.2v-0.2
		c0.6-10.7,6.3-14,11.3-14.2c2.4,0,4.7,0.9,6.3,2.5c1.2,1.3,1.3,1.9,1.4,2.7c0.1,1.1-0.9,3.1-2.3,5.5c-1.4,2.4-3.1,5.1-3.2,8.8
		c0,0.4,0,0.8,0.1,1.2c0.6,4.8,3.7,8,6.6,11.7c3,3.8,6.4,8.2,8.9,15.1c5.3,13.9,2.6,22.6,8.1,30.3c3.5,4.1,8.3,4.3,11.4,5.4
		c3.3,1.3,4,1.3,4.2,4.5c0,4.5-4.1,9.1-9.8,9.1c-3.1,0-6.8-1.2-10.8-5c-5.1-4.2-8.7-21.6-15.5-38.3l-3,1.2l3-1.3
		C173.3,258.5,163.1,242.6,163.4,235.8z M177,284.8c-11.1,11.5-23.2,15.9-38.7,17c-0.5-4.7-2.4-9-5.6-12.1
		c9.3-8.5,18.8-13.6,26.1-16.5c3.9-1.6,7.1-2.6,9.4-3.1c1-0.3,1.9-0.5,2.4-0.6c1.3,2.6,2.4,5.2,3.5,7.9
		C175.2,279.8,176.1,282.3,177,284.8z M189.9,251.1l35.1-14.2c5.2,2.5,10.3,4.9,15.2,7.2l-42.9,19.1
		C195,258.1,192.3,254.2,189.9,251.1z M199.5,269.4l48.6-21.6c6.1,2.7,11.9,5.3,17.7,7.7l-62.7,30.5
		C202.5,281.6,201.6,276.1,199.5,269.4z M199.5,216.6c-30.7-16.4-51.8-32.1-65.2-44.5c-6.7-6.2-11.4-11.6-14.4-15.8
		c-2.1-2.8-3.3-5.3-3.8-6.6c7.6-1.4,15.5-2.1,23.7-2.1c42.6,0,92,17.9,139.2,38.9c28.2,12.5,55.8,31.3,76.3,47.1
		c20.5,15.7,33.8,28.2,33.8,28.3l0.2,0.2l72.3,41.8c0,0.7,0.1,1.6,0.1,2.6c0.1,1.7-0.2,3.8-0.4,4.8c-0.7,0.1-2.1,0.3-3.6,0.3
		c-2.9,0-6.5-0.4-9.4-0.7c-2-0.2-3.6-0.5-4.5-0.6l-57.4-33.6h-0.9c0,0-6.4,0-32.4-1.6C328.2,273.4,269.4,254,199.5,216.6z
		 M453.1,144.4l15.2,1.8l-5.9,13.6l-118,57.4c-3.5-2.5-7.1-5-10.8-7.4L454,156.3l-2.7-6l-124.2,55.2c-3.2-2.1-6.4-4.1-9.7-6.1
		L453.1,144.4z M272.7,106.5c10.3-4.3,17.7-7.9,20.7-9.4c3,1.5,10.4,5.1,20.7,9.4v87.1l-3.9,1.6c-9.3-5.4-18.9-10.4-28.6-14.7
		c-3-1.3-6-2.6-9-3.9V106.5z M87.8,116.9c10.6,3.9,38.8,12.5,84.9,12.5c34,0,68.8-10.7,92.6-19.9v63.9
		c-42.5-17.9-86.1-32.3-125.4-32.3c-9.1,0-18,0.8-26.6,2.5l0,0c-2.4,0.3-4.1,3.2-3.9,5c0.1,3.4,2,6.8,5.2,11.5
		c10,13.9,35.1,37.2,81.8,62.2c7.1,3.8,13.9,7.3,20.8,10.7l-31.5,12.8c-1.4-1.9-2.2-3.5-2.3-4.7c0-0.2,0-0.3,0-0.4
		c-0.1-1.2,0.9-3.2,2.3-5.6c1.3-2.4,3.1-5.1,3.2-8.7c0.1-2.5-1.1-5.2-3.3-7.3c-2.9-2.9-6.9-4.4-10.9-4.4
		c-8.5-0.2-17.3,7.1-17.8,20.3c0,0.4,0,0.6,0,0.7c0.2,7.7,5.4,17.2,10.7,27.6c-6.8,1.6-24,7-40.5,22.4c-2.5-1.2-5.3-1.9-8.2-1.9
		c-10.8,0-19.6,8.8-19.6,19.6c0,10.8,8.8,19.6,19.6,19.6c9.1,0,16.7-6.3,18.9-14.8c15.9-0.8,29.6-5.5,41.5-16.7
		c3.5,10.9,6.3,20.8,11.9,26.2c5,4.6,10.3,6.7,15.2,6.7c9.3,0,16.3-7.3,16.4-15.6c0.2-6.6-5.1-9.9-8.8-10.7c-4-1.1-7.3-1.9-8.2-3.3
		c-0.6-0.6-1-1.4-1.3-2.4l60.8-29.5v71.6H87.8V116.9z M114.2,148.2L114.2,148.2l-0.3-1.4L114.2,148.2z M131.9,303.5
		c0,7.2-5.8,13-13.1,13.1c-7.2,0-13-5.9-13.1-13.1c0-7.2,5.9-13.1,13.1-13.1C126.1,290.4,131.9,296.3,131.9,303.5z M87.8,342.1
		h184.9v-82.7l1.2-0.6c14.9,6,28.4,10.8,40.3,14.4v68.9h184.9v41.5H314.2v19.1c-10.6-1.6-19.5-2-24-2c-3.6,0-9.8,0.2-17.5,1.1v-18.2
		H87.8V342.1z M549.7,571.9c-8.5-7.2-30.9-34.4-37.8-41.2c-2.3-2.2-6-5.4-10.7-8.1c-0.1-0.1-0.1-0.2-0.1-0.2l-0.1,0
		c-5.1-3-11.4-5.4-18.4-5.4c-6.5,0-13.6,2.3-19.9,8.1c-7.8,7-10.9,15.1-10.9,22.3c0.1,5.6,1.9,10.7,4.7,14.5l-0.1,0.2l1.3,1.3
		c0.6,0.7,1.3,1.3,2,1.9l16.1,15.7c-26.8,28.3-80,69.4-181.8,69.5c-102.7-0.1-155.9-41.9-182.5-70.3l15.3-13.8
		c5.4-3.7,9.2-10.8,9.3-19c0-7.2-3.2-15.3-10.9-22.3c-6.4-5.9-13.4-8.2-19.9-8.1c-7,0-13.3,2.5-18.4,5.4l-0.1,0c0,0-0.1,0.1-0.1,0.2
		c-4.7,2.7-8.4,5.9-10.7,8.1c-7,6.8-29.4,34-37.9,41.2c-3.7,3.2-4.9,8-4.9,12.8c0.1,11.8,6.5,26.2,13.6,33.4
		c8.8,8.6,92.6,104.4,247.1,104.3h0.1c154.4,0,238.1-95.7,246.9-104.3c7.2-7.2,13.5-21.6,13.7-33.4
		C554.5,579.9,553.4,575.1,549.7,571.9z M467.7,562.5c-1-0.2-2.1-0.7-3.2-1.6l-2-2c-2.4-2.8-4.2-6.8-4.2-11.5
		c0-5.3,2.2-11.4,8.8-17.4c5.3-4.8,10.4-6.4,15.5-6.4c4.9,0,9.7,1.7,13.9,3.9c1.1,2,2.9,6.2,2.9,12.2c0,3.5-0.6,7.6-2.4,12.3
		l-9.3-8.1c-0.6-1.3-1.5-2.5-2.6-3.2c-2.1-1.4-4.3-1.7-6.1-1.7c-2.6,0-4.6,0.6-4.8,0.7l-0.4,0.1l-0.4,0.2c-0.2,0.3-3.8,2.3-4,7.2
		c0,1.7,0.6,3.6,1.8,5.3l5.5-3.7c-0.6-0.9-0.6-1.3-0.6-1.6c0-0.4,0.2-0.7,0.5-1.1c0.1-0.1,0.1-0.2,0.2-0.2c0.1,0,0.2,0,0.3,0
		c0.5-0.1,1.3-0.2,2.1-0.2c1.1,0,2,0.2,2.3,0.5c0,0,0,0,0,0l-0.5,0.6l1.1,0.9c0,0.2,0,0.2,0,0.4c0,0.3,0,0.6-0.1,1
		c-0.9,7.7-5.6,13.8-11.5,13.6C469.4,562.7,468.6,562.7,467.7,562.5z M472.8,569.1c8-1.4,13.1-8.5,14.8-16.2l6.2,5.4
		c-1.5,2.7-3.4,5.6-5.9,8.6c-2.2,2.8-4.9,5.9-7.9,9.2L472.8,569.1z M106.8,575.4c-2.7-3.1-5.1-5.9-7.2-8.5c-2.6-3.2-4.6-6.3-6.2-9.2
		l6.3-5.8c1.5,7.8,6.4,15.2,14.3,17L106.8,575.4z M90.2,529.7c0.3-0.9,0.7-1.6,1-2.1c4.2-2.3,9-4,13.9-3.9c5,0,10.1,1.6,15.5,6.4
		c6.5,6,8.7,12.1,8.7,17.4c0.1,4.7-1.9,8.8-4.2,11.5l-2.5,2.3c-0.9,0.6-1.8,1.1-2.7,1.2c-0.8,0.2-1.6,0.3-2.4,0.3
		c-5.9,0.1-10.6-5.9-11.5-13.7c0-0.4-0.1-0.7-0.1-1c0.1-1.6,0.4-1.7,0.6-1.9c0.3-0.3,1.3-0.5,2.3-0.5c0.7,0,1.4,0.1,2,0.2
		c0.2,0,0.3,0.1,0.4,0.1c0.1,0.1,0.2,0.2,0.3,0.3c0.2,0.2,0.1,0.3,0.1,0.3c0,0,0.1,0.2-0.8,1.1l4.7,4.7c1.7-1.7,2.7-3.7,2.7-5.8
		c-0.3-4.5-3.5-6.2-3.7-6.4l-0.4-0.3l-0.5-0.1c-0.2,0-2.2-0.7-4.8-0.7c-1.8,0-4,0.2-6.1,1.7c-0.6,0.4-1.1,0.9-1.5,1.4l-0.3-0.3
		l-10.4,9.6c-1.6-4.4-2.1-8.3-2.1-11.6C88.4,535.4,89.3,532,90.2,529.7z M536.3,613.4c-9.1,8.8-90.7,102.4-242.5,102.4
		C142,715.8,60.4,622.2,51.3,613.4c-5.5-5.1-11.8-19.4-11.7-28.7c0-3.9,1-6.6,2.5-7.8c9.4-8.1,31.7-35.3,38.2-41.5
		c0.6-0.5,1.2-1.1,2-1.8c-0.3,1.8-0.6,3.8-0.6,6.1c0,8.4,2.9,19.3,12.7,31.3c21.4,26.4,76.3,86.2,199.3,86.1h0.3
		c122.7,0,177.6-59.7,199-86.1c9.8-12,12.7-22.9,12.7-31.3c0-2.3-0.2-4.3-0.6-6.1c0.7,0.6,1.4,1.2,1.9,1.8
		c6.4,6.2,28.7,33.4,38.2,41.5c1.5,1.3,2.5,3.9,2.5,7.8C548.1,594,541.7,608.2,536.3,613.4z M95,625.4c0.2-0.2,0.5-0.4,0.8-0.6
		c-0.2-0.3-0.4-0.5-0.6-0.6c-0.2-0.2-0.5-0.5-0.9-0.8c-1.9,0.9-3.6,1.3-5.1,1.2c-1.2,0-2.2-0.3-3.2-0.9c-1.3-0.9-2.8-2.1-4.4-3.7
		c-2.4-2.4-3.7-4-4-4.7c-0.1-0.5,0-0.9,0.4-1.4l3.7-3.6c0.9-0.9,1.9-2.1,3.3-3.4c0.1-0.1,0.3-0.3,0.6-0.6c1,0.8,2.3,2.1,4.1,3.8
		c1.5,1.5,2.3,2.3,2.4,2.7c0.3,0.4,0.3,0.8,0.3,1.1c-0.1,0.5-0.5,1.3-1.3,2.6c-0.4,0.7-0.7,1.2-0.8,1.4l1.2,1.2l0.4-0.4
		c0.3-0.3,0.8-0.9,1.5-1.6c0.6-0.7,1.1-1.2,1.4-1.5c0.2-0.2,0.5-0.4,0.8-0.8c0.4-0.3,1.1-1.1,2.3-2.3c0.5-0.5,1.2-1.3,2.2-2.4l-1-1
		l-0.2-0.2c-1.7,1.1-2.7,1.7-3.1,1.9c-0.5,0.2-0.9,0.3-1.3,0.2c-0.3-0.1-1-0.5-1.9-1.3c-1-0.8-2.5-2.2-4.6-4.3
		c-0.2-0.2-0.4-0.5-0.7-0.8l2.1-2.1l2.8-2.9c2-2,3.1-3,3.4-3.3c1.2,1.1,2.4,2.3,3.8,3.7c1.2,1.2,2.3,2.4,3.3,3.6
		c0.6,0.6,0.9,1,1,1.1c0.4,0.5,0.8,0.8,1,1.2c-0.1,1-0.2,1.9-0.4,2.7l-0.5,1.9c-0.3,0.6-0.4,1.1-0.6,1.4c0.3,0.3,0.5,0.5,0.6,0.6
		l0.7,0.7c0.1-0.1,0.2-0.2,0.3-0.3l0.6-0.7l3.5-3.5c0.4-0.4,0.6-0.8,0.6-1.2c-1.2-1.5-2.2-2.7-2.9-3.4l-3.2-3.1
		c-2.1-2.1-4.5-4.3-7.1-6.8c-1.8-1.7-2.9-2.7-3.3-3.1c-0.7-0.6-1.2-1.2-1.8-1.9l0.2-0.1c-0.4-0.5-0.9-1.1-1.5-1.8
		c-0.7-0.7-1.4-1.6-2.2-2.7c-0.8-1.1-1.5-2.2-2.2-3.4c-0.7-1.2-1.2-1.9-1.3-2.2c-0.5,0.3-0.8,0.5-1,0.6c-0.1,0.1-0.3,0.3-0.5,0.5
		c0.1,0.3,0.3,0.6,0.5,0.9c0.2,0.3,0.3,0.6,0.4,0.8c0.5,0.9,0.8,1.7,0.8,2.3c0,0.4-0.1,0.7-0.4,0.8c-0.4,0.3-1,0.5-1.7,0.7
		c-0.8,0.2-1.9,0.6-3.2,1c-0.4,0.1-0.8,0.3-1,0.3l-1.8,0.4l-8.1,2.3l-3.6,0.9c0.6-1,1.2-2,1.9-3.2l3.4-5.9c1.5-2.7,2.7-4.8,3.7-6.2
		l1.2-1.9c0.1-0.1,0.3-0.2,0.4-0.4c0.2-0.1,0.4-0.2,0.6-0.1c0.5,0.1,1,0.4,1.6,0.8c0.2,0.2,0.9,0.9,2,2.1c0.1-0.1,0.6-0.5,1.6-1.2
		l-1.1-1.5c-0.4-0.4-0.9-1-1.6-1.8c-1-1.2-1.6-1.9-1.9-2.3c-1.9-2.6-3.4-4.8-4.4-6.6c-0.1-0.2-0.4-0.6-0.9-1.3l-1.7,1.2l0.5,0.9
		c0.5,0.9,0.8,1.6,0.9,2c0.1,0.4,0,0.8-0.1,1.3c-0.1,0.2-0.9,1.8-2.5,4.7l-3.7,6.1l-5.5,9.7c-1.7,2.7-2.7,4.3-3,4.7
		c-0.3,0.4-0.6,0.9-0.9,1.3c0.3,0.5,0.5,0.8,0.7,1.1c0.1,0.1,0.3,0.5,0.7,0.9c0.9-0.2,2.5-0.7,4.7-1.4l0.5-0.1
		c1.7-0.4,2.7-0.7,3-0.7c1.1-0.3,2-0.6,2.9-0.8c0.9-0.2,1.8-0.4,2.5-0.6l8.2-2.1c3.4-0.9,5.7-1.4,6.9-1.5c0.4-0.1,0.8,0,1,0.1
		c0.3,0.1,1,0.5,1.9,1.1c0.3,0.4,0.6,0.7,0.8,1.1c0.2,0.3,0.3,0.5,0.4,0.6c0.2,0.3,0.3,0.5,0.3,0.8c-0.1,0.2-0.3,0.3-0.3,0.4
		l-1.9,2.2l-1.9,1.9l-2.6,2.8l-1.9,1.9l-6.3,6.4l-0.5,0.5c-0.5,0.5-0.8,0.8-1,1c-0.5,0.5-1,0.9-1.4,1c-0.7-0.2-1.7-0.9-3-1.9
		c-0.7-0.6-1.2-1-1.5-1.1l-1.2,1.2l2.2,2l0.7,0.7c2.2,1.9,3.9,3.5,5.3,4.9c2.8,2.7,5.1,5.2,7,7.2c2.7,2.9,4.4,4.7,5,5.3
		c0.4,0.4,1,1,1.8,1.7l2.2-1.6l3.8-2.6L95,625.4z M118.2,649c-0.1-0.4,0-1.6,0.2-3.5l0.6-7.3c0.1-0.8,0.1-1.8,0.1-3
		c0-0.5,0-1,0.1-1.4c2.2,0.8,4.1,1,5.7,0.6c1.6-0.4,3-1.3,3.9-2.6c1.3-1.7,1.6-3.8,1-6.4c-0.6-2.5-2.2-4.8-4.9-6.8
		c-1.7-1.2-3.4-2.4-5-3.3l-2.5-1.7l-1.1-0.7c-0.1-0.1-0.6-0.5-1.5-1.3c-0.9-0.7-1.6-1.1-1.8-1.3c-0.6-0.4-1.2-0.8-1.9-1.2l-0.2,0.1
		l-0.8,1.2c0.3,0.3,1,0.9,2,1.8l1,1.1c-0.5,0.8-1.7,2.5-3.7,5.2c-0.9,1.2-1.9,2.5-3,3.9l-0.8,1l-1.3,1.8l-1.8,2.2l-3.2,4.3
		c-0.8,1-1.3,1.6-1.4,1.8c-0.1,0.1-0.3,0.3-0.5,0.5c-0.7-0.2-1.4-0.5-2.1-0.9c-0.7-0.4-1.3-0.7-1.8-0.7c-0.2,0.2-0.4,0.4-0.5,0.5
		c-0.1,0.1-0.2,0.3-0.4,0.6l0.8,0.6c0.7,0.5,1.5,1,2.4,1.5l2.9,1.9c0.1,0.1,0.4,0.3,0.7,0.5c0.5,0.4,2.1,1.7,4.7,4.1l0.8,0.5
		c0.1,0.1,0.2,0.2,0.5,0.4c0.3-0.3,0.7-0.7,1.1-1.3c-0.5-0.8-1.2-1.7-2.1-2.7c-0.5-0.6-0.8-1.1-1-1.6l2.8-3.5l3.1-4.3
		c0.4-0.5,0.7-0.9,1.1-1.3c0.6,0.4,1.1,0.7,1.4,1c1,0.7,1.5,1.3,1.7,1.9c0.1,0.4,0.1,1.4-0.2,3.2c-0.6,3.7-1.1,6.5-1.4,8.1
		c-0.1,0.6-0.3,1.6-0.5,3l-0.3,1.7c0.2,0.2,0.5,0.3,0.9,0.5c0.8,0.5,1.3,0.8,1.5,0.9l1.9,1.5c0.6,0.5,1.1,0.9,1.5,1.2l0.8,0.6
		l0.9,0.9l0.4,0.3l0.5,0.4c0.2-0.1,0.3-0.3,0.4-0.4c0.1-0.2,0.2-0.4,0.3-0.7c-0.2-0.5-0.4-1-0.9-1.7
		C118.6,650,118.3,649.4,118.2,649z M112.8,627.6c-0.3-0.2-0.7-0.6-1.3-1.1l0.4-0.5c0.7-0.9,1.3-1.7,1.8-2.2l1.5-2.1l1.2-1.5
		l1.9-2.6l0.3-0.3c0.5,0.3,1,0.6,1.6,1.1c1.3,0.9,2.1,1.7,2.6,2.4c0.6,0.8,0.9,1.7,1,2.5c0.1,0.6,0,1.3-0.3,2.2
		c-0.3,0.9-0.7,1.7-1.3,2.5c-1,1.3-2.2,2-3.7,2.1C116.9,630,115.1,629.3,112.8,627.6z M151.1,660.2c0.9-1.5,1.1-3.2,0.7-5.1
		c-0.4-1.9-1.6-3.7-3.5-5.3c1.8,0.2,3,0.2,3.5,0.2c1.1-0.1,2-0.4,2.8-0.9c0.8-0.5,1.4-1.1,1.9-2c0.4-0.8,0.7-1.6,0.8-2.4
		c0.1-0.8,0.1-1.6-0.2-2.5c-0.2-0.9-0.6-1.7-1.1-2.4c-0.5-0.8-1-1.3-1.4-1.7c-1.1-1-2.2-1.9-3.2-2.5l-1.4-0.8
		c-0.6-0.4-1-0.6-1.1-0.7c-0.1-0.1-0.3-0.2-0.5-0.3l-0.8-0.4l-7.1-3.7l-4.8-2.6l-0.7,1.5c1,0.8,1.7,1.3,1.9,1.4c0.6,0.4,1,0.7,1.1,1
		c0.1,0.1,0.1,0.2,0.1,0.3c0,0.3-0.3,1-0.9,2.1c-2.1,4-3.4,6.4-3.9,7.3l-4.9,8.9c-0.8,1.5-1.6,2.6-2.1,3.3c-0.2,0.3-0.5,0.5-0.9,0.7
		c-0.7-0.1-1.6-0.3-2.6-0.7c-0.5-0.2-1-0.4-1.4-0.5l-1,1.7c2.8,1.4,4.5,2.3,5.1,2.6c2.2,1,4.1,2,5.6,2.9l3.6,2.1
		c1.6,0.9,2.9,1.5,3.8,1.8c1.7,0.6,3.2,0.9,4.3,1c1.2,0.1,2.4-0.1,3.7-0.5c1-0.3,1.8-0.7,2.5-1.3C149.8,662,150.5,661.1,151.1,660.2
		z M144.6,657.3c-0.7,1.3-1.6,2.2-2.5,2.8c-1,0.6-2.1,0.9-3.4,0.8c-1.3-0.1-2.7-0.6-4.4-1.5c-0.8-0.5-1.6-1.1-2.3-2
		c0.1-0.4,0.1-0.7,0.2-0.9l2.6-4.8l1.8-3.1l1.4-2.6c0.4,0.1,1.1,0.3,2,0.9c2,1.1,3.4,2.2,4.2,3.1c0.8,0.9,1.2,2.2,1.3,3.7
		C145.7,654.7,145.3,656,144.6,657.3z M141.2,645.2c-0.8-0.4-1.4-0.8-1.9-1.2c0.3-0.6,0.6-1.1,0.7-1.4l1-1.7c1.2-2.1,2.1-3.8,2.7-5
		c0.3-0.6,0.5-1.1,0.7-1.4c1.1,0.4,1.9,0.8,2.5,1.1c2.1,1.2,3.4,2.5,3.9,4c0.5,1.5,0.4,2.9-0.3,4.2c-1.1,1.9-2.4,2.9-3.9,3.1
		C145.1,646.9,143.3,646.4,141.2,645.2z M177,678.5c-0.1-0.2-0.2-0.6-0.2-1.4c-0.1-1.4-0.1-2.5-0.1-3.3c0-1.6,0-2.8,0-3.6
		c0-1.4,0-3.1,0-5.2c0.1-2.1,0-4.3,0-6.6l-0.2-10.7l0-0.5l-1-0.4c-0.5-0.2-0.9-0.4-1.4-0.6l-11,11.5l-9.4,9.8
		c-0.6,0.5-1.1,0.8-1.4,0.9c-0.3,0.1-1.1,0-2.4-0.3c-0.8-0.2-1.4-0.3-1.7-0.3l-0.7,1.5l0.4,0.2c1,0.4,2.1,0.8,3.3,1.1l1,0.2
		c3.4,1.7,5.6,2.8,6.5,3.1c0.1-0.2,0.2-0.3,0.3-0.5c0.1-0.2,0.2-0.6,0.4-1.1c-0.9-0.5-1.4-0.8-1.5-0.9c-0.9-0.5-1.5-1-1.8-1.4
		c-0.1-0.2-0.1-0.5,0-0.9c0.1-0.3,0.5-0.7,1.1-1.4c2.1-2.3,3.5-3.8,4.1-4.4l8.6,3.6v5.1v2.5c0,0.3-0.1,0.5-0.1,0.6
		c-0.1,0.2-0.2,0.3-0.4,0.4c-0.2,0-0.7,0-1.5-0.1l-2.7-0.5c-0.2,0.5-0.5,1-0.7,1.5l1.1,0.4l3.9,1.4c0.5,0.2,1.4,0.5,2.6,1
		c1.1,0.5,2.3,1,3.6,1.7c1.3,0.7,2.5,1.2,3.6,1.7c0.1-0.2,0.2-0.4,0.2-0.5c0.1-0.2,0.2-0.6,0.3-1.1c-0.6-0.6-1.2-1-1.8-1.3
		C177.6,679.1,177.2,678.8,177,678.5z M170.1,664l-0.6-0.2c-0.6-0.3-2.7-1.1-6.2-2.6l6.8-7.2c0.1,1.1,0.1,2.7,0.1,4.7
		C170.2,660.8,170.1,662.5,170.1,664z M236.7,666.7l0.3-1.5c-0.3-0.1-0.6-0.2-1-0.2l-5.3-1.1l-4.7-0.9l-0.7-0.1l-0.3,1.4
		c0.4,0.3,1,0.7,1.8,1c1.2,0.4,1.9,0.9,2.1,1.3c0.1,0.3,0.1,0.9-0.1,1.9c-0.1,0.3-0.2,1.5-0.5,3.6c-0.1,1.1-0.4,2.2-0.6,3.5
		c-0.3,1.3-0.5,2.4-0.6,3.3c-0.2,0.9-0.4,2.2-0.7,3.8l-0.5,2.7l-0.2,0.6c-7.5-11.7-11.9-18.4-13-20.4c-1.2-1.9-2.7-4.3-4.7-7
		c-0.3-0.1-0.6-0.2-0.7-0.2c-0.1,0-0.6-0.1-1.5-0.3c-0.9-0.2-1.4-0.3-1.5-0.3c-0.1,0-0.3-0.1-0.5-0.2c-0.9-0.2-1.5-0.4-1.7-0.4
		c-0.3-0.1-1-0.2-2-0.4l-0.7-0.1l-2-0.5l-0.3,1.7c1.7,0.7,2.7,1.1,3.1,1.4c0.6,0.4,1.2,1,1.6,1.7c0.2,0.3,0.3,0.7,0.3,1.1
		c0.1,0.8-0.1,2-0.5,3.8l-1,4.7l-1.8,7.6l-0.3,1.3c-0.1,0.5-0.5,2-1.2,4.5c-0.2,0.9-0.5,1.3-0.8,1.5c-0.3,0.2-1.1,0.1-2.4-0.3
		c-0.5-0.1-0.8-0.2-0.9-0.3c-0.3-0.1-0.7-0.1-1.1-0.1c-0.1,0.4-0.2,0.6-0.2,0.8c-0.1,0.3-0.1,0.6-0.2,0.9c0.3,0.1,0.6,0.2,0.8,0.3
		c0.1,0,0.6,0.1,1.4,0.2c0.8,0.2,2.5,0.5,5.1,1c2.6,0.9,4.2,1.3,4.7,1.5l0.9,0.2l0.3-1.9c-0.2-0.2-0.4-0.2-0.6-0.3
		c-2.1-0.6-3.4-1.1-3.9-1.4c-0.1-0.3-0.1-0.6-0.1-0.8c0-0.2,0-0.5,0.1-0.9c0.2-1.5,0.4-2.9,0.7-4.2l0.6-3.1l0.4-1.7
		c0.1-0.5,0.2-1.1,0.4-1.6l1.8-8.7l3.1,4.3c1.3,1.8,2.7,3.8,4.2,6.1l2.3,3.7l3.1,4.9l4.5,7l2.2,3.5l2.8,0.6l0.3-1.2
		c0-0.1,0.1-0.5,0.2-1.2l0.4-1.3l0.2-1.2l0.7-2.9c0-0.2,0.1-0.6,0.3-1.2l1.6-8.2c0.1-0.5,0.2-1,0.3-1.4c0.2-1.3,0.5-3.1,1-5.4
		c0.2-1,0.4-1.7,0.4-2c0.1-0.6,0.2-0.9,0.2-1c0.1-0.4,0.2-0.7,0.4-0.8c0.1-0.1,0.6-0.2,1.5-0.5c0.2,0,0.8-0.1,1.9-0.1
		C235.9,666.8,236.3,666.8,236.7,666.7z M263.2,669.1c-2.3-1.5-5.2-2.5-8.5-2.8c-2-0.2-3.8-0.2-5.4,0c-1.7,0.2-3.3,0.7-4.9,1.5
		c-1.6,0.8-3.1,1.7-4.2,2.7c-1.1,1.1-2.1,2.3-2.8,3.7c-1,1.9-1.6,3.8-1.8,5.8c-0.2,1.6-0.2,3.1,0,4.3c0.3,2,0.6,3.3,1,4.1
		c0.6,1.4,1.4,2.7,2.3,3.8c1,1.1,2.3,2.3,3.9,3.5c0.1,0.1,0.8,0.4,2,0.9c0.7,0.3,1.4,0.6,2.3,0.8c1.2,0.3,2.5,0.5,3.8,0.7
		c5.5,0.6,10-0.5,13.5-3.4c3.5-2.9,5.4-6.5,5.9-11c0.3-3-0.3-6-1.8-8.9C267.4,672.6,265.6,670.7,263.2,669.1z M262.3,684.3
		c-0.3,3.1-1.1,5.5-2.2,7.3c-1.1,1.8-2.5,3-4.1,3.7c-1.6,0.6-3.2,0.9-5,0.7c-0.9-0.1-1.8-0.4-2.7-0.8c-0.9-0.4-1.5-0.9-2-1.3
		c-0.9-0.9-1.5-1.8-1.9-2.7c-0.2-0.5-0.6-1.8-1.1-3.9c-0.1-0.6-0.2-1.4-0.2-2.6c0-0.5,0-0.8,0-1c0-0.6,0-1.6,0.2-2.9
		c0.2-2.2,0.6-4.1,1.2-5.6c0.6-1.5,1.4-2.9,2.4-4.1c0.6-0.7,1.5-1.3,2.7-1.9c1.1-0.5,2.4-0.7,3.8-0.5c2.6,0.3,4.6,1.2,6.1,2.7
		c1.5,1.6,2.5,3.7,2.8,6.3c0.1,0.5,0.1,0.9,0.1,1l0.1,0.4C262.6,681.3,262.5,683.1,262.3,684.3z M311.1,669.3l-5.4,0.1l-4.8,0.1
		l-0.7,0.1l0,1.4c0.4,0.2,1.1,0.4,2,0.6c1.2,0.2,2,0.5,2.3,0.8c0.2,0.2,0.3,0.9,0.3,1.9c0,0.3,0.1,1.5,0.3,3.6
		c0.1,1.1,0.1,2.3,0.1,3.6c0,1.3,0,2.4,0.1,3.4c0.1,0.9,0.1,2.2,0.1,3.9l0.1,2.8l0,0.6c-9.8-9.8-15.5-15.5-17.1-17.1
		c-1.6-1.6-3.6-3.6-6.1-5.8c-0.3,0-0.6,0-0.8,0c-0.1,0-0.6,0-1.5,0c-0.9,0-1.4,0-1.5,0c-0.2,0-0.3,0-0.5,0c-0.9-0.1-1.5-0.1-1.7-0.1
		c-0.4,0-1.1,0-2,0.1h-0.7l-2.1,0l0.1,1.7c1.8,0.3,2.9,0.6,3.3,0.7c0.7,0.3,1.3,0.7,1.9,1.3c0.3,0.3,0.5,0.6,0.6,0.9
		c0.2,0.7,0.3,2,0.3,3.9l0,4.8l-0.2,7.8l0,1.3c0,0.6-0.1,2.1-0.2,4.6c-0.1,0.9-0.2,1.4-0.5,1.6c-0.3,0.2-1.1,0.3-2.4,0.3
		c-0.6,0-0.9-0.1-1-0.1c-0.3,0-0.7,0-1.1,0.1c0,0.4,0,0.7,0,0.9c0,0.3,0,0.6,0,1c0.3,0.1,0.6,0.1,0.8,0.1c0.1,0,0.5,0,1.4-0.1
		c0.8-0.1,2.6-0.1,5.2-0.1c2.8,0.3,4.4,0.4,4.9,0.4h1l-0.1-2c-0.3-0.1-0.5-0.1-0.6-0.2c-2.1-0.1-3.5-0.3-4.2-0.6
		c-0.1-0.3-0.2-0.5-0.3-0.7c0-0.2-0.1-0.5-0.1-0.9c-0.1-1.5-0.2-2.9-0.2-4.3l-0.1-3.1l0-1.7c0-0.6,0-1.1,0-1.7l-0.1-8.9l4,3.6
		c1.6,1.5,3.4,3.2,5.4,5.1l3,3.1l4.1,4.1l5.9,5.8l2.9,3l2.8,0l0-1.3c0-0.1,0-0.5-0.1-1.2l0.1-1.3l-0.1-1.2l0-2.9c0-0.2,0-0.6,0-1.2
		l-0.1-8.4c0-0.5,0-1-0.1-1.5c-0.1-1.3-0.1-3.2-0.1-5.5c0-1,0-1.7,0-2c0-0.6,0-0.9,0-1c0-0.4,0.1-0.7,0.2-0.9
		c0.1-0.1,0.5-0.4,1.4-0.8c0.2-0.1,0.8-0.2,1.8-0.5c0.4-0.1,0.8-0.2,1.1-0.4v-1.6C311.8,669.3,311.4,669.3,311.1,669.3z
		 M389.6,680.1l0-0.7c0-0.3-0.1-0.6-0.1-1c-0.3,0.1-0.6,0.1-0.8,0.2c-0.3,0.1-0.7,0.2-1.2,0.3c-0.3,2.1-0.8,3.7-1.6,5
		c-0.6,1-1.4,1.7-2.4,2.2c-1.5,0.7-3.3,1.3-5.5,1.8c-3.3,0.8-5.4,1.1-6.1,0.9c-0.5-0.1-0.8-0.5-0.9-1l-1.2-5
		c-0.4-1.2-0.8-2.8-1.2-4.6c0-0.1-0.1-0.4-0.2-0.8c1.2-0.4,3-0.9,5.3-1.5c2-0.5,3.2-0.7,3.6-0.7c0.5,0,0.8,0.2,1.1,0.4
		c0.3,0.3,0.8,1.1,1.5,2.5c0.4,0.7,0.6,1.2,0.7,1.5l1.7-0.4l-0.1-0.5c-0.1-0.5-0.3-1.1-0.5-2c-0.3-0.9-0.5-1.6-0.6-2
		c-0.1-0.3-0.1-0.6-0.2-1.1c-0.1-0.5-0.3-1.5-0.7-3.2c-0.2-0.7-0.5-1.7-0.8-3.1l-1.4,0.3l-0.3,0.1c0.1,2,0.1,3.2,0,3.6
		c-0.1,0.6-0.3,0.9-0.5,1.2c-0.3,0.3-1,0.6-2.1,1c-1.2,0.4-3.2,0.9-6,1.6c-0.3,0.1-0.6,0.1-1.1,0.2l-0.7-2.9l-1-3.9
		c-0.6-2.7-1-4.2-1-4.6c1.5-0.4,3.2-0.9,5.2-1.4c1.7-0.4,3.3-0.7,4.8-0.9c0.8-0.1,1.3-0.2,1.5-0.2c0.6-0.1,1.1-0.2,1.6-0.2
		c0.8,0.6,1.5,1.2,2,1.8l1.3,1.4c0.4,0.6,0.7,1,0.9,1.2c0.4-0.1,0.7-0.1,0.8-0.1l1-0.3c0-0.2-0.1-0.3-0.1-0.4l-0.3-0.9l-1.1-4.8
		c-0.1-0.5-0.4-0.9-0.7-1.2c-2,0.2-3.4,0.5-4.4,0.7l-4.3,1.1c-2.8,0.7-6,1.5-9.5,2.5c-2.3,0.7-3.8,1.1-4.4,1.2
		c-1.6,0.4-3,0.6-4.2,0.8l0-0.4c-0.6,0.1-1.3,0.3-2.3,0.5c-0.9,0.3-2.1,0.4-3.4,0.6c-1.3,0.2-2.7,0.3-4,0.3c-1.4,0-2.2,0.1-2.5,0.1
		c0,0.5,0,0.9,0,1.1c0,0.2,0.1,0.4,0.2,0.7c0.3,0,0.6,0,1,0c0.4,0,0.7,0,0.9,0c1.1-0.1,1.9,0.1,2.4,0.4c0.3,0.2,0.5,0.4,0.6,0.7
		c0.1,0.5,0,1.1-0.2,1.8c-0.2,0.8-0.4,1.9-0.6,3.4c-0.1,0.4-0.1,0.8-0.2,1l-0.5,1.7l-1.8,8.2l-1,3.6c-0.6-1-1.2-2.1-1.9-3.2
		l-3.6-5.8c-1.7-2.6-2.9-4.7-3.7-6.2l-1.1-2c-0.1-0.2-0.1-0.3-0.1-0.5c0-0.3,0-0.5,0.2-0.6c0.3-0.4,0.8-0.7,1.5-1
		c0.3-0.1,1.2-0.4,2.8-0.8c0-0.1-0.1-0.8-0.3-1.9l-1.8,0.2c-0.5,0.2-1.3,0.3-2.4,0.5c-1.5,0.3-2.5,0.5-2.9,0.5
		c-3.2,0.4-5.9,0.7-7.9,0.7c-0.2,0-0.7,0.1-1.5,0.1l0.3,2h1.1c1.1-0.1,1.8,0,2.2,0.1c0.4,0.1,0.7,0.4,1,0.7c0.2,0.2,1.1,1.7,2.9,4.4
		l3.6,6.1l5.9,9.5c1.6,2.8,2.5,4.4,2.8,4.9c0.2,0.5,0.5,0.9,0.7,1.4c0.6,0,1-0.1,1.3-0.1c0.2,0,0.6-0.1,1.2-0.2
		c0.2-0.9,0.6-2.5,1-4.9l0.2-0.5c0.4-1.7,0.7-2.8,0.8-3c0.3-1.1,0.5-2,0.7-2.9c0.2-0.9,0.4-1.7,0.6-2.5l2.1-8.2
		c0.8-3.4,1.5-5.7,2-6.8c0.2-0.4,0.3-0.7,0.6-0.9c0.2-0.2,0.8-0.6,1.7-1.1c0.1,0,0.3,0,0.4-0.1c0.9-0.2,1.8-0.3,2.7-0.3
		c0.3,0,0.6,0,0.7,0c0.3,0,0.6,0,0.8,0.1c0.1,0.2,0.1,0.4,0.1,0.5l0.9,2.8l0.6,2.6l1,3.7l0.6,2.6l2.2,8.8l0.2,0.7
		c0.2,0.6,0.3,1.1,0.4,1.3c0.1,0.7,0.2,1.3,0.1,1.8c-0.6,0.5-1.6,1-3.3,1.6c-0.9,0.3-1.5,0.6-1.7,0.7l0.4,1.6l2.8-0.8l1-0.2
		c2.7-0.8,5-1.5,6.9-1.9c3.8-0.9,7.1-1.6,9.9-2.2c3.9-0.8,6.3-1.3,7.2-1.5c0.6-0.1,1.4-0.4,2.4-0.7l-0.2-2.7L389.6,680.1z
		 M426.2,673.3c-0.5-0.1-1.1-0.2-1.9-0.2c-1,0-1.7-0.1-2.1-0.2c-0.4-0.2-1.3-0.9-2.8-2.1l-5.8-4.5c-0.6-0.5-1.4-1.1-2.4-1.7
		c-0.5-0.3-0.9-0.6-1.2-0.8c1.9-1.4,3.1-2.9,3.6-4.5c0.5-1.6,0.5-3.1,0-4.7c-0.8-2-2.3-3.5-4.7-4.4c-2.4-0.9-5.2-0.8-8.4,0.4
		c-2,0.7-3.8,1.5-5.5,2.3l-2.8,1.2l-1.2,0.5c-0.1,0-0.7,0.2-1.8,0.5c-1.1,0.4-1.8,0.7-2.1,0.8c-0.6,0.3-1.3,0.6-2,1l0,0.3l0.6,1.3
		c0.4-0.1,1.3-0.3,2.6-0.7l1.4-0.2c0.4,0.8,1.2,2.8,2.3,5.9c0.5,1.4,1,3,1.6,4.6l0.4,1.2l0.8,2.1l0.9,2.7l1.9,5
		c0.5,1.2,0.7,2,0.7,2.2c0.1,0.1,0.1,0.4,0.1,0.7c-0.5,0.4-1.2,0.9-1.9,1.3c-0.8,0.4-1.3,0.8-1.6,1.1c0,0.3,0.1,0.5,0.2,0.7
		c0.1,0.1,0.1,0.4,0.3,0.7l1-0.4c0.8-0.3,1.7-0.7,2.6-1.1l3.1-1.4c0.2-0.1,0.5-0.2,0.8-0.3c0.6-0.2,2.6-0.8,6-1.7l0.9-0.4
		c0.1,0,0.3-0.1,0.6-0.2c-0.1-0.4-0.2-1-0.5-1.7c-1,0-2.1,0.1-3.4,0.3c-0.7,0.1-1.4,0.1-1.9,0l-1.4-4.3l-2-4.9
		c-0.2-0.6-0.4-1.1-0.5-1.6c0.7-0.3,1.2-0.5,1.6-0.6c1.1-0.4,2-0.5,2.5-0.4c0.4,0.1,1.2,0.7,2.5,1.9c2.8,2.6,4.8,4.5,6,5.7
		c0.5,0.5,1.2,1.1,2.3,2l1.3,1.2c0.2-0.1,0.5-0.3,0.9-0.5c0.9-0.4,1.4-0.7,1.6-0.7l2.3-0.8c0.7-0.3,1.3-0.5,1.8-0.6l1-0.3l1.2-0.3
		l0.5-0.2l0.6-0.2c-0.1-0.2-0.1-0.4-0.2-0.5C426.5,673.7,426.3,673.5,426.2,673.3z M406.4,662.2c-0.8,1.3-2.4,2.4-5,3.4
		c-0.3,0.1-0.9,0.3-1.6,0.6l-0.2-0.6c-0.4-1.1-0.7-2-0.9-2.7l-0.9-2.4l-0.6-1.9l-1.1-3l-0.1-0.4c0.5-0.3,1.1-0.5,1.8-0.8
		c1.5-0.5,2.6-0.8,3.3-0.8c1,0,1.9,0.1,2.7,0.5c0.5,0.2,1.1,0.7,1.7,1.5c0.6,0.7,1,1.6,1.4,2.5C407.2,659.5,407.2,660.9,406.4,662.2
		z M449.9,651.9c-0.8-1.6-2.1-2.7-3.9-3.4c-1.8-0.7-3.9-0.7-6.4-0.1c1.2-1.4,1.9-2.4,2.1-2.8c0.5-1,0.8-1.9,0.8-2.8
		c0-0.9-0.2-1.8-0.6-2.6c-0.4-0.8-0.9-1.5-1.5-2c-0.6-0.6-1.4-1-2.2-1.3c-0.8-0.3-1.7-0.4-2.6-0.4c-0.9,0-1.7,0.1-2.2,0.2
		c-1.5,0.3-2.7,0.7-3.8,1.3l-1.4,0.7c-0.6,0.3-1,0.5-1.2,0.6c-0.2,0.1-0.3,0.2-0.5,0.3l-0.8,0.4l-7,3.8l-4.8,2.6l0.8,1.5
		c1.2-0.5,2-0.7,2.3-0.9c0.6-0.3,1.2-0.4,1.5-0.4c0.1,0,0.2,0,0.3,0.1c0.2,0.2,0.7,0.8,1.2,1.9c2.1,3.9,3.4,6.4,3.9,7.3l4.6,9
		c0.8,1.6,1.3,2.8,1.6,3.6c0.1,0.3,0.1,0.7,0.1,1.1c-0.5,0.5-1.1,1.1-2,1.7c-0.5,0.3-0.8,0.6-1.1,0.9l0.8,1.7c2.8-1.5,4.4-2.4,5-2.8
		c2.1-1.2,3.9-2.3,5.5-3l3.8-1.8c1.6-0.8,2.9-1.5,3.6-2.1c1.5-1.1,2.6-2.1,3.3-3c0.7-0.9,1.2-2,1.6-3.3c0.3-1,0.4-1.9,0.3-2.8
		C450.7,654,450.4,652.9,449.9,651.9z M429.8,652.6c-0.3-0.6-0.6-1.1-0.7-1.4l-0.9-1.8c-1.1-2.2-2-3.8-2.7-5
		c-0.3-0.6-0.6-1.1-0.7-1.4c0.9-0.7,1.7-1.2,2.3-1.5c2.1-1.1,4-1.4,5.5-1c1.5,0.4,2.6,1.3,3.3,2.6c1,1.9,1.1,3.6,0.4,4.9
		c-0.7,1.4-2.2,2.6-4.4,3.7C431.1,652.1,430.4,652.4,429.8,652.6z M443.6,662.5c-0.8,1-2.1,2-3.7,2.8c-0.8,0.4-1.8,0.7-2.9,0.7
		c-0.3-0.2-0.5-0.5-0.6-0.7l-2.5-4.9l-1.6-3.2l-1.3-2.6c0.3-0.3,0.9-0.7,1.8-1.1c2.1-1,3.7-1.6,4.9-1.8c1.2-0.1,2.5,0.2,3.8,1
		c1,0.5,1.8,1.5,2.4,2.9c0.7,1.3,1,2.5,0.9,3.7C444.8,660.5,444.3,661.5,443.6,662.5z M480.2,635l-0.3-0.7c-0.1-0.2-0.3-0.5-0.4-0.9
		c-0.3,0.2-0.5,0.3-0.7,0.4c-0.3,0.2-0.6,0.4-1,0.7c0.4,2,0.5,3.8,0.2,5.3c-0.2,1.2-0.7,2.1-1.5,2.9c-1.1,1.2-2.7,2.4-4.5,3.6
		c-2.8,1.9-4.6,2.9-5.4,3c-0.5,0.1-0.9-0.2-1.2-0.7l-2.8-4.3c-0.8-1-1.7-2.3-2.7-3.9c-0.1-0.1-0.2-0.3-0.5-0.7
		c1-0.8,2.5-1.9,4.5-3.2c1.7-1.2,2.8-1.8,3.1-1.9c0.5-0.1,0.8-0.1,1.2,0c0.4,0.2,1.2,0.8,2.3,1.8c0.6,0.5,1,0.9,1.2,1.1l1.4-0.9
		l-0.3-0.5c-0.3-0.4-0.7-0.9-1.2-1.7c-0.6-0.8-1-1.3-1.2-1.7c-0.2-0.2-0.4-0.6-0.6-1c-0.2-0.4-0.8-1.3-1.7-2.7
		c-0.4-0.6-1-1.5-1.9-2.6l-1.2,0.8l-0.2,0.2c0.8,1.9,1.2,3,1.2,3.4c0.1,0.6,0.1,1-0.1,1.3c-0.1,0.3-0.7,0.9-1.7,1.6
		c-1,0.8-2.7,2-5.1,3.6c-0.2,0.2-0.6,0.3-0.9,0.5l-1.7-2.5l-2.3-3.3c-1.5-2.3-2.3-3.6-2.5-4c1.3-0.9,2.7-1.9,4.4-3
		c1.5-1,2.8-1.8,4.2-2.5c0.7-0.4,1.2-0.6,1.3-0.7c0.6-0.3,1-0.6,1.4-0.7c1,0.3,1.8,0.6,2.5,1l1.7,0.9c0.5,0.4,1,0.6,1.3,0.8
		c0.4-0.2,0.6-0.3,0.7-0.4l0.8-0.6c-0.1-0.2-0.2-0.3-0.2-0.4l-0.6-0.8l-2.8-4.1c-0.3-0.5-0.6-0.7-1.1-0.8c-1.7,0.9-3,1.6-3.9,2.1
		l-3.7,2.5c-2.4,1.6-5.1,3.5-8.1,5.6c-2,1.4-3.2,2.3-3.7,2.6c-1.4,1-2.7,1.7-3.9,2.3c-0.6,0.3-1.3,0.7-2.1,1.2l1,1.6
		c0.4-0.2,0.7-0.3,0.9-0.5c0.7-0.5,1.6-0.9,2.4-1.2c0.3-0.1,0.5-0.2,0.7-0.3c0.3-0.1,0.6-0.2,0.8-0.1c0.2,0.2,0.3,0.3,0.3,0.4
		l1.8,2.3l1.5,2.3l2.2,3.1l1.5,2.3l5.1,7.5l0.4,0.6c0.4,0.5,0.6,0.9,0.8,1.1c0.4,0.6,0.6,1.1,0.7,1.6c-0.4,0.6-1.2,1.5-2.5,2.6
		c-0.7,0.6-1.2,1-1.4,1.2l0.9,1.4l2.4-1.7l0.9-0.6c2.3-1.7,4.2-3.1,5.9-4.2c3.3-2.2,6.1-4,8.5-5.4c3.4-2.1,5.5-3.3,6.3-3.8
		c0.5-0.3,1.2-0.8,2-1.5l-1.1-2.5L480.2,635z M533.8,590.7c-0.7,0.4-1.4,0.8-1.8,1.2c-0.5,0.4-1,0.7-1.3,0.8c-0.2,0-0.6-0.1-1.3-0.3
		c-1.3-0.4-2.4-0.7-3.2-1c-1.5-0.6-2.6-1-3.4-1.3c-1.3-0.4-2.9-1-4.9-1.8c-2-0.7-4.1-1.5-6.2-2.1l-10.2-3.4l-0.5-0.1l-0.7,0.8
		c-0.3,0.4-0.7,0.7-1,1.1l7.2,14.2l6.1,12.1c0.3,0.8,0.4,1.3,0.4,1.7c0,0.3-0.4,1-1,2.1c-0.3,0.5-0.5,0.9-0.7,1.2
		c-0.3,0.1-0.4,0.1-0.7,0.2c-0.9,0.4-1.6,0.5-2,0.5c-0.4,0-1.5-0.3-3.3-0.9l-7-2.2c-0.8-0.2-1.7-0.5-2.9-0.8c-0.6-0.1-1-0.3-1.4-0.4
		c1.3-1.9,1.8-3.8,1.8-5.5c-0.1-1.7-0.6-3.1-1.6-4.4c-1.4-1.6-3.4-2.4-6-2.4c-2.6,0-5.1,1.1-7.7,3.3c-1.6,1.4-3.1,2.8-4.4,4.2
		l-2.2,2.1l-0.9,0.9c-0.1,0.1-0.6,0.4-1.5,1.1c-0.9,0.8-1.4,1.3-1.7,1.5c-0.5,0.5-1,1-1.6,1.6l0.1,0.3l1,1c0.4-0.2,1.1-0.7,2.2-1.5
		l1.3-0.7c0.7,0.6,2.1,2.2,4.2,4.8c1,1.1,2,2.4,3.1,3.7l0.8,1l1.5,1.7l1.8,2.2l3.5,4c0.8,1,1.4,1.6,1.5,1.8c0.1,0.1,0.2,0.3,0.4,0.6
		c-0.4,0.6-0.8,1.2-1.4,1.8c-0.6,0.6-0.9,1.1-1.1,1.6c0.2,0.3,0.3,0.5,0.4,0.6c0.1,0.1,0.2,0.3,0.5,0.6l0.8-0.7
		c0.6-0.5,1.3-1.2,2-1.9l2.4-2.3c0.1-0.1,0.4-0.3,0.7-0.6c0.5-0.4,2.2-1.7,5-3.7l0.7-0.7c0.1-0.1,0.2-0.2,0.4-0.4
		c-0.2-0.3-0.6-0.8-1.1-1.4c-0.9,0.3-2,0.8-3.1,1.4c-0.6,0.4-1.2,0.6-1.8,0.7l-2.8-3.5l-3.6-4c-0.4-0.5-0.8-0.9-1-1.3
		c0.6-0.5,1-0.9,1.2-1.1c0.9-0.8,1.6-1.2,2.2-1.3c0.4-0.1,1.4,0.2,3,0.9c3.5,1.4,6.1,2.5,7.6,3.2c0.6,0.3,1.6,0.6,2.9,1.1l1.6,0.7
		c0.2-0.2,0.4-0.5,0.7-0.8c0.7-0.7,1-1.1,1.2-1.2l1.9-1.6c0.6-0.5,1.1-0.9,1.5-1.2l0.8-0.7l1.1-0.7l0.3-0.3l0.5-0.4
		c-0.1-0.1-0.1-0.1-0.1-0.2c0.5-0.6,1.1-1.3,1.6-2.1l0.5-0.9c2.8-2.7,4.5-4.4,5.2-5.1c-0.1-0.2-0.3-0.3-0.4-0.4
		c-0.2-0.1-0.5-0.4-0.9-0.8c-0.8,0.6-1.3,1-1.4,1.1c-0.8,0.7-1.5,1.1-1.9,1.2c-0.3,0-0.6,0-0.9-0.4c-0.2-0.2-0.6-0.7-1-1.5
		c-1.5-2.8-2.4-4.6-2.7-5.4l6.3-6.9l4.8,1.7l2.4,0.9c0.2,0.1,0.4,0.2,0.6,0.3c0.2,0.1,0.3,0.3,0.3,0.6c0,0.2-0.2,0.6-0.6,1.4
		l-1.4,2.4c0.4,0.4,0.7,0.7,1.1,1.1l0.8-0.9l2.6-3.2c0.3-0.5,1-1.2,1.8-2.1c0.8-0.9,1.7-1.8,2.7-2.8c1.1-1,2-1.9,2.8-2.8
		c-0.1-0.2-0.3-0.3-0.3-0.4C534.6,591.2,534.2,591,533.8,590.7z M489.7,612.4c-0.2,1.5-1.4,3.2-3.5,5c-0.3,0.2-0.7,0.6-1.3,1.1
		l-0.5-0.5c-0.8-0.9-1.4-1.6-1.8-2.2l-1.7-2l-1.2-1.5l-2.1-2.4l-0.3-0.4c0.4-0.4,0.8-0.9,1.4-1.4c1.2-1,2.1-1.7,2.8-2
		c0.9-0.4,1.9-0.5,2.7-0.5c0.6,0.1,1.3,0.3,2.1,0.8c0.8,0.5,1.5,1.1,2.2,1.9C489.5,609.5,489.9,610.9,489.7,612.4z M514.3,594.9
		c-0.5,0.5-2,2.2-4.6,4.9l-4.5-8.8c1.1,0.3,2.6,0.8,4.5,1.5c1.9,0.7,3.6,1.3,5,1.9L514.3,594.9z M109.1,308.5
		c1.5,2.9,7.1,2.9,12.4,0.2c5.4-2.8,8.5-7.4,7-10.2c-1.5-2.9-7-3-12.4-0.2C110.8,301.1,107.6,305.7,109.1,308.5z M241.6,493.2
		c3.1,0.7,6.4,1.1,9.9,1.1c4.6,0,8.4-0.4,11.5-1.1c3.1-0.7,5.5-1.9,7.3-3.4l0.6-2.2l0.4-1.4c0.6-3.5,0.9-5.5,1-6
		c0.3-1.3,0.4-2.6,0.5-3.8c-1.7,0-3,0.2-4.1,0.4c-2.7,4.3-5.4,7.6-8.3,9.7c-2.9,2.2-5.9,3.3-9,3.3c-2.8,0-5.5-0.7-8-2.2
		c-1.9-1-3.5-2.4-4.7-4.2c-1.6-2.3-2.8-5.4-3.8-9.1c-0.6-2.3-0.9-6.1-0.9-11.6c0-9.3,1.8-16.6,5.5-21.8c2.7-3.9,6.2-5.8,10.6-5.8
		c3.6,0,6.8,0.9,9.7,2.8c2.9,1.9,5.7,5,8.4,9.3h3.9c0-2.3-0.3-4.5-0.8-6.5c-1.1-4.5-1.9-7.2-2.2-8.1c-2.7-0.8-5.6-1.4-8.7-1.8
		c-3.1-0.4-6.4-0.6-9.9-0.6c-8.6,0-15.7,3.1-21.2,9.3c-5.6,6.2-8.3,14-8.3,23.5c0,3.9,0.4,7.5,1.3,10.6c0.9,3.2,2.3,6.1,4.1,8.7
		c1.8,2.7,4.4,5.2,7.6,7.4C235.9,491.3,238.6,492.4,241.6,493.2z M344.5,487.8c-0.5,0.2-1,0.3-1.3,0.4l-3.4,0.6l-3.3,0.9
		c-0.1,0.6-0.2,1.6-0.2,3.1c0.6,0.2,1,0.3,1.4,0.3c3.7-0.4,6.7-0.6,9-0.6c5.1,0,8.9,0.1,11.2,0.4c1.7,0.2,3.3,0.3,4.6,0.3
		c0.2,0,0.9,0,2,0l-0.1-3.3c-1.3-0.7-3.3-1.3-6-2c-0.5-0.1-1-0.3-1.6-0.5c0.1-1.5,0.1-2.8,0.1-3.8l-0.1-5.6v-6.8
		c-0.1-4.3-0.2-7.2-0.1-8.6l0.1-6.1l-0.1-4.6v-6.1c0-0.2,0-1-0.1-2.4v-1.2c0-0.4,0-0.9,0.1-1.5l0-0.6l0-1.2V438l0.2-1
		c0.8-0.5,1.6-0.8,2.4-1.1c0.8-0.3,2.5-0.7,5.1-1.3c0.1-1,0.2-2.2,0.2-3.4c-1.1-0.1-2.1-0.2-3-0.2c-1.1,0-2.1,0.1-3.1,0.4
		c-0.5,0-0.9,0.1-1.5,0.1l-5.5,0.2c-0.4,0-0.9,0-1.5,0c-2.7,0-5.4-0.2-8-0.5l-4.1-0.1c-0.1,0-0.5,0-1.2,0.1
		c-0.2,0.7-0.3,1.6-0.3,2.7c0.5,0.2,1,0.4,1.5,0.5c3,0.8,4.9,1.5,5.9,2.2c0.3,0.2,0.5,0.4,0.6,0.6l0.3,3.4l0.2,8.1l-0.1,2.1
		c0,4.2-0.1,6.9-0.1,8c-1.1,0.2-2.1,0.3-3,0.3l-7.4,0.2l-7.6,0h-3l-6.3-0.2c-0.5,0-1.2-0.1-2-0.3c0-1.8-0.1-2.9-0.1-3.4
		c0-0.5,0-1.1,0-1.6c0-0.9,0-1.4,0-1.5c0-0.3,0-0.7-0.1-1.3l0.1-6.1c0-0.2,0-0.5-0.1-0.9v-0.4l0.1-1.6l0-2.1l0-0.7l-0.1-1.8
		c0-0.6,0.3-1.1,0.9-1.4l7.5-1.3c0.1-0.7,0.2-1.4,0.2-1.9c0-0.3,0-0.8,0-1.4c-0.7-0.1-1.6-0.2-2.6-0.2c-0.7,0-1.3,0.1-1.9,0.2
		c-3.6,0.3-5.9,0.5-6.8,0.5c-0.6,0-1.3,0-2.1-0.1c-0.8,0-1.6-0.1-2.3-0.1c-1.7,0-4.2-0.2-7.7-0.7c-0.4,0-1.1,0.1-2.1,0.1
		c-1,0-1.8,0.1-2.4,0.2c-0.2,0.7-0.3,1.2-0.3,1.6c0,0.3,0,0.8,0.1,1.8c0.4,0.2,1,0.3,1.8,0.4l0.6,0.2c1.3,0.1,2.4,0.3,3.6,0.5
		c0.3,0.1,0.6,0.1,0.8,0.1c0.3,0,0.5,0.1,0.7,0.2c0.2,0.5,0.3,0.9,0.3,1.1c0.2,2.5,0.4,4.7,0.4,6.5v2.1l0.1,4.2l-0.1,4l0.1,1.4
		c0,5.2,0,8.5-0.1,9.8l-0.1,1.1c0,2.1,0.1,5.3,0.2,9.6l-0.6,11.9c-0.9,0.4-1.7,0.6-2.4,0.8l-5.3,1.1c-0.1,1.3-0.2,2.4-0.2,3.4
		c3.7,0,6.5-0.1,8.2-0.4c0.2,0,0.9-0.1,2.1-0.1l0.9-0.1c2.6,0,4.5,0.1,5.9,0.2l6,0.3c0.2,0,0.5,0,0.7,0c0.5,0,1.1,0.1,1.7,0.1
		c0.7,0,1.6,0,2.6-0.1c0.1-0.7,0.2-1.3,0.2-1.7c0-0.3,0-0.8-0.1-1.5c-0.2-0.2-0.6-0.3-0.9-0.4c-0.2,0-0.4-0.1-0.7-0.2l-6.2-1.1
		l-0.4-0.3c-0.1-0.9-0.1-1.7-0.1-2.5v-14.8c0-0.2,0-0.8-0.1-1.7v-0.6l0.2-3.6c0.7-0.2,1.3-0.3,1.8-0.3h1.2c0.5,0,1.1,0,1.9,0
		c0.3,0,0.5,0,0.7,0l0.3,0l0.4,0l19.6,0.2c1.2,0,2.3,0.1,3.4,0.2c0,2.3,0.1,4.4,0.2,6l0,4.1C345,480.9,344.8,485.2,344.5,487.8z
		 M340.8,233.3l9.8,18.8l-21.2,5.7l44.9,6.5L340.8,233.3z M313.9,213.7l5.7,23.7l-27.7,9l52.2,2.4L313.9,213.7z M290.2,204.7
		l3.3,21.2l-26.9,9l45.7-2.4L290.2,204.7z M264.1,192.5l4.9,21.2l-29.4,11.4l48.2-4.1L264.1,192.5z M236.4,178.6l7.3,23.7l-29.4,9
		l44.9-3.3L236.4,178.6z M211.9,169.7l7.3,19.6l-31,8.2l45.7-0.8L211.9,169.7z M188.2,162.3l6.5,14.7l-23.7,4.9l38.3,2.4
		L188.2,162.3z M172.7,162.3l3.3,8.1l-12.2,4.1h24.5L172.7,162.3z M169.4,166.4l-10.6-3.3l-10.6-9l-0.8,4.1l-11.4,2.5l19.6,5.7
		l-5.7,4.1L169.4,166.4z"/>
</g>
</svg>
