<?xml version="1.0" encoding="utf-8"?>
<!-- Generator: Adobe Illustrator 19.0.0, SVG Export Plug-In . SVG Version: 6.00 Build 0)  -->
<svg version="1.1" id="Capa_1" xmlns="http://www.w3.org/2000/svg" xmlns:xlink="http://www.w3.org/1999/xlink" x="0px" y="0px"
	 viewBox="0 0 595.3 841.9" style="enable-background:new 0 0 595.3 841.9;" xml:space="preserve">
<style type="text/css">
	.st0{fill:none;stroke:#FFFFFF;stroke-width:10;stroke-linejoin:round;stroke-miterlimit:10;}
</style>
<path id="XMLID_1_" class="st0" d="M185.3,372.9c0,0,62.9-140.4,377.4-267.7c0,0,41-16.1-19.1,127.9l-96.4,15.5l84.2,14
	c0,0-29.5,68.7-90.8,149.7L314,403.6l111.7,28.3c0,0-28.5,39.8-75.2,66.8l-128.7-8.8l99.5,24.9c0,0-79.7,32.5-111.6,20.2
	c0,0,24.5,12.3,27,27c0,0-24.5-19.6-46.6-22.1c0,0,14.7,27,9.8,46.6c0,0-19.6-51.5-41.7-29.5c-22.1,22.1-83.4,142.4-83.4,142.4
	S45.3,719,30.6,750.9c0,0,51.5-125.2,98.2-198.8c0,0,93.1-150,213-274.3c0,0-130.2,92.2-217.9,237
	C123.8,514.8,142.9,431.4,185.3,372.9z"/>
</svg>
